{"glyphs":{"一":{"ha":1389,"x_min":67,"x_max":1329,"o":"m 67 579 l 1329 579 l 1329 506 l 67 506 l 67 579 z "},"七":{"ha":1389,"x_min":75,"x_max":1285,"o":"m 75 593 l 1274 792 l 1285 725 l 88 526 l 75 593 m 468 1131 l 539 1131 l 539 171 q 565 81 539 108 q 654 54 590 54 q 708 54 671 54 q 792 54 746 54 q 884 54 838 54 q 968 54 931 54 q 1022 54 1006 54 q 1094 56 1053 54 q 1156 63 1136 58 q 1160 40 1158 53 q 1164 16 1161 28 q 1167 -4 1167 4 q 1112 -9 1151 -7 q 1024 -11 1072 -11 q 967 -11 1006 -11 q 879 -11 928 -11 q 783 -11 831 -11 q 702 -11 736 -11 q 658 -11 668 -11 q 549 7 592 -11 q 488 66 507 25 q 468 175 468 107 l 468 1131 z "},"三":{"ha":1389,"x_min":93,"x_max":1296,"o":"m 174 1022 l 1219 1022 l 1219 956 l 174 956 l 174 1022 m 258 565 l 1111 565 l 1111 499 l 258 499 l 258 565 m 93 75 l 1296 75 l 1296 8 l 93 8 l 93 75 z "},"上":{"ha":1389,"x_min":78,"x_max":1313,"o":"m 651 690 l 1219 690 l 1219 624 l 651 624 l 651 690 m 78 29 l 1313 29 l 1313 -37 l 78 -37 l 78 29 m 613 1136 l 682 1136 l 682 -6 l 613 -6 l 613 1136 z "},"下":{"ha":1389,"x_min":81,"x_max":1310,"o":"m 81 1056 l 1310 1056 l 1310 988 l 81 988 l 81 1056 m 633 1014 l 703 1014 l 703 -103 l 633 -103 l 633 1014 m 674 689 l 717 738 q 853 669 782 707 q 994 590 925 631 q 1124 512 1064 550 q 1225 443 1183 474 l 1182 382 q 1081 454 1140 415 q 952 534 1021 493 q 812 615 883 575 q 674 689 740 656 z "},"不":{"ha":1389,"x_min":71,"x_max":1321,"o":"m 100 1058 l 1288 1058 l 1288 990 l 100 990 l 100 1058 m 786 689 l 833 732 q 967 646 899 692 q 1103 551 1036 600 q 1226 455 1169 501 q 1321 369 1282 408 l 1269 317 q 1176 405 1232 357 q 1054 503 1119 453 q 920 601 989 553 q 786 689 851 650 m 778 1038 l 849 1010 q 659 735 771 869 q 410 488 547 601 q 115 290 272 374 q 102 309 111 299 q 85 329 93 319 q 71 346 78 339 q 290 483 185 406 q 487 650 394 560 q 653 838 579 740 q 778 1038 726 936 m 657 794 l 728 864 l 728 864 l 728 -101 l 657 -101 l 657 794 z "},"且":{"ha":1389,"x_min":79,"x_max":1311,"o":"m 79 25 l 1311 25 l 1311 -40 l 79 -40 l 79 25 m 342 729 l 1054 729 l 1054 664 l 342 664 l 342 729 m 342 375 l 1054 375 l 1054 310 l 342 310 l 342 375 m 304 1075 l 1096 1075 l 1096 -8 l 1028 -8 l 1028 1008 l 371 1008 l 371 -8 l 304 -8 l 304 1075 z "},"世":{"ha":1389,"x_min":76,"x_max":1315,"o":"m 76 804 l 1315 804 l 1315 738 l 76 738 l 76 804 m 288 1124 l 358 1124 l 358 61 l 1274 61 l 1274 -3 l 288 -3 l 288 1124 m 650 1156 l 715 1156 l 715 346 l 1025 346 l 1025 1139 l 1093 1139 l 1093 282 l 650 282 l 650 1156 z "},"並":{"ha":1389,"x_min":79,"x_max":1311,"o":"m 121 863 l 1274 863 l 1274 796 l 121 796 l 121 863 m 79 31 l 1311 31 l 1311 -37 l 79 -37 l 79 31 m 510 826 l 576 826 l 576 -6 l 510 -6 l 510 826 m 803 826 l 871 826 l 871 -10 l 803 -10 l 803 826 m 1131 661 l 1201 640 q 1146 481 1176 565 q 1084 317 1115 396 q 1022 176 1053 238 l 964 196 q 1024 339 993 257 q 1084 506 1056 421 q 1131 661 1113 592 m 1018 1157 l 1086 1133 q 1007 995 1050 1067 q 926 872 964 924 l 868 897 q 922 978 893 932 q 976 1071 950 1024 q 1018 1157 1001 1118 m 192 628 l 253 644 q 322 493 290 574 q 374 335 353 413 q 401 194 394 257 l 338 179 q 309 319 331 242 q 258 476 288 396 q 192 628 229 557 m 308 1132 l 365 1157 q 455 1031 413 1099 q 517 910 497 963 l 456 881 q 419 961 443 917 q 367 1050 396 1006 q 308 1132 339 1094 z "},"中":{"ha":1389,"x_min":140,"x_max":1243,"o":"m 140 907 l 1243 907 l 1243 279 l 1175 279 l 1175 842 l 207 842 l 207 272 l 140 272 l 140 907 m 178 429 l 1217 429 l 1217 364 l 178 364 l 178 429 m 656 1160 l 725 1160 l 725 -100 l 656 -100 l 656 1160 z "},"主":{"ha":1389,"x_min":82,"x_max":1314,"o":"m 150 872 l 1242 872 l 1242 806 l 150 806 l 150 872 m 208 463 l 1190 463 l 1190 397 l 208 397 l 208 463 m 82 11 l 1314 11 l 1314 -54 l 82 -54 l 82 11 m 658 826 l 729 826 l 729 -21 l 658 -21 l 658 826 m 542 1114 l 596 1149 q 690 1074 642 1115 q 779 992 738 1033 q 846 918 821 951 l 789 876 q 724 951 765 910 q 635 1036 683 993 q 542 1114 588 1079 z "},"之":{"ha":1389,"x_min":75,"x_max":1328,"o":"m 146 874 l 1126 874 l 1126 807 l 146 807 l 146 874 m 1097 874 l 1114 874 l 1128 878 l 1178 844 q 1017 640 1111 746 q 812 434 922 535 q 585 247 701 333 q 357 100 469 161 q 335 124 349 111 q 310 146 321 138 q 534 290 419 206 q 756 472 649 374 q 951 669 863 569 q 1097 857 1040 769 l 1097 874 m 594 1131 l 653 1160 q 710 1082 682 1124 q 763 1001 739 1040 q 801 933 788 961 l 740 899 q 703 969 726 929 q 651 1053 679 1010 q 594 1131 622 1096 m 313 165 q 374 140 344 165 q 460 78 404 114 q 611 24 525 36 q 815 11 697 11 q 996 15 903 11 q 1175 24 1089 18 q 1328 33 1261 29 q 1319 11 1324 25 q 1312 -17 1315 -3 q 1307 -42 1308 -31 q 1206 -47 1268 -44 q 1071 -51 1143 -49 q 931 -54 999 -53 q 814 -56 863 -56 q 598 -41 688 -56 q 438 18 508 -26 q 366 74 397 46 q 311 101 335 101 q 260 78 289 101 q 197 17 231 56 q 126 -69 163 -21 l 75 -10 q 201 115 140 65 q 313 165 263 165 z "},"九":{"ha":1389,"x_min":56,"x_max":1347,"o":"m 517 1146 l 588 1146 q 581 840 586 990 q 554 549 576 689 q 482 288 532 410 q 342 66 432 165 q 108 -103 251 -33 q 95 -86 104 -96 q 76 -67 86 -76 q 56 -51 65 -57 q 283 108 196 14 q 419 320 371 203 q 488 572 467 438 q 513 851 508 706 q 517 1146 517 997 m 117 793 l 981 793 l 981 726 l 117 726 l 117 793 m 933 793 l 1003 793 l 1003 36 q 1012 -6 1003 4 q 1058 -15 1021 -15 q 1089 -15 1065 -15 q 1140 -15 1113 -15 q 1193 -15 1168 -15 q 1229 -15 1218 -15 q 1261 -1 1250 -15 q 1276 56 1272 14 q 1283 181 1281 99 q 1303 167 1292 174 q 1326 156 1315 161 q 1347 149 1338 151 q 1334 10 1344 60 q 1301 -61 1324 -40 q 1233 -82 1278 -82 q 1199 -82 1225 -82 q 1142 -82 1174 -82 q 1085 -82 1111 -82 q 1053 -82 1060 -82 q 981 -72 1007 -82 q 944 -35 954 -61 q 933 38 933 -10 l 933 793 z "},"也":{"ha":1389,"x_min":47,"x_max":1317,"o":"m 47 576 l 1154 914 l 1174 854 l 67 517 l 47 576 m 710 1157 l 776 1157 l 776 185 l 710 185 l 710 1157 m 311 1065 l 378 1065 l 378 113 q 391 35 378 63 q 441 -2 404 8 q 547 -12 478 -12 q 619 -12 568 -12 q 738 -12 671 -12 q 873 -12 804 -12 q 997 -12 942 -12 q 1079 -12 1051 -12 q 1180 10 1146 -12 q 1228 88 1214 32 q 1251 250 1243 144 q 1283 232 1265 240 q 1317 219 1301 224 q 1287 43 1307 108 q 1218 -49 1267 -22 q 1074 -76 1169 -76 q 1023 -76 1063 -76 q 928 -76 983 -76 q 813 -76 874 -76 q 698 -76 753 -76 q 604 -76 643 -76 q 554 -76 565 -76 q 410 -61 464 -76 q 334 -3 357 -46 q 311 115 311 39 l 311 1065 m 1142 896 l 1125 896 l 1161 929 l 1213 913 l 1208 897 q 1197 694 1204 803 q 1180 483 1190 585 q 1157 306 1169 382 l 1100 322 q 1115 445 1108 375 q 1126 594 1121 515 q 1136 750 1132 672 q 1142 896 1140 828 z "},"了":{"ha":1389,"x_min":138,"x_max":1224,"o":"m 664 676 l 733 676 l 733 -1 q 719 -62 733 -43 q 671 -90 706 -82 q 569 -101 638 -99 q 392 -101 501 -103 q 381 -68 389 -87 q 364 -35 372 -49 q 481 -37 428 -36 q 572 -37 535 -37 q 625 -35 610 -36 q 656 -26 647 -33 q 664 -1 664 -19 l 664 676 m 138 1043 l 1160 1043 l 1160 978 l 138 978 l 138 1043 m 1140 1043 l 1157 1043 l 1172 1047 l 1224 1011 q 1074 869 1161 940 q 892 737 988 799 q 708 632 797 675 q 695 647 704 639 q 678 664 686 656 q 664 676 671 672 q 795 750 728 708 q 928 839 863 792 q 1047 935 993 886 q 1140 1026 1101 983 l 1140 1043 z "},"事":{"ha":1389,"x_min":76,"x_max":1319,"o":"m 656 1160 l 724 1160 l 724 -11 q 710 -69 724 -51 q 669 -96 697 -87 q 587 -105 642 -103 q 444 -107 532 -107 q 435 -76 443 -94 q 419 -44 428 -58 q 508 -46 467 -46 q 580 -46 550 -46 q 622 -46 610 -46 q 649 -37 642 -44 q 656 -11 656 -31 l 656 1160 m 99 1036 l 1294 1036 l 1294 976 l 99 976 l 99 1036 m 311 825 l 311 706 l 1088 706 l 1088 825 l 311 825 m 246 878 l 1154 878 l 1154 651 l 246 651 l 246 878 m 203 532 l 1175 532 l 1175 50 l 1107 50 l 1107 476 l 203 476 l 203 532 m 76 357 l 1319 357 l 1319 299 l 76 299 l 76 357 m 189 171 l 1140 171 l 1140 114 l 189 114 l 189 171 z "},"二":{"ha":1389,"x_min":81,"x_max":1310,"o":"m 200 956 l 1192 956 l 1192 886 l 200 886 l 200 956 m 81 121 l 1310 121 l 1310 49 l 81 49 l 81 121 z "},"五":{"ha":1389,"x_min":81,"x_max":1311,"o":"m 174 1018 l 1207 1018 l 1207 953 l 174 953 l 174 1018 m 81 46 l 1311 46 l 1311 -22 l 81 -22 l 81 46 m 592 996 l 663 996 q 624 747 646 881 q 581 478 603 613 q 537 222 558 343 q 496 11 515 101 l 425 13 q 467 225 444 103 q 513 482 490 347 q 556 750 536 617 q 592 996 576 883 m 249 613 l 1031 613 l 1031 549 l 249 549 l 249 613 m 1003 613 l 1010 613 l 1022 617 l 1072 611 q 1062 476 1068 551 q 1048 319 1056 401 q 1031 156 1040 236 q 1013 7 1022 76 l 944 13 q 963 163 954 82 q 979 327 972 244 q 992 481 986 410 q 1003 601 999 553 l 1003 613 z "},"些":{"ha":1389,"x_min":67,"x_max":1321,"o":"m 239 311 l 1169 311 l 1169 246 l 239 246 l 239 311 m 86 0 l 1304 0 l 1304 -65 l 86 -65 l 86 0 m 413 903 l 689 903 l 689 840 l 413 840 l 413 903 m 774 1158 l 840 1158 l 840 593 q 856 549 840 560 q 922 538 871 538 q 970 538 935 538 q 1049 538 1006 538 q 1130 538 1092 538 q 1185 538 1168 538 q 1228 550 1214 538 q 1248 599 1242 563 q 1256 706 1254 635 q 1276 694 1265 700 q 1299 685 1288 689 q 1321 678 1311 681 q 1304 554 1317 599 q 1265 492 1292 510 q 1189 474 1239 474 q 1153 474 1181 474 q 1089 474 1125 474 q 1017 474 1053 474 q 954 474 981 474 q 919 474 928 474 q 831 484 863 474 q 786 521 799 494 q 774 594 774 547 l 774 1158 m 67 500 q 245 522 143 510 q 463 550 347 535 q 696 581 579 565 l 699 517 q 472 487 585 503 q 258 458 360 471 q 75 433 157 444 l 67 500 m 381 1158 l 446 1158 l 446 521 l 381 510 l 381 1158 m 167 1001 l 229 1001 l 229 489 l 167 481 l 167 1001 m 807 901 l 1228 901 l 1228 839 l 807 839 l 807 901 z "},"交":{"ha":1389,"x_min":67,"x_max":1329,"o":"m 921 597 l 989 576 q 790 251 915 383 q 494 32 665 118 q 110 -108 324 -54 q 99 -88 107 -100 q 83 -65 92 -76 q 67 -46 75 -54 q 449 82 281 1 q 736 289 617 163 q 921 597 856 415 m 460 829 l 524 804 q 415 686 476 746 q 290 574 354 626 q 164 482 225 522 q 149 499 160 489 q 130 518 139 508 q 111 533 121 528 q 238 619 174 571 q 360 721 301 667 q 460 829 418 775 m 472 589 q 790 181 572 339 q 1329 -31 1008 24 q 1314 -49 1322 -37 q 1298 -72 1306 -60 q 1285 -93 1290 -83 q 898 35 1068 -51 q 606 256 728 122 q 413 568 485 389 l 472 589 m 100 957 l 1286 957 l 1286 892 l 100 892 l 100 957 m 876 789 l 929 826 q 1063 729 994 783 q 1192 621 1132 675 q 1289 522 1251 567 l 1235 478 q 1140 578 1199 524 q 1012 689 1081 633 q 876 789 943 744 m 594 1147 l 657 1169 q 717 1079 688 1129 q 760 994 746 1029 l 696 968 q 654 1055 683 1004 q 594 1147 625 1106 z "},"京":{"ha":1389,"x_min":82,"x_max":1297,"o":"m 96 976 l 1297 976 l 1297 911 l 96 911 l 96 976 m 340 710 l 340 444 l 1061 444 l 1061 710 l 340 710 m 274 772 l 1131 772 l 1131 382 l 274 382 l 274 772 m 967 249 l 1021 282 q 1120 181 1068 236 q 1217 73 1172 125 q 1292 -18 1263 21 l 1235 -60 q 1163 35 1208 -19 q 1067 145 1118 89 q 967 249 1015 201 m 664 407 l 733 407 l 733 -14 q 722 -67 733 -50 q 681 -93 711 -85 q 590 -103 650 -101 q 435 -104 531 -104 q 424 -73 431 -90 q 408 -40 417 -56 q 510 -42 464 -42 q 587 -42 556 -43 q 632 -42 618 -42 q 658 -34 651 -40 q 664 -14 664 -28 l 664 407 m 347 282 l 413 260 q 285 93 361 178 q 131 -53 208 8 q 108 -31 124 -43 q 82 -12 93 -18 q 182 77 132 28 q 276 180 232 126 q 347 282 319 233 m 586 1147 l 649 1168 q 717 1063 682 1121 q 769 965 751 1006 l 703 940 q 653 1040 686 982 q 586 1147 619 1099 z "},"人":{"ha":1389,"x_min":71,"x_max":1331,"o":"m 664 1153 l 736 1153 q 730 1005 735 1097 q 708 797 725 913 q 652 558 690 682 q 547 312 614 433 q 376 84 479 190 q 124 -97 272 -22 q 100 -70 115 -85 q 71 -46 85 -56 q 319 128 218 26 q 485 348 421 231 q 586 586 550 465 q 639 817 622 707 q 660 1015 656 928 q 664 1153 664 1103 m 725 979 q 738 890 729 957 q 770 729 747 824 q 834 526 793 635 q 941 311 875 418 q 1103 113 1007 204 q 1331 -37 1199 22 q 1303 -63 1317 -47 q 1282 -93 1289 -79 q 1049 64 1147 -31 q 885 269 951 158 q 777 493 819 381 q 711 704 735 606 q 677 875 688 803 q 661 974 667 947 l 725 979 z "},"什":{"ha":1389,"x_min":60,"x_max":1322,"o":"m 432 1154 l 494 1135 q 385 901 447 1015 q 251 688 322 788 q 101 510 179 589 q 90 529 99 518 q 74 552 82 540 q 60 571 67 564 q 202 735 133 642 q 330 935 271 828 q 432 1154 389 1043 m 282 811 l 344 875 l 347 874 l 347 -100 l 282 -100 l 282 811 m 450 668 l 1322 668 l 1322 601 l 450 601 l 450 668 m 858 1149 l 926 1149 l 926 -103 l 858 -103 l 858 1149 z "},"今":{"ha":1389,"x_min":57,"x_max":1332,"o":"m 229 471 l 1104 471 l 1104 404 l 229 404 l 229 471 m 724 1118 q 847 981 775 1050 q 1002 849 919 911 q 1169 734 1085 786 q 1332 647 1254 682 q 1314 629 1324 640 q 1295 608 1304 618 q 1279 588 1286 597 q 1118 682 1203 626 q 951 804 1033 738 q 794 944 868 871 q 665 1089 719 1017 l 724 1118 m 699 1165 l 760 1136 q 583 924 688 1026 q 357 734 479 821 q 107 583 235 647 q 85 612 99 596 q 57 639 71 628 q 305 781 185 697 q 527 963 425 864 q 699 1165 629 1063 m 1094 471 l 1108 471 l 1121 476 l 1171 450 q 1075 328 1129 396 q 960 185 1021 260 q 839 35 900 110 q 722 -106 778 -39 l 656 -75 q 775 65 713 -8 q 897 213 838 139 q 1007 351 956 286 q 1094 463 1058 415 l 1094 471 m 458 714 l 938 714 l 938 649 l 458 649 l 458 714 z "},"他":{"ha":1389,"x_min":29,"x_max":1331,"o":"m 869 1158 l 933 1158 l 933 194 l 869 194 l 869 1158 m 378 571 l 1218 896 l 1244 836 l 403 511 l 378 571 m 561 1028 l 625 1028 l 625 71 q 635 10 625 32 q 672 -19 644 -11 q 750 -28 699 -28 q 804 -28 765 -28 q 894 -28 843 -28 q 997 -28 946 -28 q 1091 -28 1049 -28 q 1154 -28 1133 -28 q 1221 -10 1199 -28 q 1253 52 1243 7 q 1267 181 1263 97 q 1299 164 1281 172 q 1331 153 1317 156 q 1308 8 1324 61 q 1257 -68 1293 -46 q 1150 -90 1221 -90 q 1100 -90 1140 -90 q 1006 -90 1060 -90 q 897 -90 951 -90 q 803 -90 843 -90 q 753 -90 763 -90 q 638 -77 679 -90 q 578 -28 596 -64 q 561 72 561 7 l 561 1028 m 390 1154 l 454 1135 q 347 906 408 1018 q 216 694 286 793 q 71 519 146 596 q 60 538 67 526 q 44 563 53 550 q 29 581 36 575 q 168 743 101 651 q 292 940 235 835 q 390 1154 350 1046 m 239 811 l 301 875 l 303 874 l 303 -100 l 239 -100 l 239 811 m 1194 874 l 1179 874 l 1214 904 l 1265 888 l 1263 874 q 1257 655 1261 771 q 1246 431 1253 539 q 1228 242 1239 322 l 1172 258 q 1183 391 1179 315 q 1189 550 1186 467 q 1193 717 1192 633 q 1194 874 1194 800 z "},"代":{"ha":1389,"x_min":38,"x_max":1353,"o":"m 438 676 l 1307 783 l 1317 719 l 446 614 l 438 676 m 992 1085 l 1038 1118 q 1131 1046 1083 1086 q 1219 966 1178 1006 q 1286 894 1260 926 l 1236 857 q 1170 928 1211 889 q 1083 1010 1129 968 q 992 1085 1036 1051 m 457 1143 l 521 1124 q 399 888 468 1001 q 248 675 329 774 q 81 500 167 576 q 69 519 76 508 q 53 542 61 531 q 38 561 44 554 q 200 723 122 631 q 344 922 278 815 q 457 1143 410 1029 m 292 789 l 360 857 l 360 854 l 360 -101 l 292 -101 l 292 789 m 778 1140 l 844 1140 q 880 690 854 899 q 949 322 906 481 q 1058 72 993 164 q 1210 -26 1122 -19 q 1263 37 1243 -28 q 1296 226 1283 101 q 1313 214 1303 221 q 1335 202 1324 207 q 1353 194 1346 197 q 1320 16 1340 82 q 1273 -78 1300 -50 q 1211 -103 1246 -106 q 1052 -33 1119 -99 q 937 145 985 32 q 858 412 889 258 q 808 750 826 565 q 778 1140 789 935 z "},"以":{"ha":1389,"x_min":58,"x_max":1342,"o":"m 518 953 l 576 981 q 667 871 624 931 q 744 753 710 811 q 799 649 779 696 l 736 615 q 684 722 718 663 q 607 842 650 782 q 518 953 564 901 m 58 111 q 223 182 129 140 q 422 270 317 224 q 633 364 528 317 l 649 299 q 449 208 550 254 q 253 120 347 163 q 83 44 160 78 l 58 111 m 903 328 l 954 369 q 1060 265 1006 319 q 1168 153 1115 210 q 1266 44 1221 96 q 1342 -49 1311 -7 l 1283 -99 q 1210 -4 1254 -57 q 1115 106 1167 49 q 1008 222 1063 164 q 903 328 954 279 m 1097 1092 l 1168 1085 q 1092 652 1140 840 q 960 321 1043 464 q 749 73 878 178 q 431 -108 619 -32 q 417 -90 426 -100 q 397 -69 407 -79 q 376 -51 386 -58 q 692 116 565 17 q 900 354 819 215 q 1026 676 981 493 q 1097 1092 1072 858 m 233 1089 l 300 1092 l 321 164 l 253 163 l 233 1089 z "},"件":{"ha":1389,"x_min":56,"x_max":1313,"o":"m 853 1143 l 919 1143 l 919 -104 l 853 -104 l 853 1143 m 611 1093 l 676 1081 q 631 888 658 982 q 570 714 604 794 q 493 569 536 633 q 477 582 488 575 q 456 595 467 589 q 438 606 446 601 q 513 743 479 665 q 571 910 546 821 q 611 1093 596 1000 m 601 865 l 1254 865 l 1254 799 l 583 799 l 601 865 m 440 454 l 1313 454 l 1313 388 l 440 388 l 440 454 m 393 1154 l 457 1135 q 357 906 414 1018 q 235 696 300 794 q 97 519 169 597 q 87 538 94 526 q 71 562 79 550 q 56 581 63 574 q 185 744 122 651 q 301 941 247 836 q 393 1154 354 1046 m 250 811 l 314 875 l 317 874 l 317 -100 l 250 -100 l 250 811 z "},"任":{"ha":1389,"x_min":35,"x_max":1329,"o":"m 429 554 l 1329 554 l 1329 489 l 429 489 l 429 554 m 475 19 l 1297 19 l 1297 -46 l 475 -46 l 475 19 m 854 986 l 921 986 l 921 -11 l 854 -11 l 854 986 m 274 799 l 339 865 l 340 864 l 340 -100 l 274 -100 l 274 799 m 432 1149 l 496 1131 q 380 894 446 1010 q 238 679 314 779 q 79 503 161 579 q 67 522 75 510 q 51 545 60 533 q 35 564 43 557 q 188 728 114 635 q 324 928 261 821 q 432 1149 386 1036 m 532 1024 l 1269 1024 l 1269 960 l 532 960 l 532 1024 z "},"但":{"ha":1389,"x_min":44,"x_max":1338,"o":"m 419 22 l 1338 22 l 1338 -42 l 419 -42 l 419 22 m 618 611 l 618 290 l 1139 290 l 1139 611 l 618 611 m 618 989 l 618 675 l 1139 675 l 1139 989 l 618 989 m 549 1054 l 1210 1054 l 1210 228 l 549 228 l 549 1054 m 408 1154 l 472 1135 q 365 905 426 1018 q 233 693 304 792 q 88 518 163 594 q 76 538 83 525 q 60 563 68 550 q 44 581 51 575 q 185 743 118 651 q 309 940 251 835 q 408 1154 367 1046 m 256 811 l 321 876 l 324 875 l 324 -100 l 256 -100 l 256 811 z "},"位":{"ha":1389,"x_min":58,"x_max":1325,"o":"m 517 894 l 1263 894 l 1263 831 l 517 831 l 517 894 m 615 708 l 676 722 q 713 564 696 647 q 743 399 729 481 q 768 245 757 317 q 785 121 779 174 l 717 100 q 703 229 713 156 q 679 385 693 303 q 649 551 665 468 q 615 708 632 633 m 1089 736 l 1160 722 q 1126 540 1144 638 q 1087 344 1108 443 q 1043 156 1065 246 q 1001 -7 1021 65 l 940 10 q 983 172 961 81 q 1024 363 1004 264 q 1060 559 1043 463 q 1089 736 1078 656 m 453 21 l 1325 21 l 1325 -44 l 453 -44 l 453 21 m 806 1144 l 868 1163 q 908 1049 888 1110 q 939 943 929 988 l 872 922 q 845 1029 864 967 q 806 1144 826 1092 m 421 1154 l 483 1135 q 377 906 438 1018 q 247 694 317 793 q 101 519 176 596 q 90 538 97 526 q 74 563 82 550 q 58 581 65 575 q 197 743 131 651 q 322 940 264 835 q 421 1154 379 1046 m 268 811 l 333 876 l 335 875 l 335 -100 l 268 -100 l 268 811 z "},"低":{"ha":1389,"x_min":28,"x_max":1325,"o":"m 389 1154 l 454 1135 q 347 906 408 1018 q 215 694 286 793 q 69 519 144 596 q 59 538 67 526 q 44 563 51 550 q 28 581 36 575 q 168 743 101 651 q 292 940 235 835 q 389 1154 349 1046 m 239 811 l 301 875 l 303 874 l 303 -100 l 239 -100 l 239 811 m 569 614 l 1297 614 l 1297 550 l 569 550 l 569 614 m 1176 1167 l 1236 1117 q 1034 1057 1149 1085 q 795 1005 919 1029 q 553 963 671 981 q 543 989 550 974 q 531 1017 536 1004 q 768 1060 646 1036 q 998 1111 890 1083 q 1176 1167 1106 1139 m 915 1054 l 978 1054 q 996 719 983 879 q 1028 426 1008 560 q 1074 192 1047 292 q 1135 38 1101 93 q 1210 -21 1169 -18 q 1249 37 1233 -21 q 1272 200 1265 94 q 1289 190 1279 196 q 1308 178 1299 183 q 1325 171 1318 172 q 1297 10 1314 69 q 1259 -73 1281 -49 q 1213 -97 1238 -97 q 1104 -35 1150 -94 q 1025 131 1058 25 q 969 382 992 238 q 935 697 947 526 q 915 1054 922 868 m 501 -1 l 499 57 l 535 86 l 869 176 q 870 147 869 164 q 871 119 871 131 q 685 65 756 86 q 578 31 615 43 q 526 13 542 19 q 501 -1 510 6 m 501 -1 q 494 18 499 7 q 483 40 489 29 q 471 60 476 51 q 509 84 488 65 q 531 143 531 103 l 531 1015 l 596 1004 l 596 71 q 586 65 596 71 q 563 52 576 60 q 534 35 549 44 q 510 16 519 25 q 501 -1 501 7 m 656 -8 l 1025 -8 l 1025 -69 l 656 -69 l 656 -8 z "},"住":{"ha":1389,"x_min":61,"x_max":1328,"o":"m 763 1140 l 822 1164 q 898 1044 861 1110 q 953 935 935 979 l 888 904 q 836 1018 871 951 q 763 1140 801 1085 m 424 1154 l 488 1135 q 381 905 442 1018 q 251 693 321 792 q 104 518 181 594 q 93 538 101 525 q 77 563 85 550 q 61 581 69 575 q 201 743 135 651 q 325 940 268 835 q 424 1154 382 1046 m 271 811 l 336 878 l 339 875 l 339 -100 l 271 -100 l 271 811 m 465 881 l 1307 881 l 1307 817 l 465 817 l 465 881 m 514 472 l 1265 472 l 1265 408 l 514 408 l 514 472 m 426 11 l 1328 11 l 1328 -53 l 426 -53 l 426 11 m 851 860 l 918 860 l 918 -24 l 851 -24 l 851 860 z "},"何":{"ha":1389,"x_min":63,"x_max":1331,"o":"m 463 1014 l 1331 1014 l 1331 950 l 463 950 l 463 1014 m 1151 990 l 1218 990 l 1218 10 q 1203 -58 1218 -36 q 1154 -87 1189 -79 q 1052 -98 1121 -96 q 878 -100 983 -100 q 869 -65 876 -85 q 853 -29 861 -44 q 967 -31 914 -31 q 1058 -31 1019 -32 q 1113 -29 1097 -31 q 1144 -20 1136 -28 q 1151 8 1151 -12 l 1151 990 m 518 726 l 582 726 l 582 161 l 518 161 l 518 726 m 549 726 l 938 726 l 938 261 l 549 261 l 549 324 l 872 324 l 872 664 l 549 664 l 549 726 m 385 1156 l 450 1138 q 354 911 408 1022 q 236 702 300 800 q 104 526 172 604 q 94 545 101 533 q 78 569 86 557 q 63 589 69 582 q 188 749 128 658 q 298 944 247 840 q 385 1156 349 1049 m 251 810 l 317 875 l 318 874 l 318 -103 l 251 -103 l 251 810 z "},"作":{"ha":1389,"x_min":61,"x_max":1326,"o":"m 672 924 l 1326 924 l 1326 857 l 640 857 l 672 924 m 840 624 l 1297 624 l 1297 561 l 840 561 l 840 624 m 840 318 l 1317 318 l 1317 253 l 840 253 l 840 318 m 807 903 l 876 903 l 876 -101 l 807 -101 l 807 903 m 739 1140 l 804 1124 q 713 911 765 1015 q 602 716 661 807 q 479 554 543 625 q 464 567 474 558 q 444 585 454 576 q 425 599 433 593 q 548 752 490 665 q 654 938 606 839 q 739 1140 703 1038 m 424 1154 l 488 1135 q 381 905 442 1018 q 251 693 321 792 q 104 518 181 594 q 93 538 101 525 q 77 563 85 550 q 61 581 69 575 q 201 743 135 651 q 325 940 268 835 q 424 1154 382 1046 m 271 811 l 336 878 l 339 875 l 339 -100 l 271 -100 l 271 811 z "},"你":{"ha":1389,"x_min":28,"x_max":1324,"o":"m 658 1151 l 725 1138 q 664 921 700 1026 q 584 723 628 815 q 489 560 540 631 q 473 572 483 564 q 452 589 463 581 q 433 601 442 597 q 527 758 485 669 q 603 947 569 846 q 658 1151 636 1047 m 644 581 l 710 567 q 654 386 688 474 q 582 222 621 299 q 499 88 543 146 q 481 99 492 92 q 458 113 469 107 q 439 124 447 119 q 559 329 507 208 q 644 581 611 450 m 619 879 l 1278 879 l 1278 817 l 593 817 l 619 879 m 868 857 l 936 857 l 936 -11 q 926 -64 936 -46 q 893 -90 917 -82 q 827 -101 869 -99 q 721 -104 785 -104 q 711 -70 718 -90 q 696 -36 704 -50 q 790 -37 749 -37 q 846 -36 832 -37 q 863 -31 858 -36 q 868 -12 868 -26 l 868 857 m 1067 568 l 1126 588 q 1207 428 1169 514 q 1272 260 1244 343 q 1314 114 1300 178 l 1250 92 q 1209 240 1238 157 q 1144 408 1181 322 q 1067 568 1107 494 m 1256 879 l 1265 879 l 1278 883 l 1324 871 q 1292 721 1308 800 q 1261 590 1275 642 l 1203 601 q 1220 681 1211 636 q 1238 776 1229 726 q 1256 869 1247 825 l 1256 879 m 389 1154 l 453 1135 q 346 906 407 1018 q 215 694 285 793 q 69 519 144 596 q 58 538 65 526 q 43 563 51 550 q 28 581 35 575 q 167 743 100 651 q 291 940 233 835 q 389 1154 349 1046 m 239 811 l 301 875 l 303 874 l 303 -100 l 239 -100 l 239 811 z "},"使":{"ha":1389,"x_min":35,"x_max":1339,"o":"m 436 994 l 1331 994 l 1331 931 l 436 931 l 436 994 m 547 713 l 547 463 l 1214 463 l 1214 713 l 547 713 m 483 772 l 1279 772 l 1279 401 l 483 401 l 483 772 m 544 365 q 728 167 611 251 q 1002 29 846 83 q 1339 -47 1158 -25 q 1324 -64 1332 -53 q 1309 -86 1315 -75 q 1297 -108 1303 -97 q 958 -22 1115 -81 q 681 127 801 36 q 488 343 560 218 l 544 365 m 843 1156 l 908 1156 l 908 553 q 901 397 908 475 q 869 246 894 319 q 792 106 844 172 q 652 -16 740 39 q 429 -111 564 -71 q 418 -92 425 -103 q 404 -72 411 -82 q 390 -54 397 -61 q 606 31 522 -19 q 739 142 690 81 q 810 271 788 203 q 838 410 832 339 q 843 553 843 482 l 843 1156 m 404 1161 l 468 1142 q 358 914 421 1025 q 224 706 296 803 q 76 532 153 608 q 66 551 74 539 q 50 575 58 564 q 35 594 42 586 q 176 754 108 664 q 303 949 244 844 q 404 1161 363 1053 m 251 813 l 315 876 l 317 875 l 317 -111 l 251 -111 l 251 813 z "},"來":{"ha":1389,"x_min":61,"x_max":1331,"o":"m 103 953 l 1296 953 l 1296 888 l 103 888 l 103 953 m 657 1157 l 726 1157 l 726 -103 l 657 -103 l 657 1157 m 665 549 l 722 524 q 601 355 671 438 q 449 199 531 272 q 281 67 368 125 q 108 -33 194 8 q 95 -13 104 -24 q 78 7 86 -3 q 61 24 69 17 q 234 115 147 60 q 401 240 321 171 q 549 388 482 310 q 665 549 617 467 m 722 550 q 881 333 785 438 q 1094 148 978 229 q 1331 19 1211 67 q 1313 2 1322 13 q 1296 -19 1304 -8 q 1281 -39 1288 -29 q 1045 101 1163 14 q 829 297 928 188 q 664 525 731 406 l 722 550 m 299 633 l 346 672 q 417 610 381 644 q 486 542 453 575 q 539 483 519 510 l 490 439 q 438 498 471 464 q 369 568 406 532 q 299 633 333 604 m 358 840 l 425 829 q 318 558 389 678 q 151 360 247 439 q 138 374 147 365 q 117 390 128 382 q 97 403 106 399 q 260 588 194 476 q 358 840 325 700 m 969 632 l 1017 671 q 1119 589 1065 635 q 1220 499 1172 543 q 1299 422 1268 456 l 1250 376 q 1174 455 1221 410 q 1072 547 1126 500 q 969 632 1018 593 m 1018 840 l 1083 831 q 1001 588 1056 696 q 871 407 947 481 q 855 420 865 413 q 833 435 844 428 q 814 447 822 443 q 944 615 893 514 q 1018 840 994 717 z "},"例":{"ha":1389,"x_min":29,"x_max":1281,"o":"m 421 1082 l 932 1082 l 932 1019 l 421 1019 l 421 1082 m 554 794 l 839 794 l 839 732 l 536 732 l 554 794 m 478 518 l 507 569 q 598 507 551 542 q 685 439 644 472 q 749 379 725 406 l 721 318 q 655 383 696 347 q 568 455 614 419 q 478 518 522 490 m 950 1004 l 1013 1004 l 1013 208 l 950 208 l 950 1004 m 1215 1140 l 1281 1140 l 1281 -6 q 1269 -64 1281 -46 q 1229 -90 1257 -82 q 1155 -102 1204 -100 q 1024 -104 1106 -104 q 1013 -72 1019 -92 q 999 -37 1006 -53 q 1117 -39 1065 -39 q 1185 -39 1168 -39 q 1208 -31 1201 -37 q 1215 -7 1215 -25 l 1215 1140 m 575 1061 l 642 1051 q 609 870 629 964 q 558 683 589 776 q 486 508 528 590 q 389 358 444 425 q 376 374 385 365 q 360 390 368 382 q 344 404 353 399 q 436 546 397 467 q 503 714 475 625 q 548 892 531 803 q 575 1061 565 981 m 811 794 l 825 794 l 838 799 l 876 783 q 722 225 835 444 q 449 -108 608 6 q 435 -90 444 -100 q 417 -72 426 -81 q 401 -58 408 -62 q 665 257 557 50 q 811 778 774 464 l 811 794 m 343 1151 l 406 1135 q 314 903 367 1017 q 199 688 261 789 q 71 508 138 588 q 60 528 67 517 q 45 551 53 539 q 29 571 38 564 q 151 736 93 643 q 259 935 210 829 q 343 1151 308 1042 m 229 832 l 290 894 l 293 892 l 293 -104 l 229 -104 l 229 832 z "},"便":{"ha":1389,"x_min":58,"x_max":1335,"o":"m 449 1074 l 1310 1074 l 1310 1011 l 449 1011 l 449 1074 m 522 319 q 704 139 586 213 q 983 24 822 65 q 1335 -33 1143 -18 q 1319 -52 1326 -40 q 1304 -74 1311 -64 q 1293 -96 1297 -85 q 940 -30 1101 -76 q 656 98 778 17 q 463 299 533 179 l 522 319 m 560 593 l 560 422 l 1188 422 l 1188 593 l 560 593 m 560 817 l 560 649 l 1188 649 l 1188 817 l 560 817 m 496 874 l 1253 874 l 1253 365 l 496 365 l 496 874 m 850 1054 l 917 1054 l 917 511 q 908 366 917 439 q 872 224 900 293 q 789 94 844 156 q 641 -19 733 32 q 408 -108 549 -71 q 397 -90 404 -100 q 383 -70 390 -81 q 369 -53 376 -60 q 597 27 507 -19 q 738 130 686 74 q 813 249 789 186 q 844 378 838 311 q 850 511 850 444 l 850 1054 m 376 1154 l 439 1136 q 347 908 400 1019 q 232 697 293 796 q 103 519 171 597 q 91 538 99 526 q 74 562 83 550 q 58 581 65 574 q 182 744 122 651 q 291 941 242 836 q 376 1154 340 1046 m 239 811 l 301 875 l 303 874 l 303 -100 l 239 -100 l 239 811 z "},"保":{"ha":1389,"x_min":35,"x_max":1325,"o":"m 843 692 l 910 692 l 910 -104 l 843 -104 l 843 692 m 414 478 l 1325 478 l 1325 415 l 414 415 l 414 478 m 589 1029 l 589 733 l 1169 733 l 1169 1029 l 589 1029 m 524 1090 l 1236 1090 l 1236 669 l 524 669 l 524 1090 m 403 1154 l 467 1135 q 358 907 419 1018 q 224 699 296 796 q 78 525 153 601 q 66 544 74 532 q 51 568 58 557 q 35 588 43 579 q 176 747 108 657 q 302 942 243 838 q 403 1154 361 1046 m 250 811 l 313 875 l 315 874 l 315 -100 l 250 -100 l 250 811 m 663 333 l 724 313 q 645 192 689 254 q 557 72 601 129 q 471 -31 513 15 q 457 -17 467 -25 q 436 -3 447 -10 q 418 10 425 4 q 547 163 481 75 q 663 333 613 250 m 1007 304 l 1058 333 q 1159 224 1108 283 q 1253 109 1210 165 q 1322 10 1296 53 l 1267 -26 q 1197 76 1240 18 q 1105 194 1154 133 q 1007 304 1056 254 z "},"信":{"ha":1389,"x_min":51,"x_max":1304,"o":"m 529 728 l 1192 728 l 1192 668 l 529 668 l 529 728 m 529 533 l 1192 533 l 1192 475 l 529 475 l 529 533 m 550 17 l 1168 17 l 1168 -43 l 550 -43 l 550 17 m 428 922 l 1304 922 l 1304 861 l 428 861 l 428 922 m 514 333 l 1204 333 l 1204 -100 l 1140 -100 l 1140 274 l 575 274 l 575 -104 l 514 -104 l 514 333 m 753 1133 l 814 1157 q 873 1065 844 1115 q 915 979 901 1015 l 853 950 q 810 1039 839 988 q 753 1133 782 1090 m 372 1154 l 435 1138 q 340 908 394 1021 q 224 697 286 796 q 93 521 161 599 q 83 540 90 528 q 67 563 75 551 q 51 581 58 574 q 176 744 117 651 q 286 941 236 836 q 372 1154 336 1046 m 244 806 l 304 868 l 307 867 l 307 -107 l 244 -107 l 244 806 z "},"個":{"ha":1389,"x_min":29,"x_max":1276,"o":"m 476 1068 l 1276 1068 l 1276 -93 l 1210 -93 l 1210 1004 l 540 1004 l 540 -103 l 476 -103 l 476 1068 m 611 785 l 1154 785 l 1154 726 l 611 726 l 611 785 m 515 44 l 1253 44 l 1253 -18 l 515 -18 l 515 44 m 851 951 l 910 951 l 910 514 l 851 514 l 851 951 m 739 499 l 739 240 l 1029 240 l 1029 499 l 739 499 m 682 556 l 1086 556 l 1086 185 l 682 185 l 682 556 m 349 1151 l 411 1133 q 318 904 372 1017 q 201 692 264 792 q 69 514 138 592 q 59 533 67 521 q 44 557 51 544 q 29 576 36 569 q 154 740 94 647 q 263 937 214 832 q 349 1151 313 1042 m 232 835 l 294 899 l 296 897 l 296 -106 l 232 -106 l 232 835 z "},"們":{"ha":1389,"x_min":29,"x_max":1279,"o":"m 481 864 l 781 864 l 781 807 l 481 807 l 481 864 m 933 864 l 1238 864 l 1238 807 l 933 807 l 933 864 m 1214 1075 l 1279 1075 l 1279 0 q 1267 -62 1279 -42 q 1224 -90 1254 -82 q 1132 -101 1193 -99 q 972 -103 1071 -103 q 966 -82 971 -94 q 956 -58 961 -69 q 946 -36 951 -46 q 1047 -38 1000 -37 q 1129 -38 1094 -39 q 1178 -37 1164 -37 q 1206 -28 1197 -36 q 1214 0 1214 -21 l 1214 1075 m 444 1075 l 507 1075 l 507 -101 l 444 -101 l 444 1075 m 483 1075 l 806 1075 l 806 585 l 483 585 l 483 643 l 749 643 l 749 1017 l 483 1017 l 483 1075 m 1247 1075 l 1247 1017 l 961 1017 l 961 643 l 1247 643 l 1247 585 l 901 585 l 901 1075 l 1247 1075 m 343 1149 l 406 1133 q 314 899 367 1014 q 199 683 261 783 q 69 501 138 582 q 59 522 65 510 q 45 545 53 533 q 29 564 38 557 q 151 730 93 636 q 259 931 210 824 q 343 1149 308 1039 m 229 832 l 292 894 l 293 892 l 293 -104 l 229 -104 l 229 832 z "},"候":{"ha":1389,"x_min":56,"x_max":1336,"o":"m 726 749 l 789 735 q 709 536 758 631 q 601 375 660 442 q 585 387 596 381 q 565 400 575 393 q 546 411 554 407 q 652 563 606 475 q 726 749 699 651 m 685 603 l 1268 603 l 1268 542 l 685 542 l 685 603 m 546 331 l 1319 331 l 1319 269 l 546 269 l 546 331 m 543 825 l 1321 825 l 1321 765 l 543 765 l 543 825 m 892 575 l 958 575 l 958 375 q 946 256 958 319 q 893 128 933 192 q 772 3 853 64 q 557 -107 692 -57 q 538 -79 550 -94 q 514 -56 525 -64 q 722 43 646 -11 q 834 156 797 97 q 881 270 871 214 q 892 376 892 326 l 892 575 m 415 839 l 478 839 l 478 164 l 415 164 l 415 839 m 339 1149 l 401 1133 q 318 899 365 1014 q 215 683 271 785 q 97 501 160 581 q 86 521 93 508 q 71 544 79 533 q 56 564 63 556 q 167 731 114 636 q 263 932 219 825 q 339 1149 307 1039 m 215 788 l 278 850 l 279 847 l 279 -106 l 215 -106 l 215 788 m 629 1086 l 1133 1086 l 1133 1026 l 629 1026 l 629 1086 m 1111 1086 l 1119 1086 l 1132 1092 l 1178 1085 q 1158 939 1169 1017 q 1133 797 1146 861 l 1068 803 q 1085 898 1076 847 q 1100 996 1093 949 q 1111 1076 1107 1043 l 1111 1086 m 974 203 l 1024 238 q 1135 138 1076 192 q 1248 33 1194 85 q 1336 -56 1301 -18 l 1285 -96 q 1198 -6 1250 -58 q 1087 101 1146 46 q 974 203 1028 157 z "},"值":{"ha":1389,"x_min":53,"x_max":1324,"o":"m 453 1007 l 1275 1007 l 1275 946 l 453 946 l 453 1007 m 394 7 l 1324 7 l 1324 -54 l 394 -54 l 394 7 m 535 796 l 1188 796 l 1188 -19 l 1125 -19 l 1125 738 l 599 738 l 599 -19 l 535 -19 l 535 796 m 574 596 l 1144 596 l 1144 540 l 574 540 l 574 596 m 572 397 l 1157 397 l 1157 343 l 572 343 l 572 397 m 575 199 l 1147 199 l 1147 143 l 575 143 l 575 199 m 843 1160 l 915 1153 q 890 1020 904 1090 q 860 885 875 950 q 829 772 844 819 l 769 781 q 797 897 783 829 q 824 1035 811 965 q 843 1160 836 1104 m 389 1158 l 451 1140 q 353 910 408 1022 q 232 700 297 799 q 96 524 167 601 q 84 542 92 531 q 69 566 76 554 q 53 586 61 578 q 183 747 121 656 q 298 944 244 839 q 389 1158 351 1050 m 238 808 l 299 871 l 301 869 l 301 -104 l 238 -104 l 238 808 z "},"做":{"ha":1389,"x_min":29,"x_max":1346,"o":"m 585 1144 l 650 1144 l 650 497 l 585 497 l 585 1144 m 372 876 l 853 876 l 853 814 l 372 814 l 372 876 m 419 528 l 481 528 l 481 -36 l 419 -36 l 419 528 m 453 528 l 815 528 l 815 50 l 453 50 l 453 113 l 753 113 l 753 467 l 453 467 l 453 528 m 972 1160 l 1035 1149 q 988 915 1015 1029 q 923 701 960 801 q 838 525 886 601 q 824 539 833 531 q 805 556 814 547 q 788 569 796 565 q 869 737 835 642 q 930 940 904 832 q 972 1160 956 1049 m 949 882 l 1326 882 l 1326 821 l 931 821 l 949 882 m 1203 858 l 1267 853 q 1186 435 1240 617 q 1036 120 1132 254 q 788 -108 940 -14 q 775 -93 783 -103 q 758 -75 767 -83 q 740 -60 749 -67 q 986 155 893 26 q 1129 458 1079 283 q 1203 858 1179 633 m 953 838 q 987 592 964 719 q 1053 342 1010 464 q 1167 118 1096 221 q 1346 -53 1239 15 q 1332 -68 1340 -58 q 1315 -87 1324 -78 q 1301 -106 1307 -97 q 1119 76 1192 -31 q 1003 305 1047 182 q 938 554 960 428 q 903 797 915 681 l 953 838 m 343 1149 l 406 1133 q 314 900 367 1014 q 199 685 261 786 q 71 507 138 585 q 60 525 67 514 q 45 549 53 536 q 29 568 38 561 q 151 734 93 640 q 259 934 210 828 q 343 1149 308 1040 m 229 832 l 290 894 l 293 892 l 293 -104 l 229 -104 l 229 832 z "},"備":{"ha":1389,"x_min":58,"x_max":1300,"o":"m 343 1160 l 406 1143 q 322 910 369 1025 q 217 694 274 796 q 99 511 161 592 q 88 531 94 518 q 73 555 81 543 q 58 575 65 567 q 169 741 117 647 q 267 942 222 835 q 343 1160 311 1049 m 229 822 l 293 885 l 294 882 l 294 -100 l 229 -100 l 229 822 m 407 774 l 1300 774 l 1300 710 l 407 710 l 407 774 m 560 374 l 1200 374 l 1200 317 l 560 317 l 560 374 m 549 168 l 1200 168 l 1200 111 l 549 111 l 549 168 m 444 1000 l 1264 1000 l 1264 935 l 444 935 l 444 1000 m 844 557 l 908 557 l 908 -68 l 844 -68 l 844 557 m 663 1151 l 728 1151 l 728 739 l 663 739 l 663 1151 m 997 1151 l 1064 1151 l 1064 739 l 997 739 l 997 1151 m 1165 578 l 1229 578 l 1229 -22 q 1223 -63 1229 -49 q 1199 -86 1217 -78 q 1149 -95 1179 -94 q 1072 -96 1118 -96 q 1065 -68 1071 -85 q 1051 -39 1058 -51 q 1113 -40 1086 -40 q 1149 -39 1139 -40 q 1165 -21 1165 -39 l 1165 578 m 661 751 l 724 732 q 569 548 665 632 q 372 406 472 464 q 361 423 369 413 q 344 443 353 433 q 328 460 336 453 q 517 585 426 510 q 661 751 608 660 m 544 578 l 1197 578 l 1197 518 l 544 518 l 544 578 m 518 578 l 583 578 l 583 313 q 576 175 583 249 q 545 28 568 101 q 478 -106 522 -44 q 465 -90 474 -99 q 445 -74 456 -82 q 426 -62 435 -67 q 487 59 468 -6 q 512 190 506 124 q 518 314 518 256 l 518 578 z "},"傳":{"ha":1389,"x_min":28,"x_max":1331,"o":"m 558 688 l 558 582 l 1183 582 l 1183 688 l 558 688 m 558 842 l 558 738 l 1183 738 l 1183 842 l 558 842 m 494 893 l 1247 893 l 1247 531 l 494 531 l 494 893 m 421 422 q 648 424 519 422 q 922 430 776 426 q 1214 438 1068 433 l 1210 383 q 928 375 1069 379 q 658 368 786 371 q 428 363 531 365 l 421 422 m 1046 514 l 1093 543 q 1181 483 1136 517 q 1266 415 1226 449 q 1331 353 1306 381 l 1279 317 q 1218 379 1257 344 q 1134 449 1179 414 q 1046 514 1089 485 m 833 1149 l 899 1149 l 899 404 l 833 400 l 833 1149 m 394 271 l 1328 271 l 1328 213 l 394 213 l 394 271 m 1054 400 l 1118 400 l 1118 -18 q 1109 -69 1118 -53 q 1072 -93 1100 -86 q 992 -102 1044 -101 q 857 -103 940 -103 q 848 -74 856 -90 q 833 -43 840 -57 q 921 -45 882 -44 q 987 -45 960 -46 q 1026 -43 1014 -44 q 1049 -36 1044 -42 q 1054 -18 1054 -31 l 1054 400 m 558 161 l 608 194 q 710 103 658 156 q 790 13 763 51 l 739 -28 q 660 66 711 13 q 558 161 610 119 m 438 1044 l 1311 1044 l 1311 988 l 438 988 l 438 1044 m 389 1154 l 453 1135 q 346 906 407 1018 q 215 694 285 793 q 69 519 144 596 q 58 538 65 526 q 43 563 51 550 q 28 581 35 575 q 167 743 100 651 q 291 940 233 835 q 389 1154 349 1046 m 239 811 l 301 875 l 303 874 l 303 -100 l 239 -100 l 239 811 z "},"價":{"ha":1389,"x_min":29,"x_max":1333,"o":"m 422 1083 l 1311 1083 l 1311 1028 l 422 1028 l 422 1083 m 521 879 l 521 722 l 1206 722 l 1206 879 l 521 879 m 458 932 l 1269 932 l 1269 669 l 458 669 l 458 932 m 706 1067 l 765 1067 l 765 703 l 706 703 l 706 1067 m 956 1067 l 1015 1067 l 1015 703 l 956 703 l 956 1067 m 557 396 l 557 299 l 1186 299 l 1186 396 l 557 396 m 557 247 l 557 150 l 1186 150 l 1186 247 l 557 247 m 557 542 l 557 447 l 1186 447 l 1186 542 l 557 542 m 493 593 l 1251 593 l 1251 99 l 493 99 l 493 593 m 954 35 l 1000 74 q 1122 29 1060 53 q 1238 -18 1183 6 q 1333 -65 1293 -42 l 1275 -107 q 1134 -36 1221 -74 q 954 35 1047 1 m 713 75 l 764 40 q 611 -42 704 -4 q 425 -106 518 -81 q 405 -82 417 -94 q 383 -60 393 -69 q 507 -22 444 -44 q 624 26 569 0 q 713 75 678 51 m 343 1149 l 406 1133 q 314 899 367 1014 q 199 683 261 783 q 69 501 138 582 q 59 522 65 510 q 45 545 53 533 q 29 564 38 557 q 151 730 93 636 q 259 931 210 824 q 343 1149 308 1039 m 229 832 l 292 894 l 293 892 l 293 -104 l 229 -104 l 229 832 z "},"元":{"ha":1389,"x_min":81,"x_max":1321,"o":"m 828 611 l 894 611 l 894 43 q 909 -2 894 8 q 968 -12 924 -12 q 1006 -12 978 -12 q 1069 -12 1035 -12 q 1135 -12 1104 -12 q 1181 -12 1165 -12 q 1227 6 1211 -12 q 1249 81 1243 25 q 1257 246 1256 136 q 1278 233 1267 240 q 1301 222 1289 226 q 1321 214 1313 218 q 1306 36 1318 100 q 1267 -53 1294 -28 q 1183 -78 1239 -78 q 1142 -78 1174 -78 q 1073 -78 1111 -78 q 1003 -78 1035 -78 q 964 -78 972 -78 q 881 -67 911 -78 q 840 -31 851 -57 q 828 43 828 -6 l 828 611 m 88 649 l 1303 649 l 1303 582 l 88 582 l 88 649 m 207 1044 l 1190 1044 l 1190 979 l 207 979 l 207 1044 m 465 599 l 536 599 q 506 375 526 481 q 441 180 485 269 q 321 19 397 90 q 124 -100 244 -53 q 105 -74 118 -89 q 81 -50 92 -60 q 267 60 196 -6 q 380 210 339 126 q 440 393 421 294 q 465 599 458 492 z "},"先":{"ha":1389,"x_min":72,"x_max":1322,"o":"m 843 504 l 910 504 l 910 32 q 922 -6 910 3 q 979 -15 935 -15 q 1018 -15 990 -15 q 1081 -15 1046 -15 q 1145 -15 1115 -15 q 1189 -15 1175 -15 q 1231 0 1217 -15 q 1251 63 1246 15 q 1260 204 1257 110 q 1278 192 1268 199 q 1301 183 1289 186 q 1322 175 1314 179 q 1307 18 1318 74 q 1269 -59 1296 -37 q 1192 -81 1243 -81 q 1153 -81 1183 -81 q 1084 -81 1122 -81 q 1015 -81 1046 -81 q 975 -81 985 -81 q 895 -71 924 -81 q 855 -37 867 -61 q 843 33 843 -12 l 843 504 m 90 547 l 1300 547 l 1300 482 l 90 482 l 90 547 m 318 925 l 1206 925 l 1206 860 l 318 860 l 318 925 m 474 499 l 543 499 q 510 294 533 389 q 440 122 486 199 q 315 -12 393 46 q 117 -111 238 -71 q 105 -92 113 -101 q 90 -74 97 -83 q 72 -57 82 -64 q 263 32 189 -22 q 380 157 338 86 q 443 313 422 228 q 474 499 464 399 m 364 1119 l 432 1104 q 379 942 411 1026 q 306 777 347 857 q 213 635 264 697 q 196 647 206 640 q 176 659 186 653 q 157 669 167 665 q 247 806 207 729 q 316 965 286 883 q 364 1119 346 1046 m 660 1158 l 728 1158 l 728 525 l 660 525 l 660 1158 z "},"光":{"ha":1389,"x_min":57,"x_max":1326,"o":"m 833 572 l 900 572 l 900 17 q 913 -26 900 -15 q 971 -37 926 -37 q 1012 -37 983 -37 q 1076 -37 1040 -37 q 1142 -37 1111 -37 q 1186 -37 1172 -37 q 1232 -20 1217 -37 q 1253 49 1247 -3 q 1261 203 1258 101 q 1281 192 1269 197 q 1303 181 1292 186 q 1326 174 1315 176 q 1310 5 1321 65 q 1271 -78 1299 -56 q 1190 -101 1243 -101 q 1149 -101 1182 -101 q 1078 -101 1117 -101 q 1009 -101 1040 -101 q 968 -101 978 -101 q 887 -92 917 -101 q 845 -58 857 -83 q 833 15 833 -32 l 833 572 m 472 565 l 542 565 q 510 341 532 444 q 441 153 488 238 q 312 4 394 68 q 100 -101 229 -60 q 89 -84 96 -94 q 73 -63 82 -74 q 57 -47 64 -53 q 259 51 181 -8 q 381 188 338 110 q 443 361 424 267 q 472 565 463 456 m 206 1064 l 267 1086 q 340 969 304 1032 q 405 847 376 907 q 446 739 433 786 l 382 715 q 342 822 369 761 q 279 946 314 882 q 206 1064 244 1010 m 1126 1104 l 1193 1078 q 1131 952 1165 1018 q 1063 824 1097 886 q 997 717 1028 763 l 942 740 q 1007 852 972 789 q 1074 983 1042 915 q 1126 1104 1106 1050 m 81 615 l 1313 615 l 1313 551 l 81 551 l 81 615 m 657 1160 l 725 1160 l 725 589 l 657 589 l 657 1160 z "},"克":{"ha":1389,"x_min":72,"x_max":1325,"o":"m 325 700 l 325 435 l 1067 435 l 1067 700 l 325 700 m 258 763 l 1135 763 l 1135 372 l 258 372 l 258 763 m 100 1008 l 1294 1008 l 1294 944 l 100 944 l 100 1008 m 657 1160 l 725 1160 l 725 747 l 657 747 l 657 1160 m 801 413 l 869 413 l 869 21 q 883 -16 869 -7 q 946 -25 897 -25 q 990 -25 958 -25 q 1060 -25 1021 -25 q 1134 -25 1100 -25 q 1185 -25 1168 -25 q 1231 -10 1215 -25 q 1252 50 1246 4 q 1261 189 1258 96 q 1281 177 1269 183 q 1304 167 1292 171 q 1325 160 1317 163 q 1310 4 1322 58 q 1270 -70 1297 -50 q 1189 -90 1243 -90 q 1156 -90 1181 -90 q 1099 -90 1132 -90 q 1033 -90 1065 -90 q 976 -90 1000 -90 q 943 -90 951 -90 q 856 -82 888 -90 q 813 -49 825 -74 q 801 21 801 -25 l 801 413 m 497 392 l 568 392 q 529 217 556 296 q 452 76 503 138 q 319 -30 401 15 q 114 -106 238 -75 q 104 -85 111 -96 q 89 -64 97 -75 q 72 -46 81 -53 q 268 20 190 -19 q 392 114 346 60 q 463 238 439 168 q 497 392 486 307 z "},"兒":{"ha":1389,"x_min":72,"x_max":1304,"o":"m 592 1147 l 651 1100 q 464 1037 571 1067 q 257 988 357 1007 q 247 1011 254 997 q 233 1036 240 1025 q 365 1069 297 1050 q 492 1108 432 1088 q 592 1147 551 1128 m 269 793 l 624 793 l 624 729 l 269 729 l 269 793 m 779 792 l 1131 792 l 1131 729 l 779 729 l 779 792 m 519 463 l 594 463 q 556 258 582 349 q 478 99 531 168 q 338 -21 425 29 q 113 -103 250 -71 q 96 -76 108 -92 q 72 -50 83 -60 q 286 24 203 -21 q 417 131 369 68 q 488 277 465 194 q 519 463 511 360 m 786 461 l 854 461 l 854 22 q 869 -18 854 -8 q 933 -28 883 -28 q 976 -28 944 -28 q 1044 -28 1007 -28 q 1115 -28 1082 -28 q 1163 -28 1147 -28 q 1210 -12 1194 -28 q 1233 53 1226 4 q 1243 201 1240 103 q 1262 191 1251 196 q 1284 183 1272 186 q 1304 178 1296 179 q 1290 17 1301 74 q 1250 -62 1278 -40 q 1168 -83 1222 -83 q 1124 -83 1160 -83 q 1047 -83 1089 -83 q 972 -83 1006 -83 q 931 -83 939 -83 q 842 -74 874 -83 q 799 -43 811 -65 q 786 22 786 -21 l 786 461 m 232 504 l 1103 504 l 1103 996 l 754 996 l 754 1060 l 1169 1060 l 1169 440 l 232 440 l 232 504 m 232 1036 l 301 1036 l 301 463 l 232 463 l 232 1036 z "},"入":{"ha":1389,"x_min":57,"x_max":1336,"o":"m 315 1071 l 708 1071 l 708 1003 l 315 1003 l 315 1071 m 672 1071 l 740 1071 q 745 929 740 1011 q 768 751 750 847 q 824 551 786 654 q 928 342 863 447 q 1093 139 993 238 q 1336 -44 1193 40 q 1317 -60 1328 -50 q 1297 -80 1307 -69 q 1281 -99 1286 -90 q 1037 91 1138 -11 q 869 303 936 193 q 762 523 801 413 q 703 735 722 633 q 678 922 685 836 q 672 1071 672 1008 m 644 817 l 719 803 q 588 419 668 589 q 393 120 508 249 q 118 -100 278 -8 q 102 -83 114 -93 q 79 -63 90 -74 q 57 -47 68 -53 q 436 296 296 81 q 644 817 576 511 z "},"內":{"ha":1389,"x_min":163,"x_max":1235,"o":"m 163 847 l 1199 847 l 1199 781 l 229 781 l 229 -103 l 163 -103 l 163 847 m 1168 847 l 1235 847 l 1235 -1 q 1224 -60 1235 -40 q 1183 -90 1213 -81 q 1096 -100 1154 -99 q 951 -101 1038 -101 q 946 -80 950 -92 q 936 -55 942 -68 q 925 -32 931 -42 q 1018 -33 975 -33 q 1092 -33 1061 -33 q 1136 -32 1124 -32 q 1162 -24 1156 -31 q 1168 -1 1168 -18 l 1168 847 m 401 1093 l 690 1093 l 690 1032 l 401 1032 l 401 1093 m 640 1093 l 719 1093 q 753 803 726 933 q 828 571 779 672 q 950 398 876 469 q 1129 285 1024 326 q 1113 267 1122 278 q 1096 247 1104 257 q 1081 226 1088 236 q 899 350 975 275 q 774 528 824 425 q 697 765 724 632 q 661 1056 669 897 l 640 1056 l 640 1093 m 653 828 l 718 817 q 586 456 683 604 q 317 221 489 308 q 304 238 313 229 q 286 257 296 247 q 268 271 276 267 q 529 488 435 354 q 653 828 624 622 z "},"兩":{"ha":1389,"x_min":101,"x_max":1297,"o":"m 338 610 l 469 610 l 469 556 l 338 556 l 338 610 m 654 1042 l 721 1042 l 721 -96 l 654 -96 l 654 1042 m 153 800 l 1213 800 l 1213 736 l 218 736 l 218 -101 l 153 -101 l 153 800 m 1179 800 l 1244 800 l 1244 -8 q 1235 -61 1244 -43 q 1199 -89 1226 -79 q 1120 -99 1171 -97 q 996 -101 1069 -101 q 985 -68 993 -86 q 971 -35 978 -50 q 1085 -37 1035 -36 q 1151 -36 1135 -37 q 1174 -30 1168 -36 q 1179 -8 1179 -24 l 1179 800 m 444 610 l 492 610 q 500 459 492 540 q 539 295 508 378 q 633 139 569 213 q 611 123 625 133 q 590 104 597 113 q 494 269 525 179 q 453 448 463 358 q 444 610 444 538 m 435 567 l 489 560 q 426 297 472 413 q 300 103 379 182 q 279 120 293 110 q 257 138 265 131 q 376 319 335 210 q 435 567 418 429 m 929 574 l 985 568 q 920 306 965 422 q 797 111 875 190 q 776 129 790 118 q 751 146 763 140 q 872 328 829 219 q 929 574 914 438 m 826 610 l 967 610 l 967 556 l 826 556 l 826 610 m 940 610 l 990 610 q 999 458 990 540 q 1041 294 1008 376 q 1146 140 1074 211 q 1124 124 1138 135 q 1103 106 1111 114 q 1015 226 1047 163 q 967 358 983 290 q 946 490 951 425 q 940 610 940 554 m 101 1072 l 1297 1072 l 1297 1006 l 101 1006 l 101 1072 z "},"八":{"ha":1389,"x_min":63,"x_max":1331,"o":"m 663 1058 l 843 1058 l 843 992 l 663 992 l 663 1058 m 447 1035 l 519 1028 q 492 776 508 903 q 447 526 475 650 q 375 286 418 401 q 269 70 332 171 q 117 -110 206 -31 q 101 -94 110 -103 q 81 -77 92 -86 q 63 -64 71 -68 q 212 110 150 13 q 315 319 274 207 q 383 552 357 432 q 423 794 408 672 q 447 1035 438 917 m 788 1058 l 869 1058 q 928 698 892 869 q 1019 381 964 526 q 1151 123 1075 236 q 1331 -64 1228 10 q 1309 -76 1321 -68 q 1286 -93 1297 -85 q 1267 -110 1275 -101 q 1088 83 1164 -32 q 958 342 1011 197 q 867 658 904 488 q 808 1018 831 828 l 788 1018 l 788 1058 z "},"公":{"ha":1389,"x_min":64,"x_max":1333,"o":"m 861 383 l 924 411 q 1041 253 981 338 q 1154 88 1101 168 q 1240 -51 1207 8 l 1175 -87 q 1090 57 1142 -25 q 978 225 1038 139 q 861 383 918 311 m 458 1114 l 528 1092 q 415 869 479 978 q 277 669 351 761 q 122 507 203 578 q 106 523 117 514 q 84 542 96 532 q 64 557 72 551 q 218 712 144 624 q 353 902 292 800 q 458 1114 414 1004 m 233 -24 q 227 -3 232 -17 q 217 25 222 11 q 207 49 213 39 q 263 89 232 54 q 333 175 293 124 q 396 256 354 200 q 489 391 438 313 q 594 559 540 469 q 693 739 647 649 l 763 708 q 616 457 693 582 q 458 220 539 332 q 294 19 378 108 l 294 17 q 285 13 294 17 q 265 4 276 10 q 243 -8 253 -1 q 233 -24 233 -15 m 233 -24 l 232 32 l 289 63 l 1121 107 q 1128 74 1124 92 q 1135 44 1132 56 q 796 24 938 32 q 558 9 654 15 q 403 -1 463 3 q 310 -9 344 -6 q 260 -16 276 -12 q 233 -24 244 -19 m 874 1124 l 956 1124 q 1049 897 992 1006 q 1181 701 1107 788 q 1333 560 1254 614 q 1315 544 1325 554 q 1296 523 1306 533 q 1279 503 1286 513 q 1126 653 1200 563 q 994 853 1053 743 q 899 1081 936 963 l 874 1081 l 874 1124 m 624 1124 l 938 1124 l 938 1056 l 624 1056 l 624 1124 z "},"六":{"ha":1389,"x_min":69,"x_max":1319,"o":"m 88 779 l 1306 779 l 1306 713 l 88 713 l 88 779 m 443 526 l 515 504 q 401 286 464 396 q 269 78 338 176 q 135 -96 201 -19 q 116 -81 128 -89 q 92 -63 104 -72 q 69 -49 79 -54 q 206 119 138 25 q 335 317 274 213 q 443 526 396 422 m 865 510 l 926 539 q 1034 389 979 468 q 1142 230 1089 310 q 1242 78 1196 150 q 1319 -49 1288 7 l 1251 -87 q 1178 42 1222 -32 q 1081 196 1133 115 q 972 358 1028 276 q 865 510 917 439 m 582 1129 l 649 1150 q 699 1050 674 1104 q 747 946 724 996 q 783 860 769 896 l 714 831 q 679 919 700 868 q 633 1026 658 971 q 582 1129 607 1081 z "},"共":{"ha":1389,"x_min":69,"x_max":1325,"o":"m 407 1146 l 474 1146 l 474 379 l 407 379 l 407 1146 m 915 1146 l 983 1146 l 983 379 l 915 379 l 915 1146 m 69 417 l 1325 417 l 1325 351 l 69 351 l 69 417 m 132 850 l 1271 850 l 1271 785 l 132 785 l 132 850 m 831 219 l 885 256 q 1027 150 951 207 q 1171 38 1103 93 q 1283 -58 1239 -17 l 1225 -103 q 1115 -4 1181 -61 q 974 111 1049 53 q 831 219 900 169 m 478 256 l 546 229 q 431 107 497 168 q 291 -9 364 46 q 144 -106 218 -64 q 130 -89 139 -97 q 112 -72 121 -81 q 94 -57 103 -62 q 238 33 165 -18 q 373 142 310 85 q 478 256 436 200 z "},"其":{"ha":1389,"x_min":68,"x_max":1313,"o":"m 79 257 l 1311 257 l 1311 193 l 79 193 l 79 257 m 117 982 l 1278 982 l 1278 918 l 117 918 l 117 982 m 389 747 l 1006 747 l 1006 688 l 389 688 l 389 747 m 389 501 l 1006 501 l 1006 442 l 389 442 l 389 501 m 346 1158 l 413 1158 l 413 238 l 346 238 l 346 1158 m 978 1158 l 1044 1158 l 1044 238 l 978 238 l 978 1158 m 815 104 l 858 149 q 1026 85 943 119 q 1183 16 1108 50 q 1313 -49 1257 -18 l 1256 -96 q 1135 -31 1206 -65 q 982 38 1064 4 q 815 104 900 72 m 513 154 l 576 114 q 438 35 517 74 q 274 -39 358 -4 q 114 -99 189 -74 q 93 -72 107 -87 q 68 -47 79 -57 q 228 10 144 -24 q 388 81 313 43 q 513 154 464 119 z "},"再":{"ha":1389,"x_min":63,"x_max":1329,"o":"m 63 308 l 1329 308 l 1329 243 l 63 243 l 63 308 m 111 1069 l 1281 1069 l 1281 1004 l 111 1004 l 111 1069 m 271 578 l 1117 578 l 1117 515 l 271 515 l 271 578 m 1090 842 l 1156 842 l 1156 -6 q 1144 -64 1156 -44 q 1104 -92 1133 -83 q 1017 -102 1075 -100 q 868 -104 960 -104 q 858 -71 865 -90 q 843 -37 851 -51 q 938 -40 893 -39 q 1013 -40 982 -40 q 1056 -39 1044 -39 q 1083 -31 1075 -37 q 1090 -6 1090 -24 l 1090 842 m 231 842 l 1118 842 l 1118 778 l 297 778 l 297 -107 l 231 -107 l 231 842 m 656 1047 l 722 1047 l 722 282 l 656 282 l 656 1047 z "},"出":{"ha":1389,"x_min":161,"x_max":1232,"o":"m 658 1158 l 729 1158 l 729 22 l 658 22 l 658 1158 m 1161 468 l 1232 468 l 1232 -99 l 1161 -99 l 1161 468 m 218 1028 l 286 1028 l 286 631 l 1106 631 l 1106 1028 l 1176 1028 l 1176 565 l 218 565 l 218 1028 m 161 468 l 232 468 l 232 49 l 1197 49 l 1197 -18 l 161 -18 l 161 468 z "},"分":{"ha":1389,"x_min":63,"x_max":1339,"o":"m 254 624 l 1075 624 l 1075 560 l 254 560 l 254 624 m 1050 624 l 1119 624 q 1119 617 1119 624 q 1119 601 1119 610 q 1118 588 1119 593 q 1101 310 1110 424 q 1081 121 1092 196 q 1057 3 1071 46 q 1025 -57 1043 -39 q 985 -86 1007 -78 q 929 -96 963 -94 q 832 -97 894 -97 q 703 -90 769 -96 q 696 -56 701 -74 q 679 -22 690 -37 q 817 -31 754 -29 q 906 -33 881 -33 q 942 -30 928 -33 q 965 -15 956 -26 q 1001 69 986 4 q 1028 265 1017 135 q 1050 610 1040 396 l 1050 624 m 574 607 l 644 607 q 606 388 632 494 q 528 186 579 281 q 388 17 476 92 q 158 -108 299 -58 q 147 -90 154 -100 q 131 -70 139 -79 q 115 -54 122 -61 q 334 62 249 -8 q 467 219 419 132 q 538 406 515 307 q 574 607 561 506 m 432 1114 l 500 1099 q 404 876 461 979 q 276 689 347 774 q 119 540 204 604 q 104 557 115 547 q 82 576 93 567 q 63 589 71 585 q 285 813 190 678 q 432 1114 379 947 m 632 1133 l 928 1133 l 928 1069 l 632 1069 l 632 1133 m 864 1133 l 943 1133 q 1040 917 979 1021 q 1178 733 1101 814 q 1339 601 1256 651 q 1322 584 1332 594 q 1303 563 1313 574 q 1289 543 1294 551 q 1127 683 1204 599 q 988 873 1050 768 q 888 1092 926 978 l 864 1092 l 864 1133 z "},"切":{"ha":1389,"x_min":44,"x_max":1296,"o":"m 590 1025 l 1264 1025 l 1264 961 l 590 961 l 590 1025 m 1229 1025 l 1296 1025 q 1296 1017 1296 1025 q 1296 999 1296 1008 q 1296 983 1296 989 q 1280 529 1288 714 q 1261 229 1272 344 q 1236 51 1250 114 q 1201 -37 1222 -11 q 1158 -74 1181 -64 q 1103 -86 1136 -83 q 1019 -87 1072 -87 q 908 -82 965 -86 q 903 -46 907 -65 q 888 -12 899 -26 q 1007 -19 954 -18 q 1083 -21 1060 -21 q 1115 -17 1103 -21 q 1139 1 1128 -12 q 1170 83 1157 22 q 1194 261 1183 144 q 1214 561 1206 378 q 1229 1007 1222 744 l 1229 1025 m 44 713 l 586 833 l 597 774 l 57 651 l 44 713 m 833 999 l 900 999 q 890 737 897 867 q 860 485 882 607 q 795 254 839 363 q 676 56 751 146 q 486 -97 601 -33 q 463 -69 478 -85 q 435 -47 447 -54 q 619 98 547 14 q 735 287 692 182 q 798 508 778 392 q 824 750 818 625 q 833 999 831 875 m 218 117 l 211 182 l 246 217 l 599 367 q 606 335 601 353 q 614 307 611 318 q 414 218 489 251 q 300 165 339 185 q 244 135 261 146 q 218 117 226 125 m 218 117 q 209 137 215 125 q 196 160 203 149 q 182 179 189 171 q 217 208 199 188 q 236 269 236 229 l 236 1106 l 301 1106 l 301 194 q 293 190 301 194 q 272 175 285 185 q 247 156 260 165 q 226 135 235 146 q 218 117 218 124 z "},"列":{"ha":1389,"x_min":38,"x_max":1257,"o":"m 843 999 l 908 999 l 908 242 l 843 242 l 843 999 m 1189 1133 l 1257 1133 l 1257 -4 q 1244 -65 1257 -46 q 1203 -93 1231 -85 q 1119 -103 1174 -101 q 968 -106 1064 -106 q 958 -73 965 -92 q 942 -40 951 -54 q 1076 -42 1018 -42 q 1153 -40 1135 -42 q 1181 -31 1172 -39 q 1189 -4 1189 -24 l 1189 1133 m 289 782 l 678 782 l 678 718 l 289 718 l 289 782 m 88 1082 l 779 1082 l 779 1018 l 88 1018 l 88 1082 m 182 532 l 214 582 q 338 509 274 550 q 459 429 401 468 q 553 358 517 390 l 519 301 q 425 375 482 335 q 304 457 368 415 q 182 532 240 499 m 651 782 l 667 782 l 679 785 l 722 768 q 602 374 682 543 q 413 85 522 204 q 175 -107 303 -33 q 160 -89 169 -99 q 141 -70 150 -79 q 124 -56 132 -61 q 358 126 251 14 q 540 397 464 238 q 651 765 617 557 l 651 782 m 351 1060 l 419 1047 q 348 803 393 928 q 238 567 303 678 q 85 371 174 456 q 70 386 79 378 q 53 403 61 394 q 38 417 44 411 q 184 604 122 497 q 288 830 246 711 q 351 1060 331 949 z "},"別":{"ha":1389,"x_min":54,"x_max":1256,"o":"m 842 993 l 906 993 l 906 233 l 842 233 l 842 993 m 1189 1133 l 1256 1133 l 1256 -1 q 1242 -64 1256 -44 q 1201 -92 1229 -83 q 1117 -103 1172 -100 q 965 -104 1061 -106 q 959 -84 964 -96 q 949 -60 954 -72 q 938 -37 944 -47 q 1075 -40 1017 -39 q 1153 -39 1133 -40 q 1181 -30 1172 -37 q 1189 -3 1189 -22 l 1189 1133 m 313 486 l 647 486 l 647 425 l 313 425 l 313 486 m 621 486 l 685 486 q 684 481 685 486 q 683 467 683 475 q 683 453 683 458 q 667 169 676 275 q 647 8 658 63 q 615 -68 635 -46 q 581 -92 600 -86 q 533 -100 563 -97 q 460 -101 508 -101 q 360 -96 413 -100 q 354 -66 358 -83 q 340 -35 350 -49 q 445 -42 397 -40 q 511 -43 493 -43 q 542 -40 531 -43 q 561 -28 553 -37 q 585 40 575 -12 q 604 197 596 92 q 621 474 613 301 l 621 486 m 204 1033 l 204 721 l 613 721 l 613 1033 l 204 1033 m 142 1096 l 678 1096 l 678 657 l 142 657 l 142 1096 m 301 688 l 368 688 q 349 464 363 578 q 307 244 335 350 q 231 47 279 138 q 104 -107 182 -43 q 81 -83 96 -96 q 54 -65 65 -71 q 176 81 129 -6 q 247 269 222 168 q 284 478 272 371 q 301 688 296 586 z "},"利":{"ha":1389,"x_min":43,"x_max":1256,"o":"m 74 738 l 732 738 l 732 674 l 74 674 l 74 738 m 840 996 l 906 996 l 906 236 l 840 236 l 840 996 m 381 1054 l 447 1054 l 447 -100 l 381 -100 l 381 1054 m 1189 1133 l 1256 1133 l 1256 -3 q 1242 -65 1256 -46 q 1201 -93 1229 -85 q 1117 -103 1172 -101 q 965 -106 1061 -106 q 959 -84 964 -96 q 949 -60 954 -72 q 938 -39 944 -47 q 1075 -40 1017 -40 q 1153 -39 1133 -40 q 1181 -30 1172 -37 q 1189 -3 1189 -22 l 1189 1133 m 656 1150 l 708 1099 q 529 1043 633 1068 q 310 999 425 1018 q 90 965 196 979 q 81 993 88 978 q 68 1019 75 1008 q 228 1044 144 1031 q 390 1075 311 1058 q 538 1110 469 1092 q 656 1150 607 1128 m 376 710 l 428 689 q 363 526 401 610 q 278 363 324 442 q 182 215 232 283 q 83 101 132 147 q 72 120 79 110 q 57 142 64 131 q 43 161 50 153 q 138 268 90 206 q 231 404 186 331 q 314 556 276 478 q 376 710 351 635 m 440 564 q 499 516 460 549 q 583 444 538 483 q 666 371 628 404 q 722 322 704 338 l 682 268 q 624 324 661 289 q 544 400 588 360 q 463 474 501 440 q 400 526 424 508 l 440 564 z "},"到":{"ha":1389,"x_min":96,"x_max":1251,"o":"m 144 431 l 789 431 l 789 368 l 144 368 l 144 431 m 429 594 l 493 594 l 493 71 l 429 71 l 429 594 m 96 44 q 295 81 181 60 q 540 126 410 101 q 800 176 669 151 l 804 115 q 554 65 679 90 q 315 18 429 40 q 111 -22 201 -4 l 96 44 m 106 1063 l 814 1063 l 814 1000 l 106 1000 l 106 1063 m 547 897 l 597 926 q 680 824 638 879 q 758 718 722 769 q 817 628 794 667 l 764 592 q 707 684 743 631 q 629 794 671 738 q 547 897 588 850 m 906 1044 l 969 1044 l 969 204 l 906 204 l 906 1044 m 1186 1132 l 1251 1132 l 1251 33 q 1240 -26 1251 -7 q 1201 -56 1229 -46 q 1122 -66 1174 -64 q 996 -68 1069 -68 q 986 -33 994 -54 q 969 3 978 -11 q 1086 1 1033 1 q 1157 1 1139 0 q 1180 8 1174 3 q 1186 32 1186 14 l 1186 1132 m 167 624 q 160 643 164 631 q 153 668 157 656 q 143 689 149 681 q 175 710 158 693 q 211 753 192 726 q 253 816 224 769 q 317 924 283 863 q 378 1049 351 986 l 443 1021 q 374 890 411 954 q 296 767 336 825 q 215 663 256 710 l 215 661 q 208 658 215 661 q 191 649 201 656 q 174 636 181 643 q 167 624 167 629 m 167 624 l 165 674 l 208 699 l 701 746 q 716 719 707 733 q 733 693 725 704 q 488 667 586 678 q 331 650 390 657 q 238 638 271 643 q 190 630 206 633 q 167 624 174 626 z "},"制":{"ha":1389,"x_min":69,"x_max":1279,"o":"m 967 1025 l 1031 1025 l 1031 264 l 967 264 l 967 1025 m 1213 1150 l 1279 1150 l 1279 11 q 1267 -52 1279 -32 q 1226 -82 1254 -72 q 1144 -94 1199 -92 q 1014 -96 1090 -96 q 1004 -59 1011 -81 q 990 -21 997 -37 q 1110 -23 1056 -22 q 1185 -22 1165 -24 q 1206 -15 1200 -21 q 1213 8 1213 -10 l 1213 1150 m 422 1156 l 486 1156 l 486 -103 l 422 -103 l 422 1156 m 721 486 l 785 486 l 785 90 q 778 47 785 63 q 747 22 771 32 q 686 12 726 14 q 583 10 646 10 q 576 41 582 25 q 561 71 569 57 q 652 69 615 69 q 701 71 689 69 q 721 90 721 71 l 721 486 m 139 486 l 747 486 l 747 424 l 201 424 l 201 13 l 139 13 l 139 486 m 69 715 l 844 715 l 844 651 l 69 651 l 69 715 m 196 949 l 789 949 l 789 886 l 183 886 l 196 949 m 221 1122 l 286 1110 q 220 899 260 1001 q 135 726 181 797 q 117 735 128 731 q 95 744 107 739 q 74 751 83 750 q 160 922 124 824 q 221 1122 197 1021 z "},"則":{"ha":1389,"x_min":58,"x_max":1260,"o":"m 844 993 l 910 993 l 910 233 l 844 233 l 844 993 m 1192 1133 l 1260 1133 l 1260 -1 q 1246 -64 1260 -44 q 1204 -92 1232 -83 q 1121 -103 1176 -100 q 969 -104 1065 -106 q 963 -84 967 -96 q 953 -60 958 -72 q 942 -37 947 -47 q 1078 -40 1019 -39 q 1156 -39 1138 -40 q 1183 -30 1175 -37 q 1192 -3 1192 -22 l 1192 1133 m 244 185 l 311 167 q 224 17 278 89 q 115 -104 171 -56 q 99 -91 110 -99 q 78 -75 89 -83 q 58 -62 67 -67 q 165 51 115 -14 q 244 185 214 115 m 493 157 l 550 183 q 644 63 599 129 q 713 -53 689 -3 l 650 -85 q 611 -9 636 -51 q 556 77 586 33 q 493 157 525 121 m 206 779 l 206 572 l 599 572 l 599 779 l 206 779 m 206 513 l 206 304 l 599 304 l 599 513 l 206 513 m 206 1043 l 206 838 l 599 838 l 599 1043 l 206 1043 m 140 1106 l 665 1106 l 665 242 l 140 242 l 140 1106 z "},"前":{"ha":1389,"x_min":68,"x_max":1308,"o":"m 81 932 l 1308 932 l 1308 868 l 81 868 l 81 932 m 211 500 l 618 500 l 618 442 l 211 442 l 211 500 m 211 272 l 618 272 l 618 215 l 211 215 l 211 272 m 856 715 l 921 715 l 921 144 l 856 144 l 856 715 m 592 726 l 657 726 l 657 -10 q 648 -58 657 -42 q 613 -85 639 -75 q 542 -94 588 -93 q 421 -96 496 -96 q 411 -65 418 -83 q 396 -33 404 -47 q 503 -35 457 -35 q 565 -35 550 -36 q 586 -28 581 -33 q 592 -10 592 -22 l 592 726 m 1139 760 l 1206 760 l 1206 -4 q 1194 -59 1206 -42 q 1157 -86 1183 -76 q 1077 -96 1129 -94 q 943 -97 1025 -97 q 933 -65 940 -83 q 917 -32 925 -46 q 1040 -33 986 -33 q 1110 -32 1093 -33 q 1133 -26 1126 -32 q 1139 -6 1139 -21 l 1139 760 m 310 1138 l 369 1161 q 452 1057 411 1115 q 514 957 493 999 l 450 932 q 392 1032 432 974 q 310 1138 353 1090 m 1025 1167 l 1094 1142 q 1013 1009 1057 1078 q 928 889 968 940 l 869 913 q 926 992 897 947 q 981 1083 954 1036 q 1025 1167 1007 1129 m 176 726 l 239 726 l 239 389 q 231 224 239 314 q 197 49 222 135 q 121 -108 172 -37 q 107 -95 117 -103 q 87 -80 97 -87 q 68 -68 76 -72 q 141 77 118 -3 q 170 238 164 157 q 176 389 176 319 l 176 726 m 215 726 l 622 726 l 622 668 l 215 668 l 215 726 z "},"劃":{"ha":1389,"x_min":61,"x_max":1261,"o":"m 932 993 l 996 993 l 996 233 l 932 233 l 932 993 m 1196 1133 l 1261 1133 l 1261 -7 q 1249 -65 1261 -46 q 1213 -92 1238 -83 q 1140 -102 1188 -100 q 1007 -104 1092 -104 q 999 -73 1004 -92 q 983 -39 993 -54 q 1099 -40 1049 -40 q 1164 -39 1149 -40 q 1189 -33 1182 -39 q 1196 -8 1196 -26 l 1196 1133 m 65 925 l 871 925 l 871 872 l 65 872 l 65 925 m 142 656 l 799 656 l 799 604 l 142 604 l 142 656 m 74 526 l 861 526 l 861 472 l 74 472 l 74 526 m 439 379 l 499 379 l 499 115 l 439 115 l 439 379 m 431 1157 l 493 1157 l 493 493 l 431 493 l 431 1157 m 61 -10 q 289 2 158 -4 q 569 17 419 8 q 868 33 718 25 l 867 -24 q 574 -40 721 -32 q 297 -56 428 -49 q 68 -68 167 -64 l 61 -10 m 160 1060 l 776 1060 l 776 728 l 154 728 l 154 781 l 715 781 l 715 1008 l 160 1008 l 160 1060 m 225 226 l 225 144 l 711 144 l 711 226 l 225 226 m 225 351 l 225 274 l 711 274 l 711 351 l 225 351 m 167 400 l 771 400 l 771 97 l 167 97 l 167 400 z "},"力":{"ha":1389,"x_min":82,"x_max":1251,"o":"m 121 847 l 1207 847 l 1207 779 l 121 779 l 121 847 m 1183 847 l 1251 847 q 1251 839 1251 847 q 1251 822 1251 831 q 1250 807 1250 813 q 1224 434 1236 588 q 1198 182 1213 281 q 1166 28 1183 83 q 1125 -51 1149 -26 q 1079 -85 1103 -78 q 1018 -96 1056 -93 q 923 -96 985 -99 q 796 -90 861 -93 q 790 -56 794 -75 q 775 -21 785 -36 q 912 -30 849 -28 q 999 -32 975 -32 q 1038 -28 1022 -32 q 1064 -11 1053 -25 q 1101 63 1085 8 q 1132 215 1118 117 q 1158 464 1146 313 q 1183 832 1171 615 l 1183 847 m 592 1157 l 661 1157 l 661 942 q 653 741 661 847 q 617 524 644 635 q 532 304 589 414 q 378 90 475 194 q 132 -107 281 -15 q 118 -90 126 -99 q 100 -72 110 -81 q 82 -57 90 -62 q 319 133 225 33 q 468 337 413 232 q 550 547 524 442 q 584 751 576 651 q 592 942 592 851 l 592 1157 z "},"加":{"ha":1389,"x_min":46,"x_max":1260,"o":"m 835 83 l 1225 83 l 1225 19 l 835 19 l 835 83 m 78 888 l 625 888 l 625 822 l 78 822 l 78 888 m 804 978 l 1260 978 l 1260 -76 l 1193 -76 l 1193 913 l 869 913 l 869 -86 l 804 -86 l 804 978 m 606 888 l 671 888 q 671 880 671 888 q 671 863 671 872 q 671 847 671 853 q 663 451 667 611 q 652 190 658 290 q 635 36 646 89 q 607 -37 624 -17 q 573 -70 592 -61 q 525 -82 554 -79 q 452 -83 497 -83 q 361 -78 407 -82 q 356 -44 360 -62 q 342 -11 351 -25 q 440 -16 396 -15 q 503 -17 485 -17 q 529 -14 518 -18 q 549 3 540 -10 q 570 71 561 19 q 586 222 579 122 q 597 481 593 322 q 606 869 601 640 l 606 888 m 293 1142 l 358 1142 q 352 776 358 957 q 322 430 346 594 q 247 129 299 265 q 101 -106 194 -7 q 86 -90 96 -97 q 66 -75 76 -82 q 46 -64 56 -68 q 165 110 118 10 q 238 329 211 210 q 276 583 264 449 q 290 858 288 717 q 293 1142 293 1000 z "},"動":{"ha":1389,"x_min":64,"x_max":1294,"o":"m 106 247 l 729 247 l 729 189 l 106 189 l 106 247 m 64 921 l 757 921 l 757 863 l 64 863 l 64 921 m 381 1063 l 444 1063 l 444 26 l 381 26 l 381 1063 m 67 13 q 260 32 151 21 q 492 58 369 43 q 739 86 615 72 l 740 31 q 503 1 622 17 q 274 -27 383 -14 q 79 -50 165 -40 l 67 13 m 167 528 l 167 403 l 668 403 l 668 528 l 167 528 m 167 703 l 167 581 l 668 581 l 668 703 l 167 703 m 108 756 l 728 756 l 728 349 l 108 349 l 108 756 m 689 1142 l 728 1088 q 544 1056 650 1071 q 322 1033 438 1042 q 103 1018 207 1024 q 96 1046 101 1031 q 85 1072 90 1061 q 246 1083 163 1076 q 412 1099 329 1090 q 566 1118 494 1107 q 689 1142 638 1129 m 740 828 l 1254 828 l 1254 764 l 740 764 l 740 828 m 1231 828 l 1294 828 q 1294 820 1294 828 q 1294 803 1294 813 q 1294 789 1294 794 q 1281 413 1288 565 q 1266 166 1275 261 q 1245 19 1257 71 q 1215 -54 1233 -32 q 1178 -85 1199 -76 q 1129 -96 1158 -94 q 1057 -97 1103 -97 q 961 -93 1011 -96 q 955 -60 960 -79 q 942 -28 950 -42 q 1042 -33 996 -32 q 1108 -35 1089 -35 q 1138 -31 1126 -35 q 1158 -14 1149 -26 q 1183 53 1172 3 q 1201 198 1193 103 q 1217 444 1210 293 q 1231 811 1224 594 l 1231 828 m 929 1144 l 996 1144 q 991 836 994 988 q 972 547 988 685 q 919 287 956 408 q 819 65 883 165 q 653 -108 754 -35 q 638 -92 647 -101 q 618 -76 628 -83 q 599 -62 608 -68 q 761 101 699 6 q 858 315 824 197 q 908 566 893 432 q 926 847 922 700 q 929 1144 929 993 z "},"務":{"ha":1389,"x_min":61,"x_max":1339,"o":"m 83 1086 l 567 1086 l 567 1025 l 83 1025 l 83 1086 m 608 379 l 1232 379 l 1232 318 l 608 318 l 608 379 m 69 669 l 596 669 l 596 608 l 69 608 l 69 669 m 324 646 l 389 646 l 389 -17 q 381 -63 389 -47 q 350 -87 374 -79 q 290 -97 329 -96 q 189 -99 251 -99 q 181 -68 186 -86 q 167 -37 175 -50 q 253 -39 215 -39 q 303 -37 290 -39 q 319 -32 314 -36 q 324 -17 324 -28 l 324 646 m 1208 379 l 1278 379 q 1277 366 1278 379 q 1275 344 1276 353 q 1247 124 1261 208 q 1216 -6 1232 39 q 1179 -72 1200 -51 q 1146 -94 1164 -87 q 1100 -101 1128 -100 q 1035 -102 1076 -103 q 946 -99 993 -101 q 940 -66 944 -85 q 928 -33 935 -47 q 1018 -40 976 -39 q 1076 -42 1060 -42 q 1106 -39 1096 -42 q 1125 -28 1115 -36 q 1156 31 1142 -12 q 1183 156 1171 74 q 1208 367 1196 238 l 1208 379 m 893 525 l 961 525 q 927 327 950 422 q 860 151 904 232 q 742 5 817 69 q 553 -103 668 -60 q 535 -76 547 -92 q 511 -51 522 -60 q 690 49 619 -11 q 801 183 760 108 q 863 345 842 258 q 893 525 883 432 m 142 889 l 183 932 q 306 869 243 906 q 422 795 368 833 q 510 722 476 757 l 467 671 q 378 746 432 706 q 263 824 325 786 q 142 889 201 861 m 575 669 l 586 669 l 597 674 l 642 658 q 583 486 615 575 q 515 338 550 397 l 465 364 q 526 500 496 418 q 575 656 556 582 l 575 669 m 1132 983 l 1200 969 q 1072 756 1154 846 q 879 602 989 665 q 642 494 769 539 q 631 513 639 503 q 615 535 624 524 q 599 553 607 546 q 832 646 726 589 q 1015 787 938 703 q 1132 983 1092 871 m 824 1160 l 889 1142 q 814 1001 858 1069 q 719 875 769 933 q 614 772 668 817 q 599 786 608 778 q 578 802 589 794 q 557 814 567 810 q 711 967 640 876 q 824 1160 782 1057 m 774 957 q 909 776 824 858 q 1104 635 994 693 q 1339 546 1214 576 q 1324 529 1332 539 q 1308 509 1315 519 q 1294 488 1300 499 q 1058 588 1169 524 q 858 740 946 651 q 717 938 771 828 l 774 957 m 313 651 l 361 635 q 294 445 336 543 q 203 263 253 347 q 101 124 154 179 q 83 155 94 138 q 61 183 71 172 q 160 310 113 233 q 249 476 208 388 q 313 651 289 565 m 778 1010 l 1314 1010 l 1314 949 l 749 949 l 778 1010 m 551 1086 l 565 1086 l 578 1089 l 622 1060 q 547 966 592 1014 q 453 876 503 918 q 357 804 404 833 q 334 822 349 813 q 308 838 319 831 q 400 907 354 867 q 486 991 446 947 q 551 1072 526 1035 l 551 1086 z "},"勞":{"ha":1389,"x_min":75,"x_max":1285,"o":"m 128 649 l 1268 649 l 1268 424 l 1201 424 l 1201 586 l 193 586 l 193 424 l 128 424 l 128 649 m 615 1085 l 672 1058 q 608 975 642 1017 q 544 903 574 933 l 500 926 q 561 1004 528 958 q 615 1085 594 1050 m 356 879 l 403 915 q 485 858 440 889 q 569 797 529 826 q 635 743 608 767 l 588 700 q 522 756 561 725 q 439 819 482 786 q 356 879 396 853 m 194 386 l 1117 386 l 1117 322 l 194 322 l 194 386 m 386 1160 l 449 1160 q 428 974 444 1054 q 374 837 411 894 q 274 739 338 779 q 113 669 211 699 q 96 697 107 681 q 75 722 85 714 q 227 781 168 746 q 319 868 286 817 q 367 992 353 919 q 386 1160 382 1064 m 1097 386 l 1165 386 q 1165 380 1165 386 q 1164 365 1164 374 q 1163 351 1164 357 q 1142 128 1153 214 q 1116 -4 1131 42 q 1081 -71 1101 -50 q 1044 -94 1064 -87 q 992 -101 1024 -100 q 900 -101 960 -103 q 772 -96 840 -100 q 765 -62 771 -81 q 750 -32 760 -44 q 883 -40 821 -37 q 967 -42 944 -42 q 1003 -39 990 -42 q 1026 -28 1017 -36 q 1055 30 1043 -14 q 1078 158 1067 74 q 1097 375 1089 242 l 1097 386 m 624 547 l 693 547 q 668 344 686 435 q 613 181 650 253 q 514 55 576 110 q 355 -39 451 0 q 119 -104 258 -78 q 112 -83 118 -94 q 98 -61 106 -72 q 83 -43 90 -50 q 308 15 217 -19 q 458 99 400 50 q 550 213 517 147 q 600 361 583 278 q 624 547 617 444 m 1214 1085 l 1272 1057 q 1200 968 1239 1014 q 1128 890 1161 922 l 1083 917 q 1130 969 1106 939 q 1176 1030 1154 999 q 1214 1085 1199 1061 m 928 885 l 972 924 q 1083 852 1024 892 q 1195 774 1142 813 q 1285 708 1249 736 l 1240 663 q 1151 731 1204 692 q 1040 810 1099 769 q 928 885 981 851 m 958 1160 l 1021 1160 q 1001 980 1017 1057 q 950 846 985 903 q 856 749 915 789 q 703 682 796 710 q 687 709 699 693 q 664 733 675 725 q 808 792 751 757 q 895 878 864 828 q 940 997 926 928 q 958 1160 954 1067 m 119 1067 l 161 1097 q 223 1031 190 1068 q 275 967 256 993 l 233 928 q 182 995 214 956 q 119 1067 150 1035 m 715 1065 l 754 1099 q 813 1039 782 1072 q 861 983 844 1006 l 821 943 q 773 1003 803 968 q 715 1065 743 1038 z "},"包":{"ha":1389,"x_min":57,"x_max":1326,"o":"m 432 1167 l 499 1147 q 392 948 453 1043 q 260 772 331 853 q 114 629 190 690 q 98 644 108 636 q 76 662 88 653 q 57 676 65 671 q 204 813 135 735 q 333 981 274 890 q 432 1167 392 1071 m 367 968 l 1161 968 l 1161 903 l 335 903 l 367 968 m 1132 968 l 1200 968 q 1200 961 1200 968 q 1200 945 1200 954 q 1200 931 1200 936 q 1187 627 1193 751 q 1173 425 1181 503 q 1155 304 1165 347 q 1129 243 1144 261 q 1094 215 1114 224 q 1047 206 1075 207 q 977 204 1021 203 q 885 208 933 206 q 879 242 883 224 q 867 272 875 261 q 961 268 918 269 q 1022 268 1004 267 q 1049 270 1039 267 q 1069 283 1060 274 q 1091 340 1082 299 q 1108 457 1100 381 q 1121 656 1115 533 q 1132 953 1126 778 l 1132 968 m 276 733 l 343 733 l 343 90 q 356 31 343 51 q 408 1 369 10 q 522 -8 447 -8 q 584 -8 542 -8 q 684 -8 626 -8 q 805 -8 742 -8 q 928 -8 868 -8 q 1034 -8 988 -8 q 1106 -8 1081 -8 q 1197 7 1167 -8 q 1241 63 1228 22 q 1260 181 1254 104 q 1292 163 1274 171 q 1326 153 1311 156 q 1299 16 1318 65 q 1235 -53 1279 -33 q 1103 -72 1190 -72 q 1047 -72 1090 -72 q 944 -72 1004 -72 q 816 -72 883 -72 q 688 -72 749 -72 q 585 -72 628 -72 q 532 -72 543 -72 q 379 -59 435 -72 q 300 -11 324 -46 q 276 90 276 24 l 276 733 m 304 733 l 832 733 l 832 340 l 304 340 l 304 403 l 767 403 l 767 671 l 304 671 l 304 733 z "},"化":{"ha":1389,"x_min":46,"x_max":1304,"o":"m 693 1139 l 758 1139 l 758 106 q 766 51 758 71 q 794 24 774 32 q 851 17 814 17 q 903 17 865 17 q 987 17 940 17 q 1074 17 1033 17 q 1135 17 1115 17 q 1197 43 1176 17 q 1227 136 1218 69 q 1240 324 1236 203 q 1272 305 1254 314 q 1304 293 1290 296 q 1285 91 1299 165 q 1237 -15 1271 17 q 1133 -46 1203 -46 q 1097 -46 1125 -46 q 1030 -46 1068 -46 q 953 -46 992 -46 q 887 -46 915 -46 q 850 -46 858 -46 q 756 -33 790 -46 q 708 13 722 -21 q 693 108 693 47 l 693 1139 m 457 1154 l 519 1133 q 398 903 467 1015 q 250 694 329 792 q 88 519 171 596 q 77 539 85 526 q 61 563 69 551 q 46 582 53 575 q 203 742 126 651 q 344 939 279 833 q 457 1154 410 1044 m 310 838 l 374 899 l 375 897 l 375 -104 l 310 -104 l 310 838 m 729 743 l 1261 743 l 1261 679 l 729 679 l 729 743 z "},"北":{"ha":1389,"x_min":58,"x_max":1283,"o":"m 96 793 l 503 793 l 503 725 l 96 725 l 96 793 m 803 1132 l 871 1132 l 871 107 q 884 42 871 57 q 940 26 897 26 q 976 26 950 26 q 1033 26 1001 26 q 1091 26 1064 26 q 1131 26 1118 26 q 1183 55 1167 26 q 1206 159 1199 83 q 1217 372 1213 235 q 1238 358 1226 365 q 1261 346 1250 351 q 1283 338 1272 340 q 1267 113 1278 196 q 1226 -4 1256 31 q 1135 -39 1196 -39 q 1097 -39 1125 -39 q 1035 -39 1069 -39 q 972 -39 1000 -39 q 936 -39 944 -39 q 856 -27 885 -39 q 815 17 826 -15 q 803 108 803 49 l 803 1132 m 468 1132 l 536 1132 l 536 111 l 468 111 l 468 1132 m 58 -28 q 230 39 132 0 q 438 122 328 78 q 658 210 549 165 l 669 153 q 465 65 569 108 q 265 -19 361 21 q 90 -92 169 -60 l 58 -28 m 839 793 l 1276 793 l 1276 726 l 839 726 l 839 793 z "},"區":{"ha":1389,"x_min":83,"x_max":1317,"o":"m 568 863 l 568 676 l 940 676 l 940 863 l 568 863 m 504 918 l 1007 918 l 1007 622 l 504 622 l 504 918 m 407 451 l 407 215 l 638 215 l 638 451 l 407 451 m 346 508 l 699 508 l 699 160 l 346 160 l 346 508 m 874 451 l 874 215 l 1115 215 l 1115 451 l 874 451 m 813 508 l 1176 508 l 1176 160 l 813 160 l 813 508 m 83 1085 l 1247 1085 l 1247 1024 l 83 1024 l 83 1085 m 142 1076 l 207 1076 l 207 203 q 229 107 207 144 q 299 52 251 69 q 425 35 347 35 q 499 35 449 35 q 616 35 550 35 q 753 35 682 35 q 892 35 825 35 q 1011 35 960 35 q 1086 35 1063 35 q 1162 36 1121 35 q 1242 40 1203 38 q 1303 47 1281 43 q 1308 24 1306 38 q 1313 -1 1310 11 q 1317 -19 1315 -12 q 1268 -26 1303 -24 q 1187 -28 1233 -28 q 1088 -29 1140 -29 q 1007 -29 1061 -29 q 883 -29 953 -29 q 739 -29 813 -29 q 599 -29 665 -29 q 489 -29 533 -29 q 433 -29 444 -29 q 270 -6 335 -29 q 174 69 206 17 q 142 207 142 122 l 142 1076 z "},"十":{"ha":1389,"x_min":82,"x_max":1317,"o":"m 82 628 l 1317 628 l 1317 561 l 82 561 l 82 628 m 661 1157 l 732 1157 l 732 -103 l 661 -103 l 661 1157 z "},"千":{"ha":1389,"x_min":78,"x_max":1313,"o":"m 78 607 l 1313 607 l 1313 542 l 78 542 l 78 607 m 657 997 l 726 997 l 726 -104 l 657 -104 l 657 997 m 1118 1136 l 1171 1081 q 960 1027 1079 1051 q 708 982 842 1003 q 438 944 575 961 q 171 915 300 928 q 167 934 171 924 q 160 955 164 944 q 153 974 157 965 q 415 1004 279 986 q 681 1043 551 1022 q 924 1087 811 1064 q 1118 1136 1038 1110 z "},"半":{"ha":1389,"x_min":79,"x_max":1313,"o":"m 219 1093 l 278 1118 q 347 1013 313 1069 q 410 901 382 956 q 453 806 438 847 l 390 776 q 349 873 376 818 q 288 986 322 928 q 219 1093 254 1044 m 1104 1121 l 1174 1093 q 1110 982 1144 1040 q 1042 869 1076 924 q 975 772 1007 814 l 918 797 q 984 896 950 839 q 1050 1013 1018 953 q 1104 1121 1082 1072 m 172 700 l 1226 700 l 1226 635 l 172 635 l 172 700 m 79 376 l 1313 376 l 1313 308 l 79 308 l 79 376 m 656 1160 l 725 1160 l 725 -100 l 656 -100 l 656 1160 z "},"南":{"ha":1389,"x_min":86,"x_max":1304,"o":"m 86 1006 l 1304 1006 l 1304 940 l 86 940 l 86 1006 m 363 471 l 1040 471 l 1040 413 l 363 413 l 363 471 m 333 243 l 1063 243 l 1063 182 l 333 182 l 333 243 m 657 444 l 722 444 l 722 -85 l 657 -85 l 657 444 m 176 769 l 1179 769 l 1179 706 l 243 706 l 243 -103 l 176 -103 l 176 769 m 1150 769 l 1218 769 l 1218 -10 q 1208 -67 1218 -47 q 1167 -93 1197 -86 q 1079 -103 1138 -101 q 936 -106 1021 -106 q 926 -73 933 -92 q 910 -40 919 -54 q 1003 -42 960 -42 q 1076 -42 1046 -43 q 1119 -42 1107 -42 q 1144 -34 1139 -40 q 1150 -10 1150 -28 l 1150 769 m 443 654 l 496 672 q 552 585 525 633 q 590 500 579 538 l 533 479 q 497 565 524 515 q 443 654 471 614 m 886 678 l 944 658 q 886 542 918 601 q 824 440 854 483 l 775 458 q 815 528 793 489 q 855 606 836 567 q 886 678 874 646 m 656 1163 l 731 1163 l 731 729 l 656 729 l 656 1163 z "},"即":{"ha":1389,"x_min":107,"x_max":1257,"o":"m 189 804 l 631 804 l 631 742 l 189 742 l 189 804 m 189 1083 l 667 1083 l 667 447 l 189 447 l 189 510 l 599 510 l 599 1022 l 189 1022 l 189 1083 m 139 -54 l 135 8 l 171 43 l 582 186 q 589 157 585 172 q 596 131 593 142 q 363 42 450 75 q 230 -8 275 10 q 167 -36 185 -26 q 139 -54 149 -46 m 449 328 l 504 356 q 580 233 542 299 q 651 108 618 168 q 701 3 683 47 l 644 -31 q 593 77 625 15 q 524 206 561 139 q 449 328 486 272 m 139 -54 q 131 -32 136 -44 q 119 -8 126 -19 q 107 14 113 4 q 142 40 122 21 q 163 99 163 60 l 163 1083 l 229 1083 l 229 19 q 220 15 229 19 q 198 1 211 10 q 171 -16 185 -7 q 148 -35 157 -25 q 139 -54 139 -46 m 1189 1075 l 1257 1075 l 1257 275 q 1247 224 1257 242 q 1211 196 1238 206 q 1137 185 1186 188 q 1008 183 1088 183 q 999 216 1006 197 q 985 250 993 235 q 1097 248 1049 249 q 1161 249 1146 247 q 1184 255 1179 249 q 1189 275 1189 261 l 1189 1075 m 821 1075 l 1232 1075 l 1232 1011 l 888 1011 l 888 -104 l 821 -104 l 821 1075 z "},"卻":{"ha":1389,"x_min":50,"x_max":1265,"o":"m 436 883 l 494 864 q 394 666 454 761 q 258 491 333 571 q 99 354 183 411 q 76 381 90 367 q 50 404 63 394 q 208 531 135 456 q 340 698 282 607 q 436 883 399 789 m 343 1110 l 404 1092 q 329 963 374 1025 q 233 849 285 901 q 131 754 182 796 q 118 771 126 761 q 100 790 110 781 q 82 806 90 800 q 231 941 161 861 q 343 1110 300 1021 m 532 1085 l 582 1119 q 666 1023 624 1075 q 744 921 708 971 q 800 831 779 871 l 747 793 q 693 883 728 832 q 616 988 658 935 q 532 1085 574 1042 m 211 417 l 703 417 l 703 -93 l 639 -93 l 639 354 l 272 354 l 272 -100 l 211 -100 l 211 417 m 232 64 l 674 64 l 674 1 l 232 1 l 232 64 m 1199 1075 l 1265 1075 l 1265 244 q 1256 189 1265 208 q 1218 160 1246 169 q 1142 148 1193 150 q 1017 146 1090 146 q 1011 169 1015 157 q 1002 194 1007 182 q 992 218 997 207 q 1106 217 1056 217 q 1172 217 1156 217 q 1193 223 1188 217 q 1199 244 1199 229 l 1199 1075 m 864 1075 l 1236 1075 l 1236 1011 l 931 1011 l 931 -103 l 864 -103 l 864 1075 m 410 776 l 446 818 q 543 737 493 781 q 640 648 593 693 q 727 560 688 603 q 794 485 767 518 l 757 435 q 690 511 729 468 q 603 601 650 554 q 506 692 556 647 q 410 776 457 738 z "},"原":{"ha":1389,"x_min":60,"x_max":1303,"o":"m 236 1072 l 1303 1072 l 1303 1008 l 236 1008 l 236 1072 m 199 1072 l 265 1072 l 265 685 q 260 505 265 603 q 240 305 256 407 q 194 105 224 203 q 115 -76 165 7 q 99 -64 110 -71 q 78 -50 89 -57 q 60 -40 68 -43 q 135 134 107 42 q 176 323 163 226 q 194 512 190 419 q 199 685 199 604 l 199 1072 m 476 572 l 476 417 l 1117 417 l 1117 572 l 476 572 m 476 781 l 476 628 l 1117 628 l 1117 781 l 476 781 m 410 838 l 1185 838 l 1185 358 l 410 358 l 410 838 m 761 408 l 826 408 l 826 -17 q 817 -65 826 -49 q 782 -92 808 -82 q 703 -99 756 -99 q 567 -100 651 -100 q 558 -71 565 -87 q 543 -40 550 -54 q 665 -42 614 -42 q 733 -42 717 -43 q 756 -35 750 -40 q 761 -17 761 -31 l 761 408 m 757 985 l 831 971 q 788 879 810 926 q 744 797 765 832 l 685 811 q 725 898 704 849 q 757 985 746 947 m 975 239 l 1028 268 q 1122 174 1072 225 q 1215 75 1171 124 q 1289 -10 1260 26 l 1233 -46 q 1162 40 1206 -10 q 1069 142 1118 89 q 975 239 1019 194 m 526 272 l 590 251 q 509 149 553 201 q 422 47 465 96 q 339 -39 378 -1 q 321 -26 332 -33 q 299 -11 310 -18 q 279 0 289 -4 q 410 129 343 56 q 526 272 476 203 z "},"去":{"ha":1389,"x_min":81,"x_max":1315,"o":"m 188 925 l 1211 925 l 1211 857 l 188 857 l 188 925 m 81 557 l 1315 557 l 1315 490 l 81 490 l 81 557 m 660 1160 l 729 1160 l 729 531 l 660 531 l 660 1160 m 851 363 l 908 392 q 1038 244 974 324 q 1156 88 1103 165 q 1242 -49 1210 11 l 1179 -85 q 1095 55 1149 -24 q 978 215 1042 133 q 851 363 915 296 m 207 -49 q 201 -28 206 -40 q 192 -2 197 -15 q 183 19 188 11 q 228 49 204 24 q 283 113 253 74 q 334 173 300 131 q 410 274 368 215 q 495 400 451 332 q 575 536 539 468 l 644 514 q 522 321 586 415 q 391 142 457 226 q 258 -8 325 58 l 258 -10 q 251 -13 258 -10 q 232 -22 243 -17 q 214 -35 221 -28 q 207 -49 207 -42 m 207 -49 l 206 4 l 263 35 l 1113 100 q 1119 69 1114 86 q 1125 40 1124 51 q 780 12 925 24 q 538 -8 635 0 q 379 -22 440 -17 q 285 -32 318 -28 q 235 -40 251 -36 q 207 -49 218 -43 z "},"參":{"ha":1389,"x_min":67,"x_max":1342,"o":"m 803 1093 l 851 1124 q 958 1055 903 1094 q 1061 976 1013 1015 q 1142 904 1110 938 l 1089 868 q 1013 940 1061 900 q 910 1021 965 981 q 803 1093 856 1061 m 397 771 l 449 792 q 512 716 481 758 q 560 644 543 674 l 507 618 q 461 693 492 650 q 397 771 431 736 m 1069 797 l 1119 824 q 1218 724 1169 779 q 1290 624 1267 668 l 1239 594 q 1168 695 1215 638 q 1069 797 1121 753 m 740 546 l 794 518 q 659 427 738 471 q 496 348 581 383 q 331 286 411 313 q 311 310 322 297 q 288 331 300 322 q 451 388 367 354 q 612 463 536 422 q 740 546 688 503 m 894 406 l 949 379 q 781 268 879 319 q 574 176 683 217 q 356 108 464 136 q 337 135 347 119 q 315 160 326 150 q 531 220 422 183 q 735 305 639 257 q 894 406 831 353 m 1065 265 l 1124 236 q 913 81 1042 147 q 626 -31 785 15 q 293 -103 467 -76 q 278 -75 288 -92 q 257 -46 268 -58 q 585 19 429 -22 q 865 122 740 60 q 1065 265 989 183 m 682 815 l 744 796 q 582 597 681 683 q 363 447 483 511 q 111 336 242 382 q 99 353 107 343 q 83 373 92 363 q 67 390 74 383 q 316 490 197 429 q 529 632 435 550 q 682 815 624 714 m 718 767 q 839 651 768 707 q 993 548 910 596 q 1166 463 1076 500 q 1342 403 1256 426 q 1326 387 1335 396 q 1310 368 1318 378 q 1297 349 1303 358 q 1122 415 1211 375 q 947 507 1032 456 q 788 617 861 558 q 661 740 714 676 l 718 767 m 275 901 q 270 920 274 908 q 263 945 267 932 q 254 967 258 958 q 338 997 288 968 q 396 1031 356 1006 q 485 1091 436 1056 q 576 1165 533 1126 l 639 1132 q 483 1021 563 1071 q 326 936 403 971 l 326 935 q 319 932 326 935 q 301 924 311 929 q 283 913 290 919 q 275 901 275 907 m 275 901 l 275 946 l 324 971 l 1010 1000 q 1026 972 1017 988 q 1042 947 1035 957 q 708 931 842 938 q 492 921 574 925 q 368 913 411 917 q 306 907 325 910 q 275 901 286 904 m 149 633 q 142 653 146 642 q 135 676 139 664 q 125 697 131 689 q 155 708 140 700 q 185 729 169 715 q 224 762 197 738 q 281 822 250 786 q 336 893 311 857 l 399 863 q 299 756 351 806 q 197 671 246 706 l 197 669 q 190 666 197 669 q 173 657 182 663 q 156 645 164 651 q 149 633 149 639 m 149 633 l 147 682 l 188 701 l 478 715 q 492 688 483 703 q 508 663 501 672 q 329 652 397 657 q 224 644 261 647 q 172 639 188 642 q 149 633 156 636 m 819 640 q 813 658 817 647 q 805 682 808 669 q 797 703 801 694 q 819 713 808 706 q 843 729 831 719 q 872 760 853 738 q 914 815 892 783 q 951 879 936 846 l 1015 851 q 943 754 982 800 q 867 678 904 708 l 867 676 q 860 672 867 676 q 843 663 853 668 q 826 651 833 657 q 819 640 819 644 m 819 640 l 818 688 l 858 708 l 1176 726 q 1192 699 1183 714 q 1206 675 1200 685 q 1012 660 1085 667 q 900 651 939 654 q 844 645 861 647 q 819 640 828 643 z "},"又":{"ha":1389,"x_min":58,"x_max":1338,"o":"m 311 1006 q 529 540 392 749 q 867 184 667 331 q 1338 -31 1068 38 q 1322 -48 1331 -37 q 1306 -69 1314 -58 q 1293 -90 1299 -81 q 817 135 1019 -17 q 476 502 615 286 q 251 988 338 718 l 311 1006 m 135 1047 l 1126 1047 l 1126 982 l 135 982 l 135 1047 m 1107 1047 l 1119 1047 l 1132 1051 l 1175 1031 q 1005 615 1113 797 q 755 297 897 433 q 447 63 613 160 q 101 -93 281 -33 q 91 -74 99 -85 q 75 -51 83 -62 q 58 -35 67 -40 q 401 114 236 22 q 703 336 565 206 q 946 640 842 467 q 1107 1033 1050 814 l 1107 1047 z "},"及":{"ha":1389,"x_min":58,"x_max":1332,"o":"m 129 1089 l 925 1089 l 925 1024 l 129 1024 l 129 1089 m 1188 688 l 1201 688 l 1215 690 l 1260 669 q 1129 366 1214 496 q 931 142 1044 236 q 687 -12 818 49 q 413 -108 556 -74 q 403 -88 410 -100 q 390 -66 397 -76 q 376 -49 383 -56 q 639 39 511 -18 q 876 184 767 96 q 1066 394 985 272 q 1188 674 1147 515 l 1188 688 m 388 1057 l 457 1057 l 457 886 q 451 708 457 801 q 427 517 446 615 q 371 318 408 418 q 269 119 333 218 q 107 -75 206 19 q 94 -56 103 -67 q 76 -36 85 -46 q 58 -21 67 -26 q 242 210 175 92 q 340 446 308 328 q 379 676 371 564 q 388 885 388 788 l 388 1057 m 904 1089 l 972 1089 q 937 940 957 1019 q 897 785 917 860 q 860 657 876 711 l 789 657 q 829 788 808 713 q 869 943 850 864 q 904 1089 889 1022 m 422 688 l 1208 688 l 1208 624 l 408 624 l 422 688 m 565 654 q 849 211 656 392 q 1332 -39 1042 31 q 1316 -57 1325 -46 q 1299 -79 1307 -68 q 1285 -100 1290 -90 q 938 53 1089 -49 q 679 302 786 154 q 508 638 572 450 l 565 654 z "},"反":{"ha":1389,"x_min":83,"x_max":1303,"o":"m 282 1063 l 1247 1063 l 1247 994 l 282 994 l 282 1063 m 290 717 l 1113 717 l 1113 650 l 290 650 l 290 717 m 250 1063 l 317 1063 l 317 689 q 310 501 317 603 q 286 294 304 400 q 233 87 268 188 q 139 -100 197 -14 q 123 -86 133 -93 q 102 -72 113 -79 q 83 -60 92 -64 q 174 118 140 22 q 224 314 207 214 q 245 510 240 414 q 250 689 250 607 l 250 1063 m 1092 717 l 1106 717 l 1119 719 l 1164 699 q 1030 398 1115 529 q 833 169 944 267 q 592 3 721 71 q 328 -103 464 -64 q 317 -82 324 -93 q 302 -60 310 -71 q 288 -42 294 -49 q 542 56 418 -7 q 776 210 667 118 q 966 426 885 303 q 1092 703 1047 549 l 1092 717 m 488 689 q 782 213 581 399 q 1303 -46 983 26 q 1285 -64 1294 -53 q 1269 -86 1276 -75 q 1257 -107 1263 -97 q 879 51 1042 -53 q 604 310 717 154 q 425 669 492 465 l 488 689 z "},"取":{"ha":1389,"x_min":44,"x_max":1351,"o":"m 703 960 l 1240 960 l 1240 894 l 703 894 l 703 960 m 71 1067 l 736 1067 l 736 1003 l 71 1003 l 71 1067 m 221 788 l 596 788 l 596 724 l 221 724 l 221 788 m 221 499 l 596 499 l 596 436 l 221 436 l 221 499 m 1217 960 l 1229 960 l 1242 963 l 1285 950 q 1163 475 1249 675 q 958 140 1078 275 q 693 -76 838 4 q 672 -49 685 -65 q 649 -22 660 -32 q 902 178 786 49 q 1101 499 1018 308 q 1217 942 1183 690 l 1217 960 m 808 888 q 918 494 847 675 q 1096 180 989 314 q 1351 -29 1203 46 q 1335 -45 1344 -35 q 1317 -65 1325 -56 q 1304 -85 1310 -75 q 1041 138 1150 -1 q 860 465 932 278 q 743 875 788 651 l 808 888 m 185 1046 l 251 1046 l 251 149 l 185 149 l 185 1046 m 567 1046 l 632 1046 l 632 -99 l 567 -99 l 567 1046 m 44 160 q 202 182 113 169 q 394 209 292 194 q 599 240 496 224 l 601 178 q 309 131 454 154 q 57 93 164 108 l 44 160 z "},"受":{"ha":1389,"x_min":82,"x_max":1308,"o":"m 108 757 l 1281 757 l 1281 486 l 1215 486 l 1215 694 l 172 694 l 172 486 l 108 486 l 108 757 m 258 508 l 1060 508 l 1060 444 l 258 444 l 258 508 m 1138 1163 l 1186 1108 q 965 1069 1090 1088 q 699 1037 839 1051 q 416 1013 560 1022 q 139 997 272 1003 q 132 1026 138 1010 q 122 1056 126 1043 q 397 1073 256 1063 q 676 1097 539 1083 q 933 1126 814 1110 q 1138 1163 1051 1143 m 235 965 l 293 983 q 358 883 326 939 q 401 788 389 826 l 342 765 q 298 862 328 804 q 235 965 268 919 m 607 996 l 668 1010 q 719 897 696 958 q 749 793 742 836 l 683 776 q 654 882 676 819 q 607 996 632 944 m 1100 1013 l 1165 988 q 1110 892 1140 942 q 1047 798 1079 843 q 988 718 1015 753 l 936 740 q 993 824 963 776 q 1052 922 1024 871 q 1100 1013 1081 972 m 1036 508 l 1053 508 l 1067 511 l 1111 482 q 941 254 1044 351 q 706 87 838 157 q 426 -30 575 17 q 121 -104 276 -76 q 110 -85 117 -96 q 96 -62 103 -74 q 82 -44 89 -51 q 382 24 236 -19 q 655 132 528 67 q 881 288 782 197 q 1036 494 979 378 l 1036 508 m 376 472 q 594 226 457 331 q 914 53 732 121 q 1308 -43 1096 -14 q 1294 -62 1301 -50 q 1279 -84 1286 -74 q 1268 -106 1272 -94 q 871 0 1054 -72 q 547 184 688 72 q 318 447 406 296 l 376 472 z "},"口":{"ha":1389,"x_min":193,"x_max":1201,"o":"m 193 1008 l 1201 1008 l 1201 -56 l 1131 -56 l 1131 942 l 263 942 l 263 -65 l 193 -65 l 193 1008 m 222 126 l 1186 126 l 1186 57 l 222 57 l 222 126 z "},"只":{"ha":1389,"x_min":69,"x_max":1304,"o":"m 839 265 l 893 301 q 1045 182 967 247 q 1192 53 1124 117 q 1304 -62 1261 -11 l 1246 -106 q 1137 11 1204 -54 q 991 143 1069 76 q 839 265 913 210 m 475 299 l 544 272 q 425 133 494 203 q 277 1 356 64 q 119 -108 199 -61 q 105 -92 114 -101 q 86 -74 96 -83 q 69 -60 76 -65 q 224 44 146 -15 q 367 169 301 104 q 475 299 432 235 m 296 989 l 296 511 l 1093 511 l 1093 989 l 296 989 m 229 1054 l 1161 1054 l 1161 444 l 229 444 l 229 1054 z "},"叫":{"ha":1389,"x_min":150,"x_max":1217,"o":"m 1149 1150 l 1217 1150 l 1217 -106 l 1149 -106 l 1149 1150 m 699 169 l 694 233 l 735 264 l 1169 363 q 1173 330 1169 347 q 1179 301 1176 313 q 935 242 1026 264 q 797 206 844 219 q 730 185 750 193 q 699 169 710 178 m 699 169 q 690 189 696 178 q 676 211 683 200 q 663 229 669 222 q 710 262 683 238 q 738 328 738 286 l 738 1035 l 806 1035 l 806 254 q 795 249 806 254 q 769 233 785 243 q 737 212 753 224 q 710 189 721 200 q 699 169 699 178 m 189 1028 l 561 1028 l 561 253 l 189 253 l 189 318 l 496 318 l 496 964 l 189 964 l 189 1028 m 150 1028 l 213 1028 l 213 121 l 150 121 l 150 1028 z "},"可":{"ha":1389,"x_min":83,"x_max":1311,"o":"m 1065 1035 l 1135 1035 l 1135 11 q 1121 -57 1135 -35 q 1071 -89 1107 -79 q 966 -99 1036 -99 q 796 -100 896 -100 q 788 -77 793 -90 q 778 -50 783 -64 q 767 -26 772 -36 q 880 -28 826 -28 q 972 -28 933 -29 q 1028 -28 1011 -28 q 1057 -19 1049 -26 q 1065 11 1065 -11 l 1065 1035 m 235 757 l 300 757 l 300 138 l 235 138 l 235 757 m 261 757 l 790 757 l 790 251 l 261 251 l 261 317 l 722 317 l 722 693 l 261 693 l 261 757 m 83 1057 l 1311 1057 l 1311 990 l 83 990 l 83 1057 z "},"史":{"ha":1389,"x_min":69,"x_max":1326,"o":"m 661 1154 l 731 1154 l 731 593 q 721 427 731 510 q 678 269 711 344 q 579 125 646 193 q 398 0 513 57 q 108 -100 283 -57 q 98 -82 104 -93 q 84 -60 92 -71 q 69 -42 76 -49 q 351 51 240 -1 q 524 165 461 103 q 617 297 588 228 q 653 442 646 367 q 661 592 661 517 l 661 1154 m 247 863 l 247 565 l 1150 565 l 1150 863 l 247 863 m 182 928 l 1218 928 l 1218 500 l 182 500 l 182 928 m 310 436 q 460 215 371 301 q 674 76 550 128 q 959 -1 797 25 q 1326 -39 1121 -26 q 1306 -69 1315 -51 q 1293 -106 1297 -87 q 921 -62 1086 -92 q 628 25 756 -32 q 408 176 501 82 q 251 413 314 269 l 310 436 z "},"各":{"ha":1389,"x_min":44,"x_max":1335,"o":"m 322 24 l 1065 24 l 1065 -39 l 322 -39 l 322 24 m 529 1168 l 593 1146 q 464 970 538 1054 q 308 815 390 886 q 140 690 225 744 q 126 706 136 697 q 106 724 117 715 q 88 739 96 733 q 256 856 175 789 q 408 1003 338 924 q 529 1168 479 1082 m 1038 1007 l 1053 1007 l 1065 1010 l 1110 979 q 915 758 1032 860 q 656 578 797 657 q 365 442 514 499 q 78 351 215 385 q 69 372 75 361 q 58 394 64 383 q 44 411 51 406 q 266 474 151 435 q 494 567 381 513 q 711 687 608 621 q 898 830 814 753 q 1038 994 982 907 l 1038 1007 m 399 951 q 573 774 471 858 q 799 619 675 689 q 1059 497 922 549 q 1335 414 1196 444 q 1319 397 1328 407 q 1303 375 1310 386 q 1290 354 1296 364 q 1015 444 1151 389 q 754 572 879 499 q 525 735 629 646 q 344 925 421 824 l 399 951 m 286 381 l 1092 381 l 1092 -107 l 1024 -107 l 1024 317 l 353 317 l 353 -111 l 286 -111 l 286 381 m 446 1007 l 1057 1007 l 1057 943 l 406 943 l 446 1007 z "},"合":{"ha":1389,"x_min":64,"x_max":1336,"o":"m 343 701 l 1047 701 l 1047 639 l 343 639 l 343 701 m 313 53 l 1074 53 l 1074 -12 l 313 -12 l 313 53 m 282 444 l 1122 444 l 1122 -96 l 1053 -96 l 1053 381 l 349 381 l 349 -100 l 282 -100 l 282 444 m 725 1161 l 782 1132 q 605 918 710 1021 q 374 731 500 815 q 113 592 247 647 q 91 620 104 604 q 64 647 78 636 q 324 779 199 700 q 552 956 449 858 q 725 1161 656 1054 m 724 1088 q 994 847 840 950 q 1336 658 1149 744 q 1310 631 1324 649 q 1288 599 1296 614 q 1051 730 1161 661 q 844 880 940 799 q 667 1060 749 961 l 724 1088 z "},"同":{"ha":1389,"x_min":132,"x_max":1260,"o":"m 343 846 l 1056 846 l 1056 785 l 343 785 l 343 846 m 417 615 l 481 615 l 481 82 l 417 82 l 417 615 m 450 615 l 972 615 l 972 188 l 450 188 l 450 249 l 908 249 l 908 554 l 450 554 l 450 615 m 132 1083 l 1240 1083 l 1240 1018 l 199 1018 l 199 -107 l 132 -107 l 132 1083 m 1193 1083 l 1260 1083 l 1260 -6 q 1247 -64 1260 -44 q 1208 -92 1235 -83 q 1128 -103 1182 -101 q 985 -104 1075 -106 q 978 -83 983 -94 q 969 -60 974 -72 q 958 -39 964 -49 q 1085 -42 1029 -42 q 1158 -40 1140 -42 q 1185 -31 1178 -39 q 1193 -6 1193 -24 l 1193 1083 z "},"名":{"ha":1389,"x_min":54,"x_max":1224,"o":"m 493 17 l 1192 17 l 1192 -46 l 493 -46 l 493 17 m 457 1018 l 978 1018 l 978 956 l 457 956 l 457 1018 m 536 1161 l 611 1147 q 492 975 564 1064 q 325 803 419 886 q 113 650 231 719 q 99 667 108 658 q 81 685 90 676 q 64 700 72 694 q 269 843 178 764 q 428 1004 361 922 q 536 1161 496 1086 m 954 1018 l 967 1018 l 981 1022 l 1022 997 q 858 715 960 843 q 629 485 756 586 q 365 311 503 383 q 93 196 228 239 q 83 217 90 206 q 69 239 76 228 q 54 256 61 250 q 319 363 185 293 q 576 528 453 432 q 799 745 700 625 q 954 1004 897 865 l 954 1018 m 290 806 l 340 846 q 462 758 400 807 q 576 658 524 708 q 661 565 629 608 l 607 518 q 524 611 575 560 q 411 713 472 663 q 290 806 350 764 m 1157 465 l 1224 465 l 1224 -107 l 1157 -107 l 1157 465 m 526 465 l 1192 465 l 1192 403 l 526 403 l 526 -104 l 458 -104 l 458 407 l 517 465 l 526 465 z "},"向":{"ha":1389,"x_min":147,"x_max":1250,"o":"m 147 915 l 1211 915 l 1211 849 l 213 849 l 213 -104 l 147 -104 l 147 915 m 1185 915 l 1250 915 l 1250 3 q 1238 -60 1250 -39 q 1193 -92 1226 -82 q 1096 -101 1160 -100 q 936 -103 1032 -103 q 930 -81 933 -93 q 921 -54 926 -68 q 910 -31 915 -40 q 1015 -33 965 -32 q 1099 -34 1064 -35 q 1149 -33 1133 -33 q 1177 -24 1169 -32 q 1185 3 1185 -17 l 1185 915 m 628 1164 l 707 1147 q 644 1003 678 1079 q 578 872 610 926 l 515 889 q 556 975 535 926 q 596 1074 576 1024 q 628 1164 615 1124 m 424 636 l 486 636 l 486 83 l 424 83 l 424 636 m 456 636 l 967 636 l 967 186 l 456 186 l 456 249 l 903 249 l 903 572 l 456 572 l 456 636 z "},"命":{"ha":1389,"x_min":60,"x_max":1332,"o":"m 422 789 l 954 789 l 954 726 l 422 726 l 422 789 m 219 590 l 593 590 l 593 129 l 219 129 l 219 192 l 528 192 l 528 528 l 219 528 l 219 590 m 763 592 l 1172 592 l 1172 529 l 828 529 l 828 -103 l 763 -103 l 763 592 m 1139 592 l 1206 592 l 1206 193 q 1197 142 1206 160 q 1161 114 1188 124 q 1085 103 1136 104 q 949 101 1035 101 q 940 135 946 117 q 926 167 933 153 q 1046 165 996 165 q 1113 167 1096 165 q 1133 174 1128 168 q 1139 192 1139 179 l 1139 592 m 190 590 l 256 590 l 256 7 l 190 7 l 190 590 m 700 1172 l 754 1133 q 631 986 703 1058 q 472 850 558 914 q 290 735 385 786 q 99 653 194 685 q 82 687 93 668 q 60 719 71 706 q 248 793 154 747 q 427 900 342 839 q 582 1030 513 961 q 700 1172 651 1099 m 725 1114 q 840 994 772 1053 q 990 884 908 936 q 1160 791 1072 832 q 1332 725 1247 750 q 1314 706 1324 718 q 1295 683 1304 694 q 1281 660 1286 671 q 1109 733 1196 688 q 940 835 1022 778 q 789 956 858 893 q 669 1088 719 1019 l 725 1114 z "},"和":{"ha":1389,"x_min":39,"x_max":1243,"o":"m 774 138 l 1215 138 l 1215 72 l 774 72 l 774 138 m 749 1031 l 1243 1031 l 1243 -35 l 1176 -35 l 1176 965 l 814 965 l 814 -44 l 749 -44 l 749 1031 m 361 1054 l 428 1054 l 428 -100 l 361 -100 l 361 1054 m 75 750 l 694 750 l 694 686 l 75 686 l 75 750 m 360 729 l 411 710 q 348 548 385 632 q 266 383 311 464 q 174 235 221 303 q 81 118 126 167 q 61 150 74 132 q 39 179 49 168 q 131 287 83 224 q 222 424 178 350 q 301 576 265 497 q 360 729 336 654 m 629 1144 l 676 1093 q 512 1043 607 1065 q 313 1004 417 1021 q 114 976 210 988 q 105 1003 111 988 q 93 1031 99 1018 q 288 1060 186 1043 q 479 1099 389 1078 q 629 1144 569 1121 m 425 647 q 464 604 439 633 q 520 538 489 575 q 583 465 551 501 q 638 399 614 429 q 674 356 663 369 l 629 300 q 579 369 611 325 q 510 461 547 413 q 440 551 474 510 q 388 614 406 592 l 425 647 z "},"品":{"ha":1389,"x_min":126,"x_max":1278,"o":"m 401 1033 l 401 724 l 994 724 l 994 1033 l 401 1033 m 335 1097 l 1063 1097 l 1063 658 l 335 658 l 335 1097 m 126 492 l 599 492 l 599 -89 l 532 -89 l 532 428 l 192 428 l 192 -103 l 126 -103 l 126 492 m 771 492 l 1278 492 l 1278 -93 l 1210 -93 l 1210 428 l 836 428 l 836 -103 l 771 -103 l 771 492 m 157 42 l 558 42 l 558 -25 l 157 -25 l 157 42 m 807 42 l 1233 42 l 1233 -25 l 807 -25 l 807 42 z "},"員":{"ha":1389,"x_min":61,"x_max":1326,"o":"m 340 1042 l 340 865 l 1057 865 l 1057 1042 l 340 1042 m 272 1100 l 1126 1100 l 1126 806 l 272 806 l 272 1100 m 282 479 l 282 357 l 1115 357 l 1115 479 l 282 479 m 282 303 l 282 179 l 1115 179 l 1115 303 l 282 303 m 282 653 l 282 533 l 1115 533 l 1115 653 l 282 653 m 215 710 l 1183 710 l 1183 122 l 215 122 l 215 710 m 478 110 l 544 69 q 415 2 489 35 q 261 -58 340 -31 q 108 -106 182 -86 q 86 -79 100 -94 q 61 -54 72 -64 q 214 -8 135 -35 q 364 49 293 18 q 478 110 435 79 m 836 60 l 893 106 q 1046 56 965 85 q 1201 -3 1126 26 q 1326 -56 1275 -33 l 1269 -106 q 1147 -51 1221 -82 q 991 8 1072 -21 q 836 60 910 38 z "},"商":{"ha":1389,"x_min":90,"x_max":1300,"o":"m 176 719 l 1190 719 l 1190 658 l 243 658 l 243 -101 l 176 -101 l 176 719 m 1153 719 l 1217 719 l 1217 -10 q 1206 -60 1217 -43 q 1169 -85 1196 -76 q 1090 -94 1143 -93 q 943 -94 1036 -94 q 934 -67 940 -82 q 919 -39 928 -51 q 1010 -40 969 -40 q 1081 -40 1051 -40 q 1121 -39 1110 -39 q 1146 -32 1139 -37 q 1153 -10 1153 -26 l 1153 719 m 478 383 l 939 383 l 939 79 l 478 79 l 478 135 l 879 135 l 879 326 l 478 326 l 478 383 m 446 383 l 507 383 l 507 8 l 446 8 l 446 383 m 90 1000 l 1300 1000 l 1300 938 l 90 938 l 90 1000 m 390 903 l 447 925 q 500 842 472 886 q 542 767 528 797 l 485 739 q 443 817 469 771 q 390 903 417 864 m 940 918 l 1010 899 q 934 783 975 843 q 858 682 893 724 l 804 700 q 853 768 828 729 q 902 847 879 807 q 940 918 925 888 m 626 1146 l 686 1163 q 727 1069 707 1119 q 758 983 747 1019 l 696 963 q 665 1051 685 999 q 626 1146 644 1103 m 517 693 l 579 693 q 542 542 571 603 q 453 442 514 481 q 289 381 393 404 q 274 406 285 392 q 253 429 263 421 q 405 481 350 449 q 485 564 460 513 q 517 693 510 615 m 768 689 l 831 689 l 831 538 q 835 503 831 513 q 860 493 840 493 q 890 493 868 493 q 939 493 913 493 q 988 493 965 493 q 1018 493 1010 493 q 1056 494 1033 493 q 1092 497 1078 496 q 1094 470 1093 485 q 1099 444 1096 456 q 1065 440 1086 440 q 1021 439 1043 439 q 986 439 1011 439 q 933 439 961 439 q 883 439 906 439 q 853 439 861 439 q 800 449 818 439 q 775 481 782 458 q 768 539 768 503 l 768 689 z "},"問":{"ha":1389,"x_min":138,"x_max":1258,"o":"m 464 482 l 943 482 l 943 92 l 464 92 l 464 153 l 879 153 l 879 422 l 464 422 l 464 482 m 433 482 l 496 482 l 496 7 l 433 7 l 433 482 m 168 894 l 575 894 l 575 839 l 168 839 l 168 894 m 806 894 l 1224 894 l 1224 839 l 806 839 l 806 894 m 1192 1096 l 1258 1096 l 1258 1 q 1247 -60 1258 -40 q 1206 -90 1235 -81 q 1117 -101 1175 -100 q 969 -103 1058 -103 q 964 -81 968 -93 q 954 -56 960 -68 q 943 -32 949 -43 q 1037 -35 993 -35 q 1113 -34 1081 -35 q 1157 -33 1144 -33 q 1184 -25 1176 -32 q 1192 1 1192 -18 l 1192 1096 m 172 1096 l 621 1096 l 621 625 l 172 625 l 172 682 l 557 682 l 557 1038 l 172 1038 l 172 1096 m 1225 1096 l 1225 1038 l 829 1038 l 829 682 l 1225 682 l 1225 624 l 764 624 l 764 1096 l 1225 1096 m 138 1096 l 203 1096 l 203 -106 l 138 -106 l 138 1096 z "},"單":{"ha":1389,"x_min":83,"x_max":1308,"o":"m 657 726 l 725 726 l 725 -103 l 657 -103 l 657 726 m 294 500 l 294 351 l 1108 351 l 1108 500 l 294 500 m 294 701 l 294 556 l 1108 556 l 1108 701 l 294 701 m 229 760 l 1175 760 l 1175 293 l 229 293 l 229 760 m 83 167 l 1308 167 l 1308 104 l 83 104 l 83 167 m 263 1051 l 263 890 l 569 890 l 569 1051 l 263 1051 m 199 1104 l 633 1104 l 633 838 l 199 838 l 199 1104 m 825 1051 l 825 890 l 1136 890 l 1136 1051 l 825 1051 m 763 1104 l 1201 1104 l 1201 838 l 763 838 l 763 1104 z "},"器":{"ha":1389,"x_min":46,"x_max":1317,"o":"m 246 1035 l 246 783 l 539 783 l 539 1035 l 246 1035 m 183 1093 l 601 1093 l 601 725 l 183 725 l 183 1093 m 836 1035 l 836 783 l 1142 783 l 1142 1035 l 836 1035 m 775 1093 l 1206 1093 l 1206 725 l 775 725 l 775 1093 m 78 576 l 1313 576 l 1313 515 l 78 515 l 78 576 m 238 3 l 593 3 l 593 -56 l 238 -56 l 238 3 m 796 3 l 1160 3 l 1160 -56 l 796 -56 l 796 3 m 208 322 l 617 322 l 617 -96 l 554 -96 l 554 263 l 269 263 l 269 -103 l 208 -103 l 208 322 m 767 322 l 1189 322 l 1189 -96 l 1125 -96 l 1125 263 l 828 263 l 828 -103 l 767 -103 l 767 322 m 626 743 l 696 731 q 566 540 649 635 q 364 363 483 446 q 86 218 244 279 q 76 237 83 228 q 62 254 69 246 q 46 268 54 263 q 316 402 200 324 q 510 569 432 481 q 626 743 589 658 m 860 675 l 894 715 q 1006 669 947 697 q 1097 613 1064 640 l 1061 569 q 970 626 1028 596 q 860 675 913 656 m 788 528 l 829 568 q 1013 476 922 526 q 1183 375 1104 426 q 1317 275 1261 324 l 1267 233 q 1136 332 1213 281 q 971 433 1060 383 q 788 528 882 483 z "},"嚴":{"ha":1389,"x_min":51,"x_max":1336,"o":"m 329 682 l 781 682 l 781 629 l 329 629 l 329 682 m 915 574 l 1310 574 l 1310 514 l 915 514 l 915 574 m 394 378 l 713 378 l 713 328 l 394 328 l 394 378 m 394 224 l 713 224 l 713 174 l 394 174 l 394 224 m 281 532 l 818 532 l 818 478 l 281 478 l 281 532 m 518 663 l 578 663 l 578 511 l 518 511 l 518 663 m 363 519 l 421 519 l 421 25 l 363 25 l 363 519 m 682 517 l 742 517 l 742 -103 l 682 -103 l 682 517 m 243 39 q 459 53 333 44 q 721 72 585 63 l 719 19 q 471 -1 593 10 q 256 -19 349 -11 l 243 39 m 939 722 l 1000 711 q 924 483 972 590 q 811 300 875 375 q 798 313 807 306 q 780 329 789 321 q 763 342 771 338 q 869 512 824 413 q 939 722 914 611 m 1188 551 l 1251 543 q 1099 147 1207 304 q 813 -106 992 -10 q 800 -90 808 -100 q 783 -72 792 -81 q 767 -57 775 -62 q 1045 178 943 29 q 1188 551 1147 328 m 921 493 q 1014 262 954 369 q 1155 73 1074 154 q 1336 -53 1236 -8 q 1311 -77 1324 -61 q 1290 -106 1299 -93 q 1106 33 1189 -54 q 963 233 1024 119 q 867 478 903 347 l 921 493 m 208 811 l 1303 811 l 1303 751 l 208 751 l 208 811 m 172 811 l 236 811 l 236 506 q 231 359 236 438 q 213 199 226 281 q 173 39 200 117 q 104 -106 146 -39 q 90 -91 99 -99 q 70 -76 81 -83 q 51 -65 60 -68 q 132 119 107 19 q 165 320 157 219 q 172 506 172 421 l 172 811 m 301 1044 l 301 925 l 592 925 l 592 1044 l 301 1044 m 240 1094 l 656 1094 l 656 874 l 240 874 l 240 1094 m 851 1044 l 851 925 l 1144 925 l 1144 1044 l 851 1044 m 789 1094 l 1210 1094 l 1210 874 l 789 874 l 789 1094 z "},"四":{"ha":1389,"x_min":132,"x_max":1253,"o":"m 132 1035 l 1253 1035 l 1253 -46 l 1185 -46 l 1185 971 l 200 971 l 200 -57 l 132 -57 l 132 1035 m 168 121 l 1226 121 l 1226 54 l 168 54 l 168 121 m 506 1001 l 572 1001 q 558 724 569 844 q 517 514 547 604 q 429 358 488 424 q 272 249 371 293 q 262 267 269 257 q 246 285 254 276 q 229 300 238 294 q 376 400 322 340 q 458 543 431 460 q 494 740 485 626 q 506 1001 504 853 m 801 985 l 867 985 l 867 493 q 874 448 867 461 q 904 435 882 435 q 936 435 914 435 q 985 435 958 435 q 1035 435 1013 435 q 1067 435 1057 435 q 1106 436 1082 435 q 1142 440 1129 438 q 1144 409 1143 426 q 1149 379 1146 392 q 1115 376 1138 376 q 1068 375 1092 375 q 1033 375 1058 375 q 981 375 1008 375 q 930 375 953 375 q 899 375 907 375 q 838 387 860 375 q 809 425 817 399 q 801 496 801 451 l 801 985 z "},"回":{"ha":1389,"x_min":124,"x_max":1267,"o":"m 494 719 l 494 354 l 888 354 l 888 719 l 494 719 m 431 782 l 954 782 l 954 293 l 431 293 l 431 782 m 124 1097 l 1267 1097 l 1267 -100 l 1197 -100 l 1197 1031 l 192 1031 l 192 -100 l 124 -100 l 124 1097 m 163 39 l 1238 39 l 1238 -26 l 163 -26 l 163 39 z "},"因":{"ha":1389,"x_min":124,"x_max":1268,"o":"m 279 715 l 1110 715 l 1110 653 l 279 653 l 279 715 m 678 968 l 744 968 q 722 691 738 824 q 665 444 706 558 q 545 240 624 331 q 335 88 467 149 q 322 106 331 96 q 304 124 313 115 q 289 139 296 133 q 492 281 415 194 q 606 475 568 367 q 659 708 644 583 q 678 968 674 833 m 650 549 l 696 582 q 851 434 772 515 q 996 275 929 353 q 1103 136 1063 197 l 1053 96 q 976 199 1021 143 q 876 317 931 256 q 763 438 821 378 q 650 549 706 497 m 124 1097 l 1268 1097 l 1268 -100 l 1201 -100 l 1201 1035 l 188 1035 l 188 -100 l 124 -100 l 124 1097 m 163 32 l 1239 32 l 1239 -29 l 163 -29 l 163 32 z "},"國":{"ha":1389,"x_min":124,"x_max":1267,"o":"m 279 819 l 1115 819 l 1115 764 l 279 764 l 279 819 m 871 957 l 904 994 q 995 949 949 976 q 1067 897 1042 921 l 1033 856 q 960 910 1007 881 q 871 957 914 939 m 983 685 l 1042 672 q 886 320 990 468 q 633 75 782 172 q 621 90 629 82 q 605 107 613 99 q 589 121 597 115 q 837 351 738 208 q 983 685 936 493 m 267 231 q 464 270 349 247 q 701 319 579 293 l 704 268 q 480 218 590 243 q 281 175 369 193 l 267 231 m 392 608 l 392 438 l 589 438 l 589 608 l 392 608 m 336 658 l 646 658 l 646 386 l 336 386 l 336 658 m 714 986 l 774 986 q 800 683 782 829 q 848 421 818 538 q 922 233 878 304 q 1026 154 967 163 q 1055 193 1043 151 q 1074 307 1067 235 q 1089 295 1081 301 q 1106 285 1097 289 q 1122 278 1115 281 q 1083 128 1110 172 q 1010 97 1057 85 q 882 186 933 110 q 797 386 831 263 q 743 665 763 510 q 714 986 724 819 m 124 1092 l 1267 1092 l 1267 -108 l 1200 -108 l 1200 1029 l 189 1029 l 189 -108 l 124 -108 l 124 1092 m 163 24 l 1239 24 l 1239 -39 l 163 -39 l 163 24 z "},"圓":{"ha":1389,"x_min":124,"x_max":1267,"o":"m 478 888 l 478 790 l 914 790 l 914 888 l 478 888 m 417 936 l 976 936 l 976 742 l 417 742 l 417 936 m 415 507 l 415 429 l 971 429 l 971 507 l 415 507 m 415 382 l 415 301 l 971 301 l 971 382 l 415 382 m 415 632 l 415 554 l 971 554 l 971 632 l 415 632 m 356 679 l 1033 679 l 1033 253 l 356 253 l 356 679 m 558 246 l 614 226 q 479 148 558 188 q 332 83 400 108 q 319 97 328 89 q 303 113 311 104 q 286 126 294 121 q 433 179 358 149 q 558 246 508 210 m 768 210 l 808 243 q 972 181 890 217 q 1104 113 1053 146 l 1050 79 q 925 147 1001 111 q 768 210 849 182 m 124 1092 l 1267 1092 l 1267 -108 l 1200 -108 l 1200 1029 l 189 1029 l 189 -108 l 124 -108 l 124 1092 m 163 24 l 1239 24 l 1239 -39 l 163 -39 l 163 24 z "},"圖":{"ha":1389,"x_min":124,"x_max":1268,"o":"m 478 908 l 478 796 l 910 796 l 910 908 l 478 908 m 419 958 l 969 958 l 969 746 l 419 746 l 419 958 m 433 496 l 433 161 l 953 161 l 953 496 l 433 496 m 375 547 l 1013 547 l 1013 111 l 375 111 l 375 547 m 592 381 l 592 278 l 792 278 l 792 381 l 592 381 m 540 426 l 844 426 l 844 232 l 540 232 l 540 426 m 264 669 l 1128 669 l 1128 618 l 264 618 l 264 669 m 660 781 l 722 781 l 722 644 l 660 644 l 660 781 m 124 1097 l 1268 1097 l 1268 -100 l 1201 -100 l 1201 1036 l 188 1036 l 188 -100 l 124 -100 l 124 1097 m 163 18 l 1239 18 l 1239 -42 l 163 -42 l 163 18 z "},"團":{"ha":1389,"x_min":147,"x_max":1243,"o":"m 286 931 l 1101 931 l 1101 879 l 286 879 l 286 931 m 269 328 l 1124 328 l 1124 278 l 269 278 l 269 328 m 431 235 l 475 263 q 555 199 515 236 q 614 132 594 163 l 568 101 q 508 169 547 131 q 431 235 469 207 m 408 651 l 408 581 l 985 581 l 985 651 l 408 651 m 408 767 l 408 697 l 985 697 l 985 767 l 408 767 m 350 813 l 1046 813 l 1046 533 l 350 533 l 350 813 m 850 386 l 911 386 l 911 124 q 903 88 911 100 q 875 69 896 76 q 815 62 854 64 q 711 60 776 60 q 703 84 708 72 q 690 107 697 96 q 778 106 740 106 q 829 107 817 106 q 846 111 842 107 q 850 125 850 115 l 850 386 m 289 446 q 490 449 376 447 q 732 453 603 450 q 993 460 861 456 l 992 414 q 738 406 864 410 q 497 399 611 401 q 293 394 383 396 l 289 446 m 883 493 l 924 522 q 1013 452 968 493 q 1081 382 1058 411 l 1039 347 q 969 422 1014 379 q 883 493 924 464 m 658 1004 l 719 1004 l 719 431 l 658 425 l 658 1004 m 147 1085 l 1243 1085 l 1243 -94 l 1178 -94 l 1178 1026 l 210 1026 l 210 -104 l 147 -104 l 147 1085 m 179 31 l 1207 31 l 1207 -28 l 179 -28 l 179 31 z "},"土":{"ha":1389,"x_min":78,"x_max":1313,"o":"m 165 703 l 1225 703 l 1225 636 l 165 636 l 165 703 m 78 26 l 1313 26 l 1313 -39 l 78 -39 l 78 26 m 657 1153 l 726 1153 l 726 -11 l 657 -11 l 657 1153 z "},"在":{"ha":1389,"x_min":65,"x_max":1299,"o":"m 93 931 l 1297 931 l 1297 865 l 93 865 l 93 931 m 511 497 l 1244 497 l 1244 433 l 511 433 l 511 497 m 456 -7 l 1299 -7 l 1299 -71 l 456 -71 l 456 -7 m 842 786 l 908 786 l 908 -42 l 842 -42 l 842 786 m 561 1158 l 629 1142 q 510 836 582 988 q 338 553 438 685 q 104 322 238 421 q 93 341 100 331 q 78 363 86 351 q 65 379 71 374 q 238 538 160 449 q 376 730 315 628 q 484 941 438 832 q 561 1158 531 1050 m 288 592 l 354 592 l 354 -97 l 288 -97 l 288 592 z "},"地":{"ha":1389,"x_min":56,"x_max":1328,"o":"m 79 818 l 485 818 l 485 753 l 79 753 l 79 818 m 257 1144 l 322 1144 l 322 254 l 257 254 l 257 1144 m 56 204 q 182 254 111 225 q 333 317 253 283 q 492 385 413 351 l 507 324 q 283 224 394 274 q 83 138 172 175 l 56 204 m 897 1160 l 961 1160 l 961 199 l 897 199 l 897 1160 m 444 578 l 1210 899 l 1236 842 l 471 518 l 444 578 m 603 1032 l 668 1032 l 668 85 q 677 28 668 49 q 711 1 686 8 q 785 -7 736 -7 q 835 -7 799 -7 q 918 -7 871 -7 q 1013 -7 965 -7 q 1099 -7 1061 -7 q 1157 -7 1138 -7 q 1222 10 1200 -7 q 1252 74 1243 28 q 1265 204 1261 119 q 1297 188 1279 194 q 1328 178 1314 181 q 1308 30 1322 83 q 1258 -47 1293 -24 q 1156 -69 1224 -69 q 1108 -69 1146 -69 q 1021 -69 1071 -69 q 920 -69 971 -69 q 833 -69 869 -69 q 788 -69 796 -69 q 676 -56 717 -69 q 619 -9 635 -43 q 603 88 603 25 l 603 1032 m 1190 868 l 1175 868 l 1210 899 l 1263 881 l 1257 867 q 1238 656 1250 768 q 1211 438 1226 543 q 1176 257 1196 333 l 1121 274 q 1144 401 1133 329 q 1163 554 1154 474 q 1179 716 1172 635 q 1190 868 1186 797 z "},"型":{"ha":1389,"x_min":67,"x_max":1324,"o":"m 149 1099 l 771 1099 l 771 1036 l 149 1036 l 149 1099 m 103 819 l 799 819 l 799 757 l 103 757 l 103 819 m 67 11 l 1324 11 l 1324 -53 l 67 -53 l 67 11 m 214 289 l 1174 289 l 1174 226 l 214 226 l 214 289 m 560 1071 l 624 1071 l 624 442 l 560 442 l 560 1071 m 674 471 l 740 471 l 740 -28 l 674 -28 l 674 471 m 901 1081 l 965 1081 l 965 618 l 901 618 l 901 1081 m 1164 1156 l 1228 1156 l 1228 517 q 1219 466 1228 482 q 1182 440 1210 450 q 1106 430 1156 432 q 981 428 1057 428 q 972 461 979 443 q 956 493 965 479 q 1072 491 1024 492 q 1136 492 1119 490 q 1159 499 1154 493 q 1164 518 1164 504 l 1164 1156 m 292 1069 l 354 1069 l 354 840 q 339 693 354 771 q 279 541 324 615 q 147 407 235 467 q 134 424 143 415 q 117 442 125 433 q 101 456 108 451 q 224 576 185 511 q 278 710 264 642 q 292 842 292 779 l 292 1069 z "},"基":{"ha":1389,"x_min":60,"x_max":1335,"o":"m 133 1007 l 1258 1007 l 1258 947 l 133 947 l 133 1007 m 174 -6 l 1219 -6 l 1219 -67 l 174 -67 l 174 -6 m 397 835 l 993 835 l 993 779 l 397 779 l 397 835 m 397 663 l 993 663 l 993 604 l 397 604 l 397 663 m 75 483 l 1315 483 l 1315 422 l 75 422 l 75 483 m 351 236 l 1039 236 l 1039 175 l 351 175 l 351 236 m 357 1158 l 424 1158 l 424 449 l 357 449 l 357 1158 m 971 1158 l 1038 1158 l 1038 449 l 971 449 l 971 1158 m 658 369 l 725 369 l 725 -37 l 658 -37 l 658 369 m 424 467 l 479 446 q 378 310 440 375 q 246 192 317 244 q 106 104 175 139 q 93 123 101 114 q 76 141 85 132 q 60 157 68 150 q 198 233 129 185 q 326 343 267 282 q 424 467 385 404 m 971 467 q 1065 349 1007 406 q 1192 248 1122 293 q 1335 176 1263 203 q 1319 162 1328 171 q 1302 142 1310 153 q 1289 124 1294 132 q 1144 205 1215 154 q 1015 317 1074 256 q 918 447 957 379 l 971 467 z "},"報":{"ha":1389,"x_min":72,"x_max":1339,"o":"m 765 624 l 1238 624 l 1238 564 l 765 564 l 765 624 m 732 1092 l 1215 1092 l 1215 1028 l 796 1028 l 796 -100 l 732 -100 l 732 1092 m 1189 1092 l 1253 1092 l 1253 819 q 1244 774 1253 790 q 1207 749 1235 757 q 1129 738 1181 740 q 994 736 1078 736 q 986 768 993 751 q 971 797 979 785 q 1058 795 1019 796 q 1124 795 1097 794 q 1161 797 1150 796 q 1184 803 1179 799 q 1189 819 1189 808 l 1189 1092 m 878 597 q 983 333 917 460 q 1140 111 1050 207 q 1339 -37 1231 15 q 1313 -64 1326 -47 q 1289 -96 1299 -81 q 1089 68 1179 -35 q 931 303 999 171 q 821 582 863 435 l 878 597 m 1215 624 l 1228 624 l 1242 626 l 1285 610 q 1194 328 1256 464 q 1042 81 1133 192 q 831 -106 951 -31 q 809 -82 822 -94 q 783 -60 796 -69 q 987 116 899 8 q 1133 351 1075 224 q 1215 606 1190 478 l 1215 624 m 117 1006 l 633 1006 l 633 943 l 117 943 l 117 1006 m 72 260 l 672 260 l 672 199 l 72 199 l 72 260 m 74 778 l 668 778 l 668 717 l 74 717 l 74 778 m 101 497 l 646 497 l 646 438 l 101 438 l 101 497 m 344 1158 l 408 1158 l 408 758 l 344 758 l 344 1158 m 344 475 l 408 475 l 408 -97 l 344 -97 l 344 475 m 525 708 l 588 690 q 524 570 558 632 q 456 464 489 508 l 401 482 q 447 553 424 513 q 492 634 471 593 q 525 708 513 675 m 174 685 l 225 701 q 274 610 251 660 q 303 525 296 560 l 249 504 q 219 592 240 540 q 174 685 199 643 z "},"場":{"ha":1389,"x_min":56,"x_max":1326,"o":"m 454 582 l 1326 582 l 1326 519 l 454 519 l 454 582 m 614 406 l 1239 406 l 1239 346 l 614 346 l 614 406 m 690 558 l 750 542 q 608 333 696 429 q 425 171 519 236 q 412 186 421 178 q 394 203 403 194 q 376 215 385 211 q 556 365 472 275 q 690 558 640 454 m 1224 406 l 1289 406 q 1288 393 1289 406 q 1286 372 1288 381 q 1263 133 1275 224 q 1236 -4 1250 43 q 1203 -72 1222 -51 q 1171 -93 1188 -87 q 1131 -100 1154 -99 q 1072 -101 1108 -101 q 994 -97 1035 -100 q 989 -67 993 -85 q 978 -39 985 -50 q 1056 -44 1021 -43 q 1107 -44 1092 -44 q 1133 -42 1122 -44 q 1150 -31 1143 -40 q 1178 30 1165 -15 q 1202 163 1190 75 q 1224 393 1214 250 l 1224 406 m 663 868 l 663 732 l 1161 732 l 1161 868 l 663 868 m 663 1058 l 663 924 l 1161 924 l 1161 1058 l 663 1058 m 599 1114 l 1225 1114 l 1225 675 l 599 675 l 599 1114 m 81 853 l 483 853 l 483 788 l 81 788 l 81 853 m 256 1151 l 321 1151 l 321 303 l 256 303 l 256 1151 m 56 233 q 178 288 110 256 q 324 356 246 319 q 481 431 401 393 l 496 369 q 279 262 388 315 q 85 167 171 208 l 56 233 m 1036 394 l 1085 369 q 1015 186 1060 278 q 913 17 969 94 q 790 -108 856 -60 q 767 -87 782 -99 q 739 -68 753 -75 q 862 51 803 -24 q 966 217 921 126 q 1036 394 1011 307 m 814 390 l 864 363 q 771 206 828 285 q 646 61 714 128 q 508 -50 578 -6 q 488 -26 500 -39 q 461 -4 475 -12 q 599 98 531 35 q 724 238 667 161 q 814 390 781 314 z "},"增":{"ha":1389,"x_min":68,"x_max":1246,"o":"m 81 815 l 458 815 l 458 751 l 81 751 l 81 815 m 243 1144 l 308 1144 l 308 214 l 243 214 l 243 1144 m 68 163 q 248 227 143 188 q 461 308 353 267 l 472 246 q 272 167 371 206 q 90 96 172 128 l 68 163 m 626 1128 l 682 1153 q 742 1074 713 1117 q 785 1001 771 1032 l 725 971 q 683 1047 711 1003 q 626 1128 654 1092 m 1089 1161 l 1157 1133 q 1085 1025 1124 1082 q 1011 928 1046 968 l 960 950 q 1006 1016 982 979 q 1053 1092 1031 1053 q 1089 1161 1075 1131 m 858 933 l 915 933 l 915 544 l 858 544 l 858 933 m 636 208 l 1144 208 l 1144 153 l 636 153 l 636 208 m 635 26 l 1142 26 l 1142 -31 l 635 -31 l 635 26 m 597 406 l 1175 406 l 1175 -97 l 1110 -97 l 1110 349 l 661 349 l 661 -97 l 597 -97 l 597 406 m 581 901 l 581 564 l 1185 564 l 1185 901 l 581 901 m 521 956 l 1246 956 l 1246 510 l 521 510 l 521 956 m 643 833 l 686 851 q 751 749 721 806 q 794 653 782 693 l 747 631 q 706 729 735 672 q 643 833 676 786 m 1083 851 l 1135 829 q 1067 720 1104 776 q 999 625 1031 664 l 958 644 q 1003 708 979 672 q 1048 783 1026 744 q 1083 851 1069 821 z "},"壓":{"ha":1389,"x_min":49,"x_max":1317,"o":"m 190 1090 l 1293 1090 l 1293 1033 l 190 1033 l 190 1090 m 774 767 l 1289 767 l 1289 708 l 774 708 l 774 767 m 318 186 l 1210 186 l 1210 129 l 318 129 l 318 186 m 221 -8 l 1304 -8 l 1304 -64 l 221 -64 l 221 -8 m 735 271 l 800 271 l 800 -42 l 735 -42 l 735 271 m 161 1090 l 222 1090 l 222 601 q 219 439 222 526 q 202 261 215 351 q 165 86 189 171 q 101 -71 142 1 q 87 -58 97 -65 q 67 -46 76 -51 q 49 -36 57 -40 q 110 114 88 33 q 143 279 132 194 q 158 446 154 364 q 161 601 161 528 l 161 1090 m 367 829 l 367 772 l 665 772 l 665 829 l 367 829 m 367 929 l 367 874 l 665 874 l 665 929 l 367 929 m 311 976 l 722 976 l 722 726 l 311 726 l 311 976 m 682 665 l 740 665 l 740 350 q 735 314 740 326 q 707 293 729 301 q 648 286 686 288 q 549 285 610 285 q 540 308 546 296 q 528 332 535 321 q 615 331 578 331 q 661 331 651 331 q 678 335 674 332 q 682 349 682 339 l 682 665 m 1092 943 l 1138 969 q 1211 897 1174 938 q 1268 824 1249 856 l 1221 794 q 1166 867 1203 825 q 1092 943 1129 910 m 1057 739 q 1147 485 1083 596 q 1317 325 1211 374 q 1293 301 1306 317 q 1274 274 1281 286 q 1099 453 1164 333 q 1004 726 1033 574 l 1057 739 m 983 988 l 1040 988 l 1040 793 q 1032 663 1040 729 q 998 529 1024 596 q 922 400 972 463 q 786 282 871 338 q 766 303 779 292 q 742 322 753 315 q 871 434 822 375 q 944 555 919 493 q 976 677 968 617 q 983 793 983 738 l 983 988 m 317 665 l 710 665 l 710 617 l 317 617 l 317 665 m 286 665 l 343 665 l 343 503 q 340 427 343 468 q 324 346 336 386 q 286 271 313 306 q 274 285 282 278 q 257 300 265 293 q 242 311 249 307 q 279 406 272 354 q 286 506 286 458 l 286 665 m 333 413 q 503 444 406 425 q 704 483 600 464 l 710 442 q 524 401 615 421 q 354 365 432 382 l 333 413 m 368 546 l 383 582 q 474 565 426 575 q 565 546 521 556 q 639 526 610 536 l 626 485 q 551 506 596 494 q 460 527 507 517 q 368 546 413 538 z "},"外":{"ha":1389,"x_min":67,"x_max":1331,"o":"m 311 940 l 657 940 l 657 876 l 311 876 l 311 940 m 867 1160 l 936 1160 l 936 -100 l 867 -100 l 867 1160 m 188 660 l 233 699 q 347 606 289 657 q 455 505 406 556 q 535 413 504 454 l 488 368 q 408 461 457 410 q 301 565 358 513 q 188 660 243 618 m 346 1160 l 413 1147 q 341 897 383 1017 q 245 676 299 778 q 126 494 192 574 q 110 509 121 501 q 88 525 99 517 q 68 538 76 533 q 188 709 135 611 q 280 922 240 807 q 346 1160 319 1038 m 639 940 l 651 940 l 665 943 l 711 929 q 588 458 672 658 q 385 122 503 258 q 122 -97 267 -14 q 106 -78 117 -89 q 85 -57 96 -67 q 67 -43 75 -47 q 326 165 210 35 q 524 482 443 294 q 639 924 604 669 l 639 940 m 911 694 l 960 736 q 1097 635 1025 690 q 1230 524 1168 579 q 1331 425 1292 468 l 1278 376 q 1178 477 1239 421 q 1047 591 1117 533 q 911 694 978 649 z "},"多":{"ha":1389,"x_min":100,"x_max":1299,"o":"m 358 875 l 403 917 q 522 856 461 890 q 638 784 583 821 q 725 714 692 747 l 676 667 q 591 737 644 700 q 477 810 538 774 q 358 875 417 847 m 1010 1035 l 1024 1035 l 1038 1038 l 1081 1010 q 906 794 1013 892 q 669 621 799 696 q 401 492 539 546 q 133 410 263 439 q 119 442 129 424 q 100 471 110 461 q 360 546 226 497 q 620 666 494 594 q 847 826 746 738 q 1010 1022 949 915 l 1010 1035 m 529 1035 l 1028 1035 l 1028 974 l 529 974 l 529 1035 m 649 1160 l 728 1143 q 494 938 638 1039 q 158 758 351 836 q 146 777 154 767 q 128 796 138 788 q 110 811 118 804 q 341 916 238 857 q 522 1038 444 975 q 649 1160 600 1101 m 529 376 l 581 415 q 708 344 642 385 q 830 260 774 303 q 924 181 886 218 l 869 135 q 778 215 835 172 q 656 301 721 258 q 529 376 592 343 m 1228 561 l 1242 561 l 1256 564 l 1299 538 q 1119 278 1232 389 q 861 90 1006 167 q 555 -34 717 14 q 228 -107 393 -82 q 216 -75 225 -93 q 197 -46 207 -57 q 515 20 357 -25 q 811 137 672 65 q 1058 311 950 208 q 1228 549 1167 414 l 1228 561 m 751 561 l 1246 561 l 1246 500 l 751 500 l 751 561 m 872 688 l 950 671 q 685 447 850 556 q 292 258 521 338 q 280 276 288 267 q 265 295 272 286 q 249 311 257 304 q 518 421 397 358 q 728 553 639 483 q 872 688 818 622 z "},"大":{"ha":1389,"x_min":64,"x_max":1322,"o":"m 92 744 l 1304 744 l 1304 678 l 92 678 l 92 744 m 746 718 q 875 396 794 546 q 1068 134 956 246 q 1322 -40 1181 22 q 1305 -58 1314 -47 q 1287 -81 1296 -69 q 1272 -101 1278 -92 q 1012 87 1126 -32 q 815 362 897 206 q 681 701 733 518 l 746 718 m 665 1157 l 736 1157 q 730 969 735 1075 q 708 746 725 864 q 654 506 692 628 q 549 272 617 385 q 375 63 481 160 q 115 -101 269 -35 q 92 -74 107 -89 q 64 -49 78 -58 q 319 109 215 17 q 488 310 422 201 q 590 536 554 419 q 642 767 626 653 q 661 981 657 881 q 665 1157 665 1081 z "},"天":{"ha":1389,"x_min":68,"x_max":1331,"o":"m 736 582 q 956 188 806 351 q 1331 -46 1106 24 q 1315 -62 1324 -53 q 1298 -83 1306 -72 q 1286 -104 1290 -94 q 1015 42 1133 -53 q 811 269 896 136 q 675 564 726 401 l 736 582 m 142 1043 l 1240 1043 l 1240 976 l 142 976 l 142 1043 m 94 611 l 1303 611 l 1303 543 l 94 543 l 94 611 m 651 1021 l 721 1021 l 721 797 q 711 617 721 711 q 669 427 701 524 q 569 237 636 331 q 392 57 503 143 q 113 -104 281 -29 q 101 -85 108 -94 q 85 -65 93 -75 q 68 -49 76 -56 q 338 104 231 22 q 508 274 444 186 q 602 452 571 363 q 642 630 633 542 q 651 799 651 718 l 651 1021 z "},"太":{"ha":1389,"x_min":63,"x_max":1340,"o":"m 89 776 l 1304 776 l 1304 710 l 89 710 l 89 776 m 496 204 l 547 242 q 656 151 600 201 q 761 53 713 101 q 839 -33 810 6 l 783 -81 q 706 9 754 -40 q 603 110 658 58 q 496 204 549 161 m 754 747 q 882 407 801 564 q 1077 133 963 250 q 1340 -47 1192 17 q 1322 -65 1332 -54 q 1303 -86 1311 -75 q 1289 -107 1296 -97 q 1022 87 1138 -36 q 823 373 906 210 q 690 731 740 536 l 754 747 m 660 1157 l 731 1157 q 726 961 731 1069 q 704 734 721 853 q 649 495 688 615 q 544 264 611 375 q 371 58 476 153 q 113 -103 265 -36 q 90 -75 104 -90 q 63 -50 75 -60 q 316 103 213 13 q 485 302 419 194 q 585 525 550 410 q 637 754 621 640 q 656 972 653 868 q 660 1157 660 1075 z "},"她":{"ha":1389,"x_min":56,"x_max":1328,"o":"m 533 621 l 1232 888 l 1251 831 l 553 563 l 533 621 m 939 1156 l 1001 1156 l 1001 224 l 939 224 l 939 1156 m 676 1029 l 740 1029 l 740 68 q 748 15 740 33 q 778 -10 756 -3 q 842 -18 800 -18 q 886 -18 854 -18 q 959 -18 918 -18 q 1042 -18 1000 -18 q 1118 -18 1083 -18 q 1169 -18 1153 -18 q 1227 1 1208 -18 q 1254 67 1246 19 q 1265 201 1263 114 q 1296 185 1279 192 q 1328 174 1313 178 q 1308 22 1322 78 q 1263 -58 1294 -35 q 1167 -82 1231 -82 q 1126 -82 1158 -82 q 1049 -82 1093 -82 q 961 -82 1006 -82 q 885 -82 917 -82 q 843 -82 853 -82 q 743 -69 779 -82 q 692 -24 707 -57 q 676 69 676 8 l 676 1029 m 1211 865 l 1196 865 l 1231 897 l 1282 881 l 1279 867 q 1274 661 1278 771 q 1263 448 1269 551 q 1246 268 1257 344 l 1190 283 q 1202 458 1197 357 q 1209 667 1207 560 q 1211 865 1211 774 m 88 394 l 126 440 q 242 351 183 400 q 356 251 300 301 q 458 154 411 201 q 535 68 504 107 l 492 13 q 414 103 460 54 q 314 203 368 151 q 201 303 260 254 q 88 394 143 353 m 88 394 q 131 559 108 465 q 174 757 153 653 q 211 965 194 861 q 238 1157 228 1068 l 299 1153 q 270 956 288 1061 q 232 747 253 851 q 189 547 211 642 q 146 381 167 453 l 88 394 m 418 961 l 479 961 l 479 790 q 473 622 479 710 q 447 440 467 533 q 387 254 428 347 q 278 72 346 161 q 107 -100 210 -18 q 94 -85 103 -93 q 76 -70 85 -78 q 60 -58 67 -62 q 258 149 186 40 q 365 369 331 257 q 408 588 399 481 q 418 790 418 696 l 418 961 m 56 840 q 202 847 121 843 q 375 855 283 850 q 561 865 467 860 l 560 804 q 296 788 426 796 q 65 775 165 781 l 56 840 z "},"好":{"ha":1389,"x_min":61,"x_max":1326,"o":"m 660 1046 l 1213 1046 l 1213 983 l 660 983 l 660 1046 m 593 558 l 1326 558 l 1326 494 l 593 494 l 593 558 m 932 736 l 1000 736 l 1000 -12 q 989 -65 1000 -47 q 950 -92 978 -83 q 876 -102 924 -100 q 746 -103 828 -104 q 735 -72 743 -90 q 719 -39 726 -54 q 801 -41 764 -40 q 866 -41 839 -42 q 904 -40 893 -40 q 926 -33 919 -39 q 932 -12 932 -26 l 932 736 m 1190 1046 l 1207 1046 l 1222 1051 l 1272 1017 q 1185 901 1235 960 q 1081 788 1135 842 q 976 694 1028 735 q 956 716 969 704 q 932 736 943 728 q 1028 824 979 772 q 1119 929 1076 875 q 1190 1029 1163 983 l 1190 1046 m 104 396 l 144 443 q 273 351 207 400 q 401 251 339 303 q 516 149 464 199 q 604 60 568 100 l 561 3 q 473 95 525 44 q 359 199 421 146 q 231 302 297 251 q 104 396 165 353 m 104 396 q 151 559 126 465 q 197 757 175 653 q 238 964 219 861 q 265 1156 256 1067 l 331 1151 q 300 955 319 1060 q 258 745 281 850 q 212 547 236 640 q 167 381 188 453 l 104 396 m 492 958 l 556 958 l 556 840 q 549 666 556 760 q 519 473 542 572 q 449 274 496 374 q 321 78 401 174 q 117 -106 240 -18 q 103 -89 113 -97 q 85 -73 94 -81 q 68 -61 76 -65 q 265 116 188 24 q 389 304 343 208 q 457 494 435 400 q 485 676 479 589 q 492 842 492 764 l 492 958 m 61 826 q 226 834 133 829 q 425 845 319 839 q 639 857 531 851 l 639 793 q 333 776 483 785 q 69 760 183 768 l 61 826 z "},"如":{"ha":1389,"x_min":53,"x_max":1240,"o":"m 789 101 l 1208 101 l 1208 36 l 789 36 l 789 101 m 761 1006 l 1240 1006 l 1240 -49 l 1174 -49 l 1174 940 l 825 940 l 825 -69 l 761 -69 l 761 1006 m 129 396 l 172 440 q 305 347 236 397 q 438 242 374 296 q 558 138 503 189 q 649 46 613 88 l 601 -8 q 511 85 565 33 q 393 192 457 138 q 261 299 329 247 q 129 396 193 351 m 129 396 q 174 559 150 465 q 219 756 197 653 q 258 963 240 860 q 285 1154 275 1067 l 353 1150 q 324 953 342 1058 q 283 744 306 849 q 238 546 261 640 q 194 381 215 451 l 129 396 m 565 967 l 632 967 l 632 800 q 624 626 632 718 q 587 439 615 535 q 501 249 558 343 q 347 65 444 154 q 103 -104 250 -25 q 90 -87 99 -96 q 73 -69 82 -78 q 56 -56 64 -60 q 292 106 199 21 q 441 281 386 190 q 523 461 496 371 q 558 638 550 551 q 565 800 565 724 l 565 967 m 53 871 q 237 878 132 874 q 460 890 342 883 q 699 903 578 896 l 697 840 q 467 826 582 833 q 249 813 353 818 q 61 801 144 807 l 53 871 z "},"始":{"ha":1389,"x_min":49,"x_max":1333,"o":"m 693 22 l 1217 22 l 1217 -39 l 693 -39 l 693 22 m 653 451 l 1247 451 l 1247 -99 l 1183 -99 l 1183 388 l 717 388 l 717 -104 l 653 -104 l 653 451 m 1043 929 l 1096 954 q 1190 824 1143 893 q 1274 687 1236 754 q 1333 567 1313 619 l 1276 538 q 1217 660 1256 592 q 1134 799 1179 728 q 1043 929 1089 869 m 596 583 q 592 603 596 590 q 583 628 588 615 q 574 651 578 642 q 614 678 592 654 q 663 742 636 703 q 704 803 676 761 q 767 903 732 846 q 838 1028 803 961 q 901 1161 874 1094 l 971 1139 q 871 951 924 1043 q 763 775 818 858 q 651 624 708 692 l 651 622 q 643 619 651 622 q 624 609 635 615 q 605 596 614 603 q 596 583 596 589 m 596 583 l 596 639 l 644 665 l 1251 703 q 1258 671 1254 688 q 1265 643 1261 654 q 976 622 1092 629 q 788 608 860 614 q 679 598 717 601 q 624 590 642 594 q 596 583 607 586 m 104 396 l 143 442 q 262 356 200 403 q 383 263 324 310 q 491 169 442 215 q 572 85 540 124 l 529 32 q 448 117 497 71 q 341 213 399 164 q 222 309 283 263 q 104 396 161 356 m 104 396 q 154 559 128 465 q 205 756 181 653 q 249 963 229 860 q 281 1154 269 1067 l 343 1150 q 310 954 331 1058 q 265 745 289 850 q 214 547 240 640 q 164 382 188 453 l 104 396 m 446 961 l 510 961 l 510 790 q 503 621 510 710 q 474 439 496 532 q 408 251 453 346 q 287 67 363 157 q 97 -103 211 -22 q 84 -87 93 -96 q 66 -71 75 -79 q 49 -58 57 -62 q 268 148 188 39 q 387 369 349 257 q 435 588 425 481 q 446 790 446 696 l 446 961 m 56 826 q 206 834 122 829 q 385 844 290 839 q 578 853 481 849 l 576 793 q 303 776 439 785 q 65 763 168 768 l 56 826 z "},"委":{"ha":1389,"x_min":57,"x_max":1340,"o":"m 68 396 l 1322 396 l 1322 335 l 68 335 l 68 396 m 1049 500 l 1113 479 q 1001 238 1075 339 q 812 66 928 136 q 532 -44 696 -4 q 149 -101 368 -83 q 138 -69 146 -86 q 119 -39 129 -51 q 493 12 335 -25 q 761 113 651 49 q 940 273 871 178 q 1049 500 1010 368 m 83 869 l 1306 869 l 1306 808 l 83 808 l 83 869 m 658 1074 l 725 1074 l 725 508 l 658 508 l 658 1074 m 613 856 l 668 829 q 554 719 621 772 q 411 619 488 665 q 256 536 335 574 q 101 475 176 499 q 81 504 93 488 q 57 529 68 521 q 210 586 131 553 q 364 663 289 619 q 503 754 439 706 q 613 856 567 803 m 1103 1156 l 1156 1106 q 952 1070 1067 1086 q 708 1042 838 1054 q 448 1022 579 1031 q 193 1010 317 1014 q 188 1038 193 1021 q 178 1065 183 1054 q 428 1077 299 1069 q 684 1097 558 1085 q 918 1123 810 1108 q 1103 1156 1026 1138 m 282 156 l 339 200 q 614 143 478 174 q 876 80 750 113 q 1112 14 1001 47 q 1308 -50 1222 -19 l 1243 -100 q 985 -15 1136 -58 q 656 73 835 29 q 282 156 476 117 m 282 156 q 388 275 332 207 q 494 417 443 343 q 582 556 546 490 l 649 536 q 563 400 613 471 q 460 265 513 329 q 364 156 408 200 l 282 156 m 774 756 l 810 797 q 950 735 876 769 q 1096 666 1024 701 q 1231 597 1168 631 q 1340 536 1294 564 l 1304 485 q 1197 547 1260 513 q 1063 617 1135 581 q 916 690 990 654 q 774 756 842 725 z "},"子":{"ha":1389,"x_min":75,"x_max":1319,"o":"m 75 532 l 1319 532 l 1319 465 l 75 465 l 75 532 m 214 1057 l 1139 1057 l 1139 990 l 214 990 l 214 1057 m 1115 1057 l 1132 1057 l 1149 1061 l 1199 1024 q 1052 901 1136 963 q 878 785 968 839 q 710 692 789 731 q 696 708 704 700 q 679 725 688 717 q 664 739 671 733 q 828 826 743 775 q 990 934 914 878 q 1115 1042 1067 990 l 1115 1057 m 664 739 l 733 739 l 733 -1 q 719 -62 733 -43 q 671 -90 706 -82 q 574 -101 639 -99 q 404 -104 508 -104 q 397 -83 403 -94 q 387 -58 392 -71 q 375 -33 382 -44 q 488 -37 436 -36 q 575 -37 539 -37 q 626 -36 611 -36 q 656 -26 649 -33 q 664 -1 664 -19 l 664 739 z "},"存":{"ha":1389,"x_min":53,"x_max":1326,"o":"m 454 363 l 1326 363 l 1326 299 l 454 299 l 454 363 m 579 728 l 1175 728 l 1175 664 l 579 664 l 579 728 m 861 488 l 928 488 l 928 -10 q 917 -64 928 -46 q 878 -92 907 -82 q 791 -101 849 -100 q 640 -100 733 -101 q 630 -69 636 -86 q 615 -37 624 -51 q 712 -40 668 -39 q 786 -40 756 -40 q 831 -37 817 -39 q 856 -31 850 -36 q 861 -10 861 -25 l 861 488 m 1156 728 l 1172 728 l 1186 731 l 1231 699 q 1133 605 1189 651 q 1017 518 1078 558 q 900 447 957 478 q 882 468 894 457 q 861 488 869 479 q 970 553 914 515 q 1076 634 1026 592 q 1156 714 1125 676 l 1156 728 m 93 976 l 1297 976 l 1297 913 l 93 913 l 93 976 m 549 1158 l 617 1142 q 498 836 571 988 q 325 552 425 685 q 92 322 225 419 q 81 341 88 331 q 66 362 74 351 q 53 379 58 372 q 225 538 147 449 q 365 729 303 626 q 473 941 426 832 q 549 1158 519 1050 m 278 597 l 344 597 l 344 -100 l 278 -100 l 278 597 z "},"學":{"ha":1389,"x_min":81,"x_max":1314,"o":"m 81 242 l 1314 242 l 1314 181 l 81 181 l 81 242 m 331 490 l 1017 490 l 1017 435 l 331 435 l 331 490 m 674 315 l 740 315 l 740 -18 q 731 -65 740 -49 q 693 -89 721 -81 q 615 -98 667 -97 q 476 -99 563 -99 q 466 -70 474 -86 q 451 -40 458 -54 q 540 -42 500 -42 q 607 -42 579 -43 q 646 -42 635 -42 q 668 -36 663 -42 q 674 -17 674 -31 l 674 315 m 1000 490 l 1017 490 l 1032 494 l 1074 460 q 965 388 1026 422 q 839 326 904 354 q 711 276 774 297 q 694 297 704 286 q 674 315 683 308 q 794 360 733 333 q 910 417 856 386 q 1000 476 965 449 l 1000 490 m 114 663 l 1281 663 l 1281 428 l 1214 428 l 1214 606 l 179 606 l 179 428 l 114 428 l 114 663 m 1136 1103 l 1200 1103 q 1190 939 1196 1026 q 1178 769 1185 851 q 1164 628 1171 686 l 1099 628 q 1115 771 1107 688 q 1128 942 1122 854 q 1136 1103 1133 1029 m 890 1103 l 1164 1103 l 1164 1049 l 890 1049 l 890 1103 m 464 1143 l 499 1099 q 365 1062 440 1076 q 228 1039 289 1047 l 201 1081 q 289 1099 240 1088 q 384 1122 338 1110 q 464 1143 431 1135 m 242 957 l 490 957 l 490 904 l 242 904 l 242 957 m 250 811 l 499 811 l 499 758 l 250 758 l 250 811 m 897 957 l 1156 957 l 1156 904 l 897 904 l 897 957 m 889 811 l 1142 811 l 1142 758 l 889 758 l 889 811 m 771 1143 l 824 1129 q 705 1008 776 1065 q 564 911 633 950 q 543 930 557 918 q 519 949 529 942 q 660 1035 592 985 q 771 1143 728 1086 m 544 1086 l 582 1122 q 680 1074 629 1101 q 776 1019 731 1047 q 850 964 822 990 l 813 924 q 740 980 783 950 q 644 1038 696 1010 q 544 1086 593 1065 m 775 910 l 828 893 q 703 768 778 828 q 554 668 629 708 q 535 689 549 676 q 513 708 521 701 q 658 797 586 744 q 775 910 731 850 m 542 857 l 579 890 q 680 839 628 868 q 778 778 732 810 q 853 718 824 747 l 813 678 q 740 739 785 707 q 643 802 694 771 q 542 857 592 833 m 201 1081 l 268 1061 l 296 629 l 232 629 l 201 1081 z "},"它":{"ha":1389,"x_min":126,"x_max":1258,"o":"m 1019 635 l 1079 583 q 876 495 992 539 q 635 413 761 451 q 385 339 508 374 q 375 366 382 350 q 361 393 368 382 q 604 466 481 426 q 837 549 728 506 q 1019 635 946 593 m 329 749 l 399 749 l 399 86 q 410 32 399 51 q 453 5 421 13 q 547 -3 486 -3 q 611 -3 565 -3 q 717 -3 657 -3 q 838 -3 776 -3 q 948 -3 899 -3 q 1022 -3 997 -3 q 1106 15 1078 -3 q 1147 81 1135 32 q 1164 222 1158 131 q 1185 211 1174 217 q 1209 201 1197 206 q 1231 193 1221 196 q 1205 35 1222 92 q 1145 -45 1188 -22 q 1019 -68 1103 -68 q 974 -68 1010 -68 q 890 -68 939 -68 q 786 -68 840 -68 q 682 -68 732 -68 q 597 -68 632 -68 q 554 -68 563 -68 q 419 -56 468 -68 q 350 -10 371 -43 q 329 86 329 24 l 329 749 m 126 964 l 1258 964 l 1258 697 l 1189 697 l 1189 899 l 193 899 l 193 697 l 126 697 l 126 964 m 604 1149 l 669 1168 q 726 1069 697 1124 q 768 978 756 1015 l 701 956 q 662 1048 689 993 q 604 1149 635 1103 z "},"安":{"ha":1389,"x_min":104,"x_max":1292,"o":"m 142 993 l 1246 993 l 1246 728 l 1178 728 l 1178 928 l 208 928 l 208 728 l 142 728 l 142 993 m 967 739 l 1042 731 q 942 389 1008 531 q 769 151 875 247 q 514 -6 664 56 q 163 -104 364 -67 q 151 -85 160 -97 q 134 -60 143 -72 q 117 -42 125 -49 q 464 47 317 -8 q 713 193 611 103 q 876 417 815 283 q 967 739 938 551 m 104 596 l 1292 596 l 1292 531 l 104 531 l 104 596 m 597 1144 l 663 1164 q 720 1066 690 1119 q 765 979 750 1013 l 697 953 q 653 1045 681 990 q 597 1144 625 1100 m 283 318 l 331 371 q 583 285 451 333 q 840 182 714 238 q 1077 69 967 126 q 1265 -42 1188 11 l 1213 -101 q 1029 9 1136 -49 q 796 124 922 67 q 538 231 669 181 q 283 318 407 281 m 283 318 q 365 435 322 369 q 450 574 408 501 q 528 719 492 647 q 592 857 565 792 l 663 843 q 599 704 636 776 q 521 560 563 632 q 440 426 479 489 q 364 315 400 363 l 283 318 z "},"完":{"ha":1389,"x_min":68,"x_max":1322,"o":"m 307 749 l 1083 749 l 1083 685 l 307 685 l 307 749 m 81 489 l 1306 489 l 1306 425 l 81 425 l 81 489 m 475 457 l 543 457 q 515 242 536 335 q 447 83 493 150 q 317 -31 400 15 q 106 -106 235 -76 q 97 -86 104 -96 q 83 -67 90 -76 q 68 -51 75 -57 q 269 16 192 -25 q 388 117 346 57 q 450 262 431 178 q 475 457 469 346 m 818 450 l 885 450 l 885 29 q 899 -6 885 3 q 960 -15 913 -15 q 1001 -15 971 -15 q 1069 -15 1032 -15 q 1140 -15 1107 -15 q 1188 -15 1172 -15 q 1231 -3 1217 -15 q 1251 51 1246 10 q 1258 178 1257 93 q 1278 167 1267 172 q 1301 157 1289 161 q 1322 149 1313 153 q 1306 8 1318 58 q 1268 -62 1294 -43 q 1192 -81 1242 -81 q 1149 -81 1183 -81 q 1074 -81 1115 -81 q 999 -81 1032 -81 q 957 -81 965 -81 q 873 -72 903 -81 q 831 -38 843 -62 q 818 29 818 -14 l 818 450 m 122 990 l 1263 990 l 1263 704 l 1194 704 l 1194 924 l 190 924 l 190 704 l 122 704 l 122 990 m 599 1150 l 664 1171 q 724 1070 694 1125 q 768 976 753 1015 l 699 954 q 658 1048 686 992 q 599 1150 629 1104 z "},"定":{"ha":1389,"x_min":60,"x_max":1328,"o":"m 283 729 l 1118 729 l 1118 664 l 283 664 l 283 729 m 693 400 l 1160 400 l 1160 336 l 693 336 l 693 400 m 658 704 l 726 704 l 726 -18 l 658 -7 l 658 704 m 331 524 l 399 515 q 300 151 368 307 q 114 -108 232 -6 q 100 -93 110 -101 q 79 -76 90 -85 q 60 -64 68 -68 q 242 180 178 31 q 331 524 306 329 m 356 342 q 456 159 394 229 q 599 52 517 89 q 779 1 681 15 q 992 -12 878 -12 q 1035 -12 1003 -12 q 1111 -12 1068 -12 q 1198 -12 1154 -12 q 1277 -12 1242 -12 q 1328 -12 1313 -12 q 1317 -33 1322 -21 q 1307 -58 1311 -44 q 1300 -79 1303 -71 l 1232 -79 l 989 -79 q 756 -63 863 -79 q 563 -6 649 -47 q 412 115 478 36 q 301 317 346 193 l 356 342 m 124 997 l 1265 997 l 1265 719 l 1197 719 l 1197 932 l 190 932 l 190 719 l 124 719 l 124 997 m 606 1146 l 671 1165 q 719 1083 694 1128 q 754 1006 744 1038 l 686 983 q 653 1062 676 1015 q 606 1146 631 1108 z "},"家":{"ha":1389,"x_min":97,"x_max":1331,"o":"m 128 1026 l 1271 1026 l 1271 757 l 1203 757 l 1203 964 l 194 964 l 194 757 l 128 757 l 128 1026 m 285 796 l 1103 796 l 1103 735 l 285 735 l 285 796 m 560 640 l 608 669 q 735 512 688 599 q 803 335 783 425 q 822 166 824 246 q 797 26 819 86 q 735 -60 774 -33 q 676 -91 704 -83 q 604 -99 647 -99 q 549 -99 581 -100 q 482 -97 517 -99 q 477 -65 482 -83 q 464 -32 472 -46 q 537 -37 503 -36 q 592 -39 571 -39 q 644 -35 621 -39 q 688 -14 667 -31 q 735 58 717 7 q 756 181 754 110 q 738 332 757 251 q 676 492 719 413 q 560 640 633 572 m 699 782 l 756 757 q 587 632 686 690 q 377 528 488 574 q 163 449 267 482 q 151 466 158 456 q 137 487 144 476 q 122 504 129 497 q 335 574 226 533 q 540 669 444 615 q 699 782 635 722 m 667 526 l 714 494 q 598 415 664 456 q 456 338 532 375 q 304 271 381 301 q 160 218 228 240 q 144 247 154 231 q 122 272 133 263 q 267 319 190 292 q 417 382 343 347 q 556 453 492 417 q 667 526 621 490 m 742 356 l 790 321 q 658 216 735 268 q 492 117 581 164 q 312 33 404 71 q 133 -31 219 -6 q 118 -1 128 -18 q 97 26 108 15 q 274 83 182 47 q 453 163 365 118 q 615 256 540 207 q 742 356 690 306 m 926 454 q 1020 266 961 354 q 1159 111 1079 178 q 1331 10 1239 44 q 1315 -6 1324 3 q 1299 -26 1307 -15 q 1285 -46 1292 -36 q 1108 67 1189 -4 q 967 234 1028 139 q 869 438 906 329 l 926 454 m 1111 663 l 1165 619 q 1041 523 1110 572 q 903 428 972 474 q 772 349 833 383 l 729 386 q 860 469 790 421 q 997 567 931 517 q 1111 663 1064 618 m 600 1144 l 667 1165 q 715 1085 690 1129 q 749 1010 739 1042 l 681 986 q 647 1064 669 1019 q 600 1144 624 1108 z "},"容":{"ha":1389,"x_min":58,"x_max":1324,"o":"m 471 871 l 536 850 q 427 734 488 790 q 301 629 367 678 q 172 543 235 581 q 158 560 167 550 q 139 579 149 569 q 121 594 129 589 q 313 719 218 646 q 471 871 407 792 m 836 831 l 879 869 q 1017 781 946 831 q 1151 683 1089 732 q 1254 593 1214 633 l 1207 546 q 1106 637 1168 586 q 974 739 1044 688 q 836 831 903 790 m 314 354 l 1075 354 l 1075 -97 l 1007 -97 l 1007 292 l 379 292 l 379 -106 l 314 -106 l 314 354 m 349 10 l 1044 10 l 1044 -53 l 349 -53 l 349 10 m 124 1021 l 1265 1021 l 1265 796 l 1197 796 l 1197 958 l 190 958 l 190 796 l 124 796 l 124 1021 m 619 1147 l 685 1165 q 735 1083 711 1128 q 769 1004 758 1038 l 701 985 q 667 1063 690 1018 q 619 1147 643 1108 m 700 753 l 758 725 q 585 522 689 618 q 359 346 482 425 q 106 213 236 267 q 84 240 97 225 q 58 265 71 256 q 309 392 188 317 q 532 560 431 468 q 700 753 633 653 m 717 707 q 991 459 836 557 q 1324 286 1146 361 q 1299 260 1311 276 q 1278 229 1286 244 q 1049 348 1157 285 q 844 493 940 411 q 661 681 747 575 l 717 707 z "},"實":{"ha":1389,"x_min":71,"x_max":1321,"o":"m 119 1032 l 1272 1032 l 1272 822 l 1207 822 l 1207 974 l 183 974 l 183 822 l 119 822 l 119 1032 m 676 871 l 736 871 q 726 733 732 807 q 713 608 719 658 l 651 608 q 667 735 660 661 q 676 871 674 808 m 329 343 l 329 265 l 1069 265 l 1069 343 l 329 343 m 329 218 l 329 139 l 1069 139 l 1069 218 l 329 218 m 329 465 l 329 392 l 1069 392 l 1069 465 l 329 465 m 263 517 l 1138 517 l 1138 90 l 263 90 l 263 517 m 801 31 l 836 74 q 998 30 918 53 q 1149 -15 1078 7 q 1274 -58 1219 -37 l 1231 -106 q 1110 -63 1179 -86 q 963 -16 1042 -40 q 801 31 883 8 m 375 846 l 347 635 l 1029 635 l 1044 846 l 375 846 m 319 896 l 1113 896 l 1088 585 l 278 585 l 319 896 m 531 74 l 593 38 q 462 -20 538 7 q 304 -69 386 -47 q 149 -103 222 -90 q 131 -78 142 -93 q 110 -54 119 -62 q 264 -20 183 -40 q 416 24 344 0 q 531 74 488 49 m 71 772 l 357 772 l 357 768 l 1035 768 l 1035 772 l 1321 772 l 1321 715 l 1035 715 l 1035 718 l 357 718 l 357 715 l 71 715 l 71 772 m 601 1147 l 660 1168 q 719 1090 690 1133 q 760 1011 747 1046 l 699 988 q 660 1066 688 1021 q 601 1147 632 1111 z "},"寫":{"ha":1389,"x_min":68,"x_max":1279,"o":"m 111 1038 l 1279 1038 l 1279 815 l 1214 815 l 1214 976 l 175 976 l 175 815 l 111 815 l 111 1038 m 604 913 l 650 864 q 481 813 578 838 q 297 772 385 789 q 290 795 296 782 q 278 819 283 808 q 395 848 335 833 q 510 880 456 863 q 604 913 565 897 m 278 819 l 339 803 l 339 464 l 278 464 l 278 819 m 278 493 l 1049 493 l 1049 782 l 736 782 l 736 838 l 1113 838 l 1113 438 l 278 438 l 278 493 m 310 665 l 632 665 l 632 610 l 310 610 l 310 665 m 761 665 l 1090 665 l 1090 610 l 761 610 l 761 665 m 478 464 l 540 446 q 422 310 492 374 q 273 195 353 247 q 111 106 193 143 q 99 123 107 113 q 84 144 92 133 q 68 161 76 154 q 226 240 149 194 q 369 343 303 286 q 478 464 435 400 m 397 331 l 1194 331 l 1194 272 l 339 272 l 397 331 m 1171 331 l 1238 331 q 1237 319 1238 331 q 1235 299 1236 307 q 1218 99 1228 175 q 1197 -17 1208 24 q 1168 -74 1185 -57 q 1135 -94 1153 -89 q 1090 -101 1118 -100 q 1020 -102 1067 -103 q 922 -97 974 -101 q 916 -67 921 -83 q 901 -37 911 -50 q 1002 -43 956 -42 q 1065 -43 1049 -44 q 1096 -42 1085 -44 q 1114 -32 1107 -40 q 1136 19 1126 -18 q 1155 128 1146 56 q 1171 321 1164 201 l 1171 331 m 389 218 l 444 194 q 385 59 419 132 q 304 -65 350 -14 l 249 -35 q 306 41 279 -3 q 354 131 333 85 q 389 218 375 178 m 522 203 l 579 211 q 619 86 603 153 q 636 -29 636 19 l 578 -39 q 562 77 578 10 q 522 203 546 144 m 701 206 l 753 222 q 820 111 789 172 q 861 4 851 50 l 806 -15 q 765 92 794 29 q 701 206 736 154 m 881 207 l 929 232 q 1010 151 971 197 q 1065 69 1049 106 l 1017 40 q 960 124 999 76 q 881 207 922 171 m 606 1144 l 672 1164 q 717 1088 694 1131 q 750 1015 740 1046 l 683 992 q 651 1065 672 1022 q 606 1144 629 1108 z "},"將":{"ha":1389,"x_min":54,"x_max":1325,"o":"m 506 444 l 1325 444 l 1325 382 l 506 382 l 506 444 m 831 1038 l 1229 1038 l 1211 982 l 796 982 l 831 1038 m 1064 657 l 1131 657 l 1131 -1 q 1119 -52 1131 -35 q 1082 -79 1108 -69 q 1006 -90 1057 -87 q 867 -92 954 -92 q 858 -60 864 -78 q 842 -26 851 -42 q 965 -28 913 -28 q 1036 -28 1018 -28 q 1058 -21 1053 -26 q 1064 -1 1064 -15 l 1064 657 m 913 1161 l 978 1138 q 860 1014 929 1074 q 710 903 792 954 q 540 811 629 851 q 528 826 536 818 q 513 841 521 833 q 497 854 506 849 q 664 940 585 890 q 808 1046 743 989 q 913 1161 872 1103 m 624 294 l 676 325 q 751 251 714 292 q 821 172 789 211 q 872 100 853 132 l 817 61 q 767 135 799 94 q 699 218 736 176 q 624 294 661 260 m 749 956 l 796 986 q 884 911 840 953 q 967 828 928 869 q 1028 751 1006 786 l 979 717 q 919 794 957 751 q 838 878 882 836 q 749 956 793 921 m 157 753 l 429 753 l 429 692 l 157 692 l 157 753 m 64 457 l 428 457 l 428 394 l 64 394 l 64 457 m 393 1157 l 457 1157 l 457 -103 l 393 -103 l 393 1157 m 126 1106 l 189 1106 l 189 692 l 126 692 l 126 1106 m 144 435 l 206 435 l 206 342 q 202 240 206 296 q 188 124 199 183 q 158 5 178 64 q 110 -106 139 -54 q 93 -93 103 -99 q 74 -81 83 -87 q 54 -72 64 -75 q 112 69 93 -6 q 138 215 131 143 q 144 343 144 288 l 144 435 m 1204 1038 l 1218 1038 l 1231 1040 l 1272 1018 q 1148 819 1225 907 q 973 663 1071 731 q 768 549 875 596 q 553 472 661 501 q 538 501 547 485 q 518 526 528 517 q 726 594 622 550 q 923 701 829 638 q 1090 844 1017 764 q 1204 1025 1163 925 l 1204 1038 m 524 744 q 663 758 585 749 q 831 775 742 767 l 832 722 q 676 704 751 713 q 535 689 600 696 l 524 744 z "},"專":{"ha":1389,"x_min":68,"x_max":1322,"o":"m 68 276 l 1322 276 l 1322 217 l 68 217 l 68 276 m 108 1040 l 1263 1040 l 1263 983 l 108 983 l 108 1040 m 913 371 l 978 371 l 978 -21 q 969 -68 978 -51 q 932 -93 960 -85 q 852 -101 904 -100 q 714 -103 800 -103 q 704 -74 711 -90 q 689 -43 697 -57 q 776 -45 738 -44 q 844 -45 815 -46 q 883 -44 872 -44 q 907 -38 901 -43 q 913 -19 913 -33 l 913 371 m 658 1156 l 725 1156 l 725 413 l 658 413 l 658 1156 m 289 153 l 336 193 q 425 139 379 169 q 511 77 471 108 q 578 18 551 46 l 529 -29 q 465 31 504 -1 q 379 95 425 64 q 289 153 333 126 m 279 678 l 279 572 l 1113 572 l 1113 678 l 279 678 m 279 833 l 279 731 l 1113 731 l 1113 833 l 279 833 m 215 886 l 1178 886 l 1178 519 l 215 519 l 215 886 m 906 486 l 944 526 q 1064 483 1003 510 q 1179 427 1125 457 q 1268 371 1233 397 l 1229 328 q 1140 386 1194 356 q 1025 443 1086 417 q 906 486 964 469 m 121 422 q 334 423 215 421 q 588 426 453 425 q 867 431 724 428 q 1151 436 1010 433 l 1147 386 q 776 377 963 382 q 422 369 590 372 q 124 363 254 365 l 121 422 z "},"對":{"ha":1389,"x_min":67,"x_max":1324,"o":"m 757 772 l 1324 772 l 1324 708 l 757 708 l 757 772 m 67 858 l 771 858 l 771 797 l 67 797 l 67 858 m 115 564 l 725 564 l 725 504 l 115 504 l 115 564 m 158 332 l 690 332 l 690 272 l 158 272 l 158 332 m 1107 1153 l 1171 1153 l 1171 -7 q 1158 -65 1171 -46 q 1121 -92 1146 -83 q 1044 -102 1094 -100 q 908 -104 994 -104 q 902 -85 907 -96 q 893 -61 897 -74 q 882 -40 889 -49 q 1004 -42 951 -42 q 1072 -40 1057 -42 q 1099 -33 1092 -39 q 1107 -8 1107 -26 l 1107 1153 m 810 558 l 868 579 q 928 470 900 528 q 978 358 957 413 q 1007 260 999 303 l 944 236 q 915 335 936 279 q 867 449 894 390 q 810 558 839 507 m 96 1089 l 142 1117 q 223 1017 183 1072 q 281 921 263 961 l 232 889 q 175 987 214 931 q 96 1089 136 1043 m 199 750 l 250 776 q 317 692 285 739 q 364 611 350 646 l 310 582 q 265 665 296 617 q 199 750 233 713 m 294 1158 l 353 1158 l 353 831 l 294 831 l 294 1158 m 386 542 l 451 542 l 451 43 l 386 43 l 386 542 m 486 1158 l 544 1158 l 544 831 l 486 831 l 486 1158 m 71 28 q 268 56 156 39 q 508 91 381 72 q 763 128 635 110 l 765 67 q 517 29 642 49 q 281 -8 393 10 q 82 -37 169 -25 l 71 28 m 700 1118 l 758 1086 q 683 981 724 1035 q 606 888 642 926 l 561 915 q 610 978 585 942 q 660 1051 636 1014 q 700 1118 685 1089 m 588 774 l 651 749 q 590 632 622 693 q 528 529 557 571 l 475 550 q 515 619 494 579 q 556 699 536 658 q 588 774 576 740 z "},"導":{"ha":1389,"x_min":83,"x_max":1325,"o":"m 83 240 l 1297 240 l 1297 182 l 83 182 l 83 240 m 428 1024 l 1286 1024 l 1286 968 l 428 968 l 428 1024 m 932 329 l 997 329 l 997 -11 q 988 -58 997 -42 q 950 -83 979 -75 q 868 -92 922 -92 q 724 -93 814 -93 q 713 -65 721 -81 q 699 -35 706 -49 q 791 -36 750 -36 q 861 -35 832 -36 q 903 -35 890 -35 q 926 -28 921 -33 q 932 -10 932 -24 l 932 329 m 353 125 l 401 163 q 512 74 456 125 q 596 -19 568 22 l 546 -61 q 497 0 528 -33 q 428 67 465 33 q 353 125 390 100 m 606 1138 l 661 1158 q 709 1098 686 1132 q 740 1039 732 1064 l 682 1014 q 651 1076 674 1042 q 606 1138 629 1111 m 582 717 l 582 640 l 1113 640 l 1113 717 l 582 717 m 582 594 l 582 517 l 1113 517 l 1113 594 l 582 594 m 582 838 l 582 764 l 1113 764 l 1113 838 l 582 838 m 521 885 l 1175 885 l 1175 468 l 521 468 l 521 885 m 817 1008 l 885 999 q 847 922 867 960 q 810 854 828 883 l 756 867 q 789 938 771 897 q 817 1008 807 979 m 1053 1156 l 1117 1138 q 1064 1058 1092 1099 q 1013 990 1036 1018 l 960 1008 q 1010 1082 983 1039 q 1053 1156 1036 1125 m 168 1139 l 224 1158 q 284 1090 254 1128 q 331 1024 314 1051 l 272 1001 q 226 1069 256 1029 q 168 1139 197 1108 m 93 964 l 367 964 l 367 906 l 93 906 l 93 964 m 326 565 q 416 461 360 494 q 561 417 472 428 q 779 406 650 406 q 964 407 867 406 q 1155 413 1061 408 q 1325 422 1249 417 q 1311 392 1317 411 q 1303 360 1306 374 q 1144 354 1233 357 q 962 350 1056 351 q 782 349 868 349 q 538 363 633 349 q 383 417 442 376 q 286 540 324 458 l 326 565 m 361 738 l 379 738 l 392 740 l 422 722 q 301 478 382 582 q 125 315 219 375 q 115 332 122 322 q 101 351 108 342 q 85 365 93 361 q 251 511 176 418 q 361 725 326 604 l 361 738 m 115 660 l 115 718 l 160 738 l 374 738 l 374 679 l 194 679 q 146 673 168 679 q 115 660 124 667 m 115 660 q 108 682 114 669 q 97 707 103 694 q 88 726 92 719 q 115 737 99 729 q 150 760 132 744 q 192 798 165 772 q 251 854 219 824 q 311 913 283 885 q 354 960 339 942 l 354 964 l 381 974 l 426 944 q 351 869 396 913 q 257 782 306 825 q 171 707 208 739 q 163 703 171 707 q 143 692 154 699 q 124 676 132 685 q 115 660 115 668 z "},"小":{"ha":1389,"x_min":53,"x_max":1347,"o":"m 665 1139 l 736 1139 l 736 4 q 722 -63 736 -43 q 675 -92 707 -83 q 581 -103 643 -100 q 424 -104 519 -106 q 417 -83 422 -96 q 406 -58 411 -71 q 394 -33 401 -44 q 497 -35 449 -35 q 579 -35 544 -36 q 628 -35 614 -35 q 657 -26 649 -33 q 665 3 665 -18 l 665 1139 m 1001 792 l 1065 817 q 1185 607 1128 718 q 1286 390 1243 496 q 1347 203 1329 285 l 1276 174 q 1218 361 1260 254 q 1120 581 1176 468 q 1001 792 1064 693 m 301 808 l 375 797 q 317 587 353 697 q 231 374 282 476 q 114 194 179 272 q 95 207 106 200 q 74 220 85 214 q 53 231 63 226 q 167 404 118 306 q 249 608 215 503 q 301 808 283 714 z "},"少":{"ha":1389,"x_min":54,"x_max":1314,"o":"m 325 929 l 390 913 q 315 751 357 832 q 230 597 274 669 q 142 467 186 524 q 125 478 136 472 q 103 491 114 485 q 83 501 92 497 q 174 628 129 557 q 257 776 218 699 q 325 929 296 854 m 996 903 l 1051 931 q 1149 788 1099 864 q 1244 640 1200 713 q 1314 514 1288 568 l 1257 482 q 1187 610 1231 538 q 1093 760 1143 683 q 996 903 1043 838 m 1079 440 l 1140 410 q 894 166 1047 268 q 536 -3 740 64 q 88 -103 332 -69 q 73 -70 82 -89 q 54 -37 64 -51 q 494 54 294 -7 q 842 211 693 115 q 1079 440 992 307 m 640 1160 l 707 1160 l 707 310 l 640 310 l 640 1160 z "},"就":{"ha":1389,"x_min":81,"x_max":1338,"o":"m 226 724 l 226 528 l 586 528 l 586 724 l 226 724 m 164 783 l 650 783 l 650 468 l 164 468 l 164 783 m 81 981 l 714 981 l 714 918 l 81 918 l 81 981 m 726 796 l 1315 796 l 1315 732 l 726 732 l 726 796 m 1008 597 l 1071 597 l 1071 53 q 1074 13 1071 28 q 1083 -6 1076 -1 q 1103 -11 1093 -10 q 1126 -12 1114 -12 q 1161 -12 1138 -12 q 1200 -12 1185 -12 q 1230 -11 1215 -12 q 1251 -6 1244 -10 q 1274 33 1269 1 q 1279 90 1278 50 q 1282 182 1281 129 q 1307 166 1292 174 q 1338 153 1322 158 q 1333 61 1336 108 q 1324 -6 1329 14 q 1283 -54 1313 -43 q 1248 -64 1269 -61 q 1207 -67 1226 -67 q 1180 -67 1199 -67 q 1143 -67 1161 -67 q 1117 -67 1125 -67 q 1075 -62 1096 -67 q 1038 -49 1054 -58 q 1015 -17 1022 -37 q 1008 65 1008 4 l 1008 597 m 926 1156 l 992 1156 q 986 894 990 1032 q 965 614 982 756 q 913 340 949 472 q 817 94 878 208 q 663 -103 757 -19 q 638 -83 654 -93 q 610 -65 622 -72 q 762 123 703 13 q 855 363 821 233 q 904 631 889 493 q 923 902 919 768 q 926 1156 926 1036 m 379 488 l 442 488 l 442 -21 q 435 -62 442 -47 q 408 -83 428 -76 q 356 -94 390 -92 q 269 -94 322 -96 q 260 -66 267 -82 q 247 -37 254 -50 q 319 -39 289 -39 q 361 -37 350 -39 q 379 -19 379 -37 l 379 488 m 221 374 l 281 361 q 220 186 257 272 q 139 40 183 100 q 124 52 133 46 q 104 65 114 58 q 86 75 94 71 q 166 211 132 132 q 221 374 200 290 m 518 367 l 569 389 q 634 265 604 333 q 675 147 664 196 l 619 121 q 580 241 608 172 q 518 367 551 310 m 1071 1057 l 1119 1085 q 1203 985 1163 1040 q 1261 889 1243 929 l 1210 856 q 1176 919 1199 885 q 1127 991 1154 954 q 1071 1057 1100 1028 m 328 1146 l 389 1161 q 440 1059 415 1114 q 475 967 465 1004 l 411 946 q 376 1042 400 985 q 328 1146 353 1099 z "},"局":{"ha":1389,"x_min":44,"x_max":1256,"o":"m 263 1081 l 1161 1081 l 1161 749 l 263 749 l 263 810 l 1094 810 l 1094 1021 l 263 1021 l 263 1081 m 222 1081 l 289 1081 l 289 756 q 283 560 289 665 q 256 345 276 456 q 199 129 236 235 q 100 -68 163 24 q 84 -51 94 -60 q 63 -35 74 -43 q 44 -24 53 -28 q 140 163 104 63 q 194 367 176 263 q 217 570 211 471 q 222 756 222 669 l 222 1081 m 263 610 l 1211 610 l 1211 549 l 263 549 l 263 610 m 469 422 l 951 422 l 951 79 l 469 79 l 469 138 l 888 138 l 888 363 l 469 363 l 469 422 m 433 422 l 496 422 l 496 -1 l 433 -1 l 433 422 m 1189 610 l 1256 610 q 1255 603 1256 610 q 1254 588 1254 597 q 1254 574 1254 579 q 1239 296 1247 410 q 1222 108 1231 182 q 1202 -6 1214 35 q 1174 -65 1190 -47 q 1137 -92 1157 -85 q 1086 -101 1117 -99 q 1003 -102 1056 -103 q 892 -97 950 -101 q 885 -65 890 -83 q 872 -33 881 -47 q 989 -40 936 -37 q 1061 -42 1042 -42 q 1094 -38 1082 -42 q 1117 -24 1107 -35 q 1147 58 1133 -6 q 1169 252 1160 122 q 1189 596 1179 382 l 1189 610 z "},"展":{"ha":1389,"x_min":51,"x_max":1328,"o":"m 329 626 l 1263 626 l 1263 565 l 329 565 l 329 626 m 285 390 l 1315 390 l 1315 328 l 285 328 l 285 390 m 557 764 l 621 764 l 621 347 l 557 347 l 557 764 m 942 764 l 1007 764 l 1007 353 l 942 353 l 942 764 m 204 1088 l 272 1088 l 272 683 q 267 496 272 597 q 245 289 261 394 q 197 83 229 183 q 110 -103 164 -18 q 92 -91 103 -97 q 71 -78 82 -85 q 51 -68 60 -71 q 135 110 104 14 q 181 307 165 207 q 200 503 196 407 q 204 683 204 600 l 204 1088 m 243 1088 l 1225 1088 l 1225 793 l 243 793 l 243 856 l 1158 856 l 1158 1026 l 243 1026 l 243 1088 m 792 367 q 995 99 856 207 q 1328 -50 1135 -8 q 1305 -77 1317 -61 q 1286 -106 1293 -93 q 947 60 1089 -57 q 735 350 804 176 l 792 367 m 1174 306 l 1225 268 q 1095 177 1168 222 q 960 100 1022 132 l 917 135 q 1005 186 957 157 q 1097 247 1053 215 q 1174 306 1142 279 m 424 -100 l 421 -43 l 458 -12 l 863 83 q 862 53 861 69 q 863 26 863 36 q 639 -33 722 -11 q 513 -68 556 -56 q 451 -87 469 -81 q 424 -100 433 -94 m 424 -100 q 416 -81 422 -92 q 403 -58 410 -69 q 392 -39 397 -47 q 434 -10 410 -32 q 458 54 458 13 l 458 360 l 524 357 l 524 -17 q 514 -23 524 -17 q 489 -38 504 -29 q 459 -58 474 -47 q 434 -81 444 -69 q 424 -100 424 -92 z "},"層":{"ha":1389,"x_min":50,"x_max":1221,"o":"m 193 1090 l 260 1090 l 260 688 q 255 501 260 601 q 235 295 250 400 q 189 90 219 190 q 108 -96 158 -10 q 93 -82 104 -89 q 70 -69 82 -75 q 50 -60 58 -62 q 128 119 99 24 q 171 313 157 214 q 189 508 185 413 q 193 688 193 604 l 193 1090 m 239 1090 l 1221 1090 l 1221 833 l 239 833 l 239 890 l 1154 890 l 1154 1032 l 239 1032 l 239 1090 m 514 810 l 565 831 q 615 772 592 806 q 650 715 638 739 l 594 690 q 561 750 585 715 q 514 810 538 785 m 1006 832 l 1065 808 q 1015 742 1042 774 q 965 685 989 710 l 918 706 q 965 769 939 732 q 1006 832 992 806 m 421 296 l 1161 296 l 1161 -100 l 1094 -100 l 1094 242 l 486 242 l 486 -103 l 421 -103 l 421 296 m 747 708 l 813 708 l 813 396 l 747 396 l 747 708 m 457 149 l 1119 149 l 1119 99 l 457 99 l 457 149 m 457 -3 l 1119 -3 l 1119 -56 l 457 -56 l 457 -3 m 417 676 l 417 421 l 1153 421 l 1153 676 l 417 676 m 354 726 l 1217 726 l 1217 369 l 354 369 l 354 726 m 503 619 l 549 643 q 613 563 582 607 q 661 486 644 518 l 613 457 q 566 538 597 492 q 503 619 535 583 m 1006 643 l 1051 618 q 998 531 1026 575 q 943 457 969 488 l 904 481 q 958 560 929 513 q 1006 643 988 608 z "},"屬":{"ha":1389,"x_min":67,"x_max":1258,"o":"m 199 1104 l 264 1104 l 264 696 q 259 508 264 610 q 240 299 254 406 q 199 92 226 193 q 125 -96 171 -10 q 108 -84 118 -90 q 86 -72 97 -78 q 67 -62 75 -65 q 139 119 113 22 q 178 317 165 215 q 194 515 190 418 q 199 696 199 613 l 199 1104 m 236 1104 l 1235 1104 l 1235 886 l 236 886 l 236 940 l 1169 940 l 1169 1050 l 236 1050 l 236 1104 m 746 860 l 811 860 l 811 649 l 746 649 l 746 860 m 689 357 l 750 357 l 750 8 l 689 8 l 689 357 m 483 386 l 1214 386 l 1214 336 l 483 336 l 483 386 m 944 581 l 944 492 l 1165 492 l 1165 581 l 944 581 m 667 581 l 667 492 l 885 492 l 885 581 l 667 581 m 399 581 l 399 492 l 608 492 l 608 581 l 399 581 m 339 626 l 1226 626 l 1226 446 l 339 446 l 339 626 m 1194 386 l 1258 386 q 1258 374 1258 386 q 1257 354 1258 363 q 1240 129 1249 214 q 1219 1 1231 44 q 1192 -58 1207 -42 q 1165 -80 1181 -74 q 1126 -86 1149 -86 q 1076 -87 1107 -89 q 1013 -85 1044 -86 q 1007 -56 1011 -72 q 997 -28 1003 -40 q 1061 -33 1032 -32 q 1104 -33 1090 -33 q 1125 -31 1117 -33 q 1139 -21 1133 -29 q 1160 33 1151 -8 q 1178 158 1169 75 q 1194 375 1188 240 l 1194 386 m 463 228 l 463 153 l 972 153 l 972 228 l 463 228 m 406 274 l 1029 274 l 1029 106 l 406 106 l 406 274 m 528 460 l 594 450 q 480 316 550 382 q 317 194 410 250 q 294 216 308 204 q 268 235 281 228 q 425 344 358 283 q 528 460 492 404 m 329 8 q 518 22 411 14 q 746 38 625 29 q 989 54 867 46 l 988 7 q 752 -12 869 -3 q 528 -31 635 -22 q 335 -46 422 -40 l 329 8 m 881 83 l 922 111 q 1003 56 961 88 q 1068 -1 1044 25 l 1024 -35 q 960 25 1001 -8 q 881 83 919 58 m 351 693 q 499 719 413 704 q 674 753 585 735 l 675 706 q 513 671 594 688 q 368 643 432 654 l 351 693 m 1156 874 l 1182 831 q 1101 806 1146 817 q 1010 787 1056 794 q 928 775 965 779 l 906 813 q 989 830 943 818 q 1080 853 1035 842 q 1156 874 1125 865 m 892 708 l 910 749 q 1062 725 986 742 q 1185 689 1138 708 l 1161 642 q 1040 680 1114 661 q 892 708 965 699 m 371 822 l 389 863 q 526 840 457 856 q 639 807 594 825 l 617 761 q 506 796 572 779 q 371 822 439 813 z "},"山":{"ha":1389,"x_min":163,"x_max":1225,"o":"m 658 1140 l 728 1140 l 728 39 l 658 39 l 658 1140 m 1158 876 l 1225 876 l 1225 -96 l 1158 -96 l 1158 876 m 163 876 l 231 876 l 231 76 l 1197 76 l 1197 10 l 163 10 l 163 876 z "},"工":{"ha":1389,"x_min":78,"x_max":1314,"o":"m 147 996 l 1249 996 l 1249 926 l 147 926 l 147 996 m 78 76 l 1314 76 l 1314 10 l 78 10 l 78 76 m 656 965 l 728 965 l 728 47 l 656 47 l 656 965 z "},"己":{"ha":1389,"x_min":200,"x_max":1322,"o":"m 254 618 l 1092 618 l 1092 551 l 254 551 l 254 618 m 200 1075 l 1139 1075 l 1139 460 l 1069 460 l 1069 1007 l 200 1007 l 200 1075 m 218 618 l 286 618 l 286 88 q 301 32 286 51 q 358 4 317 13 q 476 -4 399 -4 q 555 -4 499 -4 q 684 -4 611 -4 q 832 -4 757 -4 q 968 -4 907 -4 q 1060 -4 1029 -4 q 1153 7 1117 -4 q 1208 46 1189 18 q 1238 126 1228 74 q 1253 260 1247 178 q 1274 248 1263 254 q 1299 238 1286 242 q 1322 232 1311 233 q 1300 83 1314 142 q 1258 -10 1286 24 q 1182 -57 1231 -43 q 1056 -71 1133 -71 q 1000 -71 1043 -71 q 896 -71 957 -71 q 769 -71 835 -71 q 642 -71 703 -71 q 538 -71 581 -71 q 485 -71 496 -71 q 326 -58 383 -71 q 243 -12 268 -46 q 218 89 218 22 l 218 618 z "},"已":{"ha":1389,"x_min":132,"x_max":1310,"o":"m 215 846 l 282 846 l 282 117 q 297 47 282 72 q 353 12 313 21 q 469 3 394 3 q 547 3 492 3 q 674 3 603 3 q 817 3 744 3 q 951 3 890 3 q 1040 3 1011 3 q 1136 15 1100 3 q 1193 59 1172 26 q 1224 148 1214 92 q 1242 293 1235 204 q 1263 280 1251 286 q 1288 269 1275 274 q 1310 263 1300 265 q 1287 106 1301 169 q 1244 6 1272 43 q 1166 -48 1217 -32 q 1036 -64 1115 -64 q 981 -64 1024 -64 q 880 -64 939 -64 q 756 -64 821 -64 q 633 -64 692 -64 q 533 -64 574 -64 q 479 -64 492 -64 q 321 -49 379 -64 q 239 6 263 -33 q 215 119 215 44 l 215 846 m 247 594 l 1097 594 l 1097 528 l 247 528 l 247 594 m 132 1067 l 1136 1067 l 1136 456 l 1068 456 l 1068 1000 l 132 1000 l 132 1067 z "},"市":{"ha":1389,"x_min":78,"x_max":1314,"o":"m 656 914 l 725 914 l 725 -104 l 656 -104 l 656 914 m 78 946 l 1314 946 l 1314 881 l 78 881 l 78 946 m 224 671 l 1133 671 l 1133 606 l 289 606 l 289 68 l 224 68 l 224 671 m 1111 671 l 1179 671 l 1179 171 q 1169 116 1179 135 q 1128 88 1158 97 q 1038 78 1097 81 q 885 76 979 76 q 874 110 882 92 q 860 143 867 128 q 959 141 914 142 q 1035 140 1004 140 q 1079 140 1067 140 q 1105 149 1099 143 q 1111 169 1111 156 l 1111 671 m 589 1147 l 653 1167 q 716 1061 683 1119 q 764 963 749 1003 l 696 938 q 669 1002 688 967 q 631 1076 651 1038 q 589 1147 610 1114 z "},"布":{"ha":1389,"x_min":54,"x_max":1300,"o":"m 90 936 l 1300 936 l 1300 871 l 90 871 l 90 936 m 722 794 l 790 794 l 790 -106 l 722 -106 l 722 794 m 315 592 l 1182 592 l 1182 526 l 382 526 l 382 29 l 315 29 l 315 592 m 1151 592 l 1218 592 l 1218 132 q 1208 84 1218 101 q 1171 57 1199 67 q 1087 47 1144 49 q 935 46 1029 44 q 925 76 932 60 q 908 107 918 93 q 1005 106 961 106 q 1078 106 1049 106 q 1121 107 1108 107 q 1145 113 1139 107 q 1151 133 1151 118 l 1151 592 m 575 1158 l 643 1142 q 519 833 594 986 q 338 549 443 681 q 96 319 233 417 q 84 338 92 328 q 69 358 76 347 q 54 374 61 368 q 235 531 153 442 q 381 724 317 621 q 494 938 446 828 q 575 1158 543 1049 z "},"帶":{"ha":1389,"x_min":85,"x_max":1306,"o":"m 118 615 l 1281 615 l 1281 368 l 1214 368 l 1214 556 l 183 556 l 183 368 l 118 368 l 118 615 m 531 1135 l 593 1135 l 593 749 l 799 749 l 799 1135 l 863 1135 l 863 692 l 531 692 l 531 1135 m 85 982 l 1306 982 l 1306 924 l 85 924 l 85 982 m 324 1138 l 388 1138 l 388 961 q 379 878 388 922 q 344 790 371 833 q 267 708 318 747 q 132 638 217 669 q 115 663 126 650 q 93 686 104 676 q 218 744 172 711 q 286 815 264 778 q 316 890 308 853 q 324 961 324 928 l 324 1138 m 657 528 l 725 528 l 725 -100 l 657 -100 l 657 528 m 257 392 l 1106 392 l 1106 332 l 322 332 l 322 -24 l 257 -24 l 257 392 m 1081 392 l 1146 392 l 1146 64 q 1138 19 1146 36 q 1103 -7 1131 3 q 1028 -15 1078 -14 q 894 -17 978 -17 q 886 13 893 -4 q 871 42 879 29 q 954 41 917 42 q 1018 41 992 40 q 1054 42 1044 42 q 1075 48 1069 43 q 1081 64 1081 53 l 1081 392 m 1013 1139 l 1076 1139 l 1076 782 q 1081 745 1076 754 q 1104 736 1086 736 q 1141 736 1114 736 q 1196 736 1168 736 q 1232 736 1224 736 q 1267 737 1247 736 q 1299 740 1286 738 q 1301 713 1300 729 q 1304 685 1301 696 q 1274 681 1293 682 q 1235 681 1256 681 q 1194 681 1224 681 q 1136 681 1164 681 q 1100 681 1108 681 q 1045 690 1064 681 q 1019 722 1026 699 q 1013 783 1013 746 l 1013 1139 z "},"常":{"ha":1389,"x_min":132,"x_max":1269,"o":"m 679 489 l 746 489 l 746 -104 l 679 -104 l 679 489 m 406 693 l 406 529 l 997 529 l 997 693 l 406 693 m 340 750 l 1065 750 l 1065 471 l 340 471 l 340 750 m 222 338 l 1150 338 l 1150 275 l 289 275 l 289 -39 l 222 -39 l 222 338 m 1114 338 l 1182 338 l 1182 43 q 1173 -5 1182 13 q 1138 -29 1164 -22 q 1056 -39 1108 -37 q 919 -40 1004 -40 q 909 -10 917 -28 q 893 21 901 7 q 981 19 942 19 q 1047 19 1019 18 q 1086 19 1075 19 q 1108 26 1103 21 q 1114 43 1114 31 l 1114 338 m 675 1160 l 743 1160 l 743 907 l 675 907 l 675 1160 m 132 929 l 1269 929 l 1269 651 l 1203 651 l 1203 867 l 197 867 l 197 651 l 132 651 l 132 929 m 249 1118 l 308 1143 q 380 1056 344 1104 q 435 972 415 1008 l 371 940 q 318 1028 353 978 q 249 1118 283 1079 m 1082 1147 l 1149 1119 q 1077 1025 1115 1074 q 1007 942 1039 976 l 954 967 q 999 1024 975 992 q 1044 1089 1022 1056 q 1082 1147 1067 1122 z "},"平":{"ha":1389,"x_min":78,"x_max":1313,"o":"m 150 1061 l 1235 1061 l 1235 994 l 150 994 l 150 1061 m 78 471 l 1313 471 l 1313 404 l 78 404 l 78 471 m 254 896 l 314 914 q 374 800 344 861 q 426 681 403 739 q 458 582 449 624 l 396 557 q 363 659 385 601 q 313 779 340 717 q 254 896 285 842 m 1069 922 l 1140 900 q 1083 778 1114 842 q 1019 654 1051 714 q 957 549 988 594 l 900 569 q 961 678 929 617 q 1022 805 993 740 q 1069 922 1050 869 m 657 1038 l 725 1038 l 725 -103 l 657 -103 l 657 1038 z "},"年":{"ha":1389,"x_min":72,"x_max":1319,"o":"m 408 1164 l 475 1146 q 383 949 436 1044 q 269 773 331 854 q 139 629 207 692 q 123 642 133 633 q 101 658 113 650 q 81 671 90 667 q 211 808 150 731 q 322 977 272 886 q 408 1164 372 1068 m 357 982 l 1261 982 l 1261 918 l 324 918 l 357 982 m 307 675 l 1229 675 l 1229 611 l 374 611 l 374 261 l 307 261 l 307 675 m 72 296 l 1319 296 l 1319 231 l 72 231 l 72 296 m 728 947 l 796 947 l 796 -104 l 728 -104 l 728 947 z "},"幹":{"ha":1389,"x_min":64,"x_max":1346,"o":"m 346 1157 l 411 1157 l 411 763 l 346 763 l 346 1157 m 346 389 l 411 389 l 411 -101 l 346 -101 l 346 389 m 197 547 l 197 410 l 556 410 l 556 547 l 197 547 m 197 739 l 197 603 l 556 603 l 556 739 l 197 739 m 133 797 l 619 797 l 619 351 l 133 351 l 133 797 m 81 988 l 667 988 l 667 925 l 81 925 l 81 988 m 954 636 l 1019 636 l 1019 -104 l 954 -104 l 954 636 m 736 658 l 1238 658 l 1238 593 l 736 593 l 736 658 m 678 332 l 1290 332 l 1290 268 l 678 268 l 678 332 m 64 224 l 681 224 l 681 161 l 64 161 l 64 224 m 990 1183 l 1049 1163 q 948 965 1008 1061 q 817 789 888 868 q 674 658 746 710 q 659 676 667 667 q 642 696 651 686 q 626 711 633 706 q 767 832 697 757 q 894 998 836 907 q 990 1183 953 1089 m 1000 1081 q 1098 940 1039 1013 q 1222 808 1157 868 q 1346 710 1288 747 q 1322 687 1335 701 q 1299 661 1308 672 q 1176 769 1242 703 q 1051 911 1111 835 q 950 1060 992 988 l 1000 1081 z "},"幾":{"ha":1389,"x_min":75,"x_max":1328,"o":"m 632 1157 l 699 1157 q 724 781 700 960 q 793 456 749 603 q 898 201 838 308 q 1031 33 958 93 q 1186 -26 1104 -26 q 1231 -10 1214 -26 q 1256 48 1247 7 q 1269 165 1265 89 q 1297 147 1281 156 q 1328 133 1314 138 q 1304 -2 1319 47 q 1260 -72 1289 -51 q 1183 -92 1232 -92 q 997 -26 1082 -92 q 847 157 913 39 q 733 432 781 275 q 660 774 686 589 q 632 1157 633 958 m 929 547 l 965 586 q 1056 541 1008 568 q 1129 490 1103 514 l 1093 447 q 1021 501 1068 472 q 929 547 974 529 m 317 244 l 360 285 q 451 231 404 261 q 539 169 497 200 q 606 113 581 139 l 563 65 q 497 124 538 92 q 408 188 456 156 q 317 244 361 219 m 451 739 l 503 760 q 575 649 542 710 q 622 542 608 588 l 568 519 q 522 626 556 564 q 451 739 489 688 m 1067 358 l 1131 338 q 981 151 1072 233 q 779 7 890 68 q 547 -97 668 -54 q 535 -81 543 -90 q 519 -60 528 -71 q 503 -44 510 -50 q 731 50 622 -7 q 928 184 840 107 q 1067 358 1015 261 m 79 451 l 1314 451 l 1314 390 l 79 390 l 79 451 m 1115 778 l 1167 799 q 1242 684 1207 747 q 1290 574 1278 621 l 1236 549 q 1189 660 1222 596 q 1115 778 1156 725 m 324 418 l 394 417 q 363 216 390 318 q 278 30 336 114 q 122 -104 219 -54 q 110 -89 118 -97 q 92 -72 101 -81 q 75 -58 83 -64 q 222 67 168 -11 q 300 238 276 146 q 324 418 324 329 m 822 794 q 814 824 819 806 q 801 856 808 843 q 830 870 815 857 q 861 904 844 883 q 899 957 872 919 q 955 1046 925 994 q 1008 1149 985 1097 l 1065 1128 q 968 964 1019 1040 q 864 832 917 888 l 864 831 q 853 825 864 831 q 833 811 843 819 q 822 794 822 803 m 822 794 l 821 840 l 856 863 l 1094 883 q 1083 858 1089 872 q 1075 833 1076 843 q 950 818 997 824 q 877 808 903 813 q 840 801 851 804 q 822 794 829 797 m 831 571 q 827 589 831 578 q 820 612 824 600 q 811 632 817 624 q 853 652 831 635 q 901 696 875 669 q 965 763 921 714 q 1061 876 1008 811 q 1158 1010 1114 942 l 1214 983 q 1046 776 1132 874 q 875 606 960 678 l 875 604 q 864 599 875 604 q 842 586 853 594 q 831 571 831 578 m 831 571 l 829 617 l 867 640 l 1228 676 q 1234 651 1231 665 q 1240 626 1238 636 q 1032 602 1110 611 q 913 588 954 593 q 856 578 872 582 q 831 571 839 575 m 124 760 q 117 789 122 771 q 107 819 111 807 q 136 838 121 824 q 169 874 151 851 q 210 930 182 889 q 272 1026 239 971 q 332 1138 306 1081 l 389 1115 q 281 940 338 1024 q 168 797 225 856 l 168 796 q 158 790 168 796 q 135 776 147 785 q 124 760 124 768 m 124 760 l 124 804 l 158 826 l 397 849 q 387 822 393 838 q 376 797 381 807 q 253 783 300 789 q 181 773 206 776 q 144 766 156 769 q 124 760 132 763 m 132 533 q 128 553 132 542 q 121 576 125 564 q 114 596 117 589 q 154 617 131 600 q 204 660 178 633 q 270 726 225 678 q 369 839 315 774 q 468 974 422 904 l 524 947 q 352 739 440 838 q 176 571 264 640 l 176 568 q 165 563 176 568 q 143 550 154 558 q 132 533 132 542 m 132 533 l 132 582 l 169 604 l 544 636 q 550 610 546 624 q 556 586 554 596 q 340 565 421 574 q 218 551 260 556 q 159 542 176 546 q 132 533 142 539 z "},"府":{"ha":1389,"x_min":64,"x_max":1315,"o":"m 622 663 l 1315 663 l 1315 599 l 622 599 l 622 663 m 696 454 l 750 479 q 817 383 783 435 q 880 283 850 332 q 926 197 910 235 l 868 169 q 822 256 850 206 q 760 358 793 306 q 696 454 726 411 m 1074 886 l 1140 886 l 1140 -7 q 1130 -61 1140 -43 q 1092 -89 1119 -79 q 1015 -99 1065 -97 q 886 -100 965 -100 q 877 -68 885 -87 q 861 -33 869 -49 q 978 -36 928 -36 q 1046 -36 1028 -36 q 1067 -28 1061 -35 q 1074 -6 1074 -22 l 1074 886 m 556 896 l 622 878 q 546 698 592 790 q 443 522 500 606 q 319 374 386 439 q 309 391 315 381 q 296 412 303 401 q 282 429 289 422 q 397 568 343 490 q 491 731 450 646 q 556 896 532 817 m 200 999 l 1314 999 l 1314 933 l 200 933 l 200 999 m 165 999 l 232 999 l 232 444 q 228 306 232 379 q 213 159 225 233 q 179 16 201 85 q 121 -108 157 -53 q 105 -94 115 -101 q 83 -79 94 -86 q 64 -68 72 -72 q 119 48 99 -15 q 150 179 140 111 q 163 315 160 247 q 165 443 165 382 l 165 999 m 451 622 l 511 683 l 515 681 l 515 -104 l 451 -104 l 451 622 m 669 1151 l 732 1172 q 788 1073 760 1126 q 829 981 815 1019 l 763 957 q 722 1051 749 996 q 669 1151 696 1107 z "},"度":{"ha":1389,"x_min":61,"x_max":1328,"o":"m 292 768 l 1294 768 l 1294 710 l 292 710 l 292 768 m 317 364 l 1131 364 l 1131 303 l 317 303 l 317 364 m 536 907 l 601 907 l 601 529 l 989 529 l 989 907 l 1056 907 l 1056 472 l 536 472 l 536 907 m 1113 364 l 1126 364 l 1139 367 l 1182 342 q 1028 160 1124 236 q 811 34 932 85 q 555 -48 690 -17 q 281 -96 419 -79 q 268 -66 276 -83 q 251 -37 260 -49 q 515 4 383 -24 q 763 78 646 32 q 969 192 879 125 q 1113 351 1060 260 l 1113 364 m 532 310 q 722 135 601 208 q 997 17 842 63 q 1328 -46 1153 -28 q 1313 -63 1321 -53 q 1299 -84 1306 -74 q 1288 -104 1293 -94 q 956 -32 1113 -81 q 674 95 799 17 q 474 285 550 174 l 532 310 m 219 1010 l 1311 1010 l 1311 946 l 219 946 l 219 1010 m 188 1010 l 254 1010 l 254 628 q 249 455 254 549 q 231 263 244 361 q 190 70 217 164 q 119 -104 164 -24 q 103 -92 114 -99 q 81 -80 92 -86 q 61 -72 69 -74 q 130 96 106 6 q 167 280 154 186 q 184 463 181 374 q 188 628 188 551 l 188 1010 m 667 1146 l 732 1164 q 783 1075 757 1124 q 819 993 808 1026 l 753 971 q 717 1056 740 1006 q 667 1146 693 1106 z "},"廠":{"ha":1389,"x_min":53,"x_max":1342,"o":"m 943 713 l 1321 713 l 1321 651 l 943 651 l 943 713 m 296 614 l 779 614 l 779 557 l 351 557 l 351 -100 l 296 -100 l 296 614 m 517 926 l 578 926 l 578 581 l 517 581 l 517 926 m 754 614 l 811 614 l 811 -10 q 803 -52 811 -36 q 775 -76 796 -68 q 713 -85 753 -83 q 610 -87 674 -87 q 601 -58 607 -74 q 589 -31 594 -43 q 679 -32 640 -32 q 731 -31 718 -32 q 754 -10 754 -31 l 754 614 m 467 439 l 668 439 l 668 121 l 467 121 l 467 174 l 622 174 l 622 385 l 467 385 l 467 439 m 435 439 l 482 439 l 482 65 l 435 65 l 435 439 m 972 928 l 1035 917 q 959 641 1006 772 q 849 417 913 510 q 834 429 843 422 q 815 443 825 436 q 796 453 804 450 q 902 667 858 542 q 972 928 946 793 m 290 860 l 338 883 q 408 790 375 842 q 453 697 440 738 l 403 671 q 358 763 390 710 q 290 860 325 817 m 960 665 q 1034 356 986 499 q 1158 106 1082 213 q 1342 -57 1233 0 q 1319 -80 1332 -65 q 1299 -107 1307 -94 q 1112 70 1189 -42 q 985 331 1035 182 q 910 654 936 479 l 960 665 m 738 888 l 796 865 q 736 762 768 815 q 676 669 704 708 l 629 689 q 667 751 647 715 q 706 824 688 788 q 738 888 725 860 m 193 1032 l 1317 1032 l 1317 972 l 193 972 l 193 1032 m 157 1032 l 219 1032 l 219 599 q 215 431 219 521 q 199 247 211 340 q 165 63 188 153 q 107 -104 143 -28 q 92 -90 101 -99 q 72 -76 82 -82 q 53 -67 61 -69 q 109 92 89 7 q 140 265 129 176 q 153 439 150 354 q 157 599 157 524 l 157 1032 m 1194 689 l 1257 682 q 1214 448 1243 563 q 1137 229 1185 333 q 1016 39 1089 125 q 838 -108 943 -47 q 821 -83 832 -97 q 800 -61 810 -69 q 971 79 901 -3 q 1085 260 1040 161 q 1156 469 1131 360 q 1194 689 1182 578 m 650 1160 l 707 1186 q 762 1114 736 1153 q 800 1046 788 1075 l 736 1015 q 700 1087 725 1046 q 650 1160 675 1128 z "},"廣":{"ha":1389,"x_min":50,"x_max":1325,"o":"m 222 1029 l 1311 1029 l 1311 969 l 222 969 l 222 1029 m 340 849 l 1256 849 l 1256 797 l 340 797 l 340 849 m 189 1029 l 256 1029 l 256 646 q 250 471 256 565 q 230 278 244 376 q 185 85 215 179 q 107 -89 156 -8 q 91 -76 101 -83 q 70 -61 81 -68 q 50 -53 60 -54 q 126 114 99 25 q 167 296 154 203 q 185 478 181 389 q 189 646 189 568 l 189 1029 m 767 499 l 829 499 l 829 136 l 767 136 l 767 499 m 450 292 l 450 169 l 1149 169 l 1149 292 l 450 292 m 450 461 l 450 342 l 1149 342 l 1149 461 l 450 461 m 388 514 l 1214 514 l 1214 117 l 388 117 l 388 514 m 915 50 l 943 96 q 1078 45 1011 72 q 1205 -8 1144 18 q 1311 -56 1265 -33 l 1276 -106 q 1174 -57 1233 -83 q 1049 -3 1115 -31 q 915 50 982 25 m 611 94 l 672 51 q 546 -3 614 25 q 412 -58 478 -32 q 290 -104 346 -83 q 273 -79 283 -94 q 254 -54 263 -64 q 374 -10 308 -36 q 504 44 440 17 q 611 94 568 72 m 696 1146 l 761 1161 q 793 1085 778 1126 q 815 1013 808 1043 l 749 994 q 725 1067 740 1024 q 696 1146 710 1110 m 525 946 l 590 946 l 590 721 l 1006 721 l 1006 946 l 1072 946 l 1072 674 l 525 674 l 525 946 m 300 624 l 1325 624 l 1325 572 l 300 572 l 300 624 z "},"建":{"ha":1389,"x_min":61,"x_max":1329,"o":"m 454 847 l 1311 847 l 1311 789 l 454 789 l 454 847 m 528 468 l 1244 468 l 1244 411 l 528 411 l 528 468 m 467 278 l 1301 278 l 1301 219 l 467 219 l 467 278 m 826 1160 l 892 1160 l 892 56 l 826 56 l 826 1160 m 553 1031 l 1204 1031 l 1204 599 l 540 599 l 540 657 l 1140 657 l 1140 974 l 553 974 l 553 1031 m 94 1067 l 413 1067 l 413 1004 l 94 1004 l 94 1067 m 186 668 l 408 668 l 408 607 l 171 607 l 186 668 m 386 668 l 400 668 l 414 671 l 453 660 q 328 184 417 372 q 113 -103 240 -4 q 99 -87 108 -96 q 79 -70 89 -79 q 61 -56 69 -61 q 272 214 188 38 q 386 654 357 390 l 386 668 m 179 474 q 292 230 222 324 q 456 85 361 136 q 668 16 550 35 q 924 -3 786 -3 q 976 -3 936 -3 q 1069 -3 1015 -3 q 1176 -3 1122 -3 q 1271 -3 1229 -3 q 1329 -1 1313 -3 q 1318 -20 1324 -8 q 1308 -44 1313 -32 q 1301 -65 1303 -56 l 1229 -65 l 924 -65 q 647 -44 772 -65 q 421 32 521 -24 q 247 188 321 88 q 125 451 174 289 l 179 474 m 139 574 q 132 592 138 581 q 121 614 126 603 q 110 632 115 625 q 150 658 128 636 q 192 711 172 679 q 241 785 207 731 q 314 913 275 840 q 382 1058 353 985 l 382 1064 l 410 1079 l 457 1050 q 326 809 394 924 q 193 613 258 694 l 193 611 q 185 608 193 611 q 167 599 178 604 q 147 586 156 593 q 139 574 139 579 z "},"式":{"ha":1389,"x_min":79,"x_max":1335,"o":"m 982 1104 l 1028 1144 q 1106 1087 1065 1119 q 1183 1024 1147 1054 q 1240 967 1219 993 l 1193 922 q 1136 980 1171 947 q 1061 1046 1101 1013 q 982 1104 1021 1079 m 79 886 l 1311 886 l 1311 821 l 79 821 l 79 886 m 126 585 l 747 585 l 747 518 l 126 518 l 126 585 m 399 553 l 465 553 l 465 42 l 399 42 l 399 553 m 89 4 q 285 48 172 22 q 528 103 399 74 q 786 163 657 132 l 792 101 q 549 43 672 72 q 315 -13 426 14 q 114 -61 203 -40 l 89 4 m 803 1153 l 874 1153 q 890 766 874 947 q 935 438 906 585 q 1004 184 964 290 q 1096 20 1044 78 q 1204 -37 1147 -37 q 1252 26 1238 -37 q 1274 233 1267 89 q 1303 213 1286 222 q 1335 197 1321 203 q 1314 17 1328 83 q 1273 -78 1300 -50 q 1200 -107 1246 -107 q 1080 -62 1135 -107 q 982 67 1025 -17 q 906 265 939 150 q 850 519 872 379 q 817 820 828 660 q 803 1153 806 981 z "},"引":{"ha":1389,"x_min":133,"x_max":1175,"o":"m 681 464 l 749 464 q 748 458 749 464 q 747 443 747 451 q 746 429 747 435 q 720 169 733 268 q 691 16 707 69 q 653 -60 675 -37 q 612 -86 633 -79 q 557 -93 590 -93 q 465 -94 525 -96 q 335 -87 404 -92 q 328 -53 333 -71 q 311 -19 322 -35 q 448 -28 385 -26 q 535 -29 511 -29 q 572 -27 558 -29 q 594 -15 585 -25 q 630 51 615 1 q 657 199 644 101 q 681 454 669 297 l 681 464 m 208 775 l 276 775 q 253 645 265 715 q 228 512 240 575 q 204 400 215 449 l 133 400 q 160 515 147 450 q 187 648 174 579 q 208 775 200 717 m 1108 1149 l 1175 1149 l 1175 -103 l 1108 -103 l 1108 1149 m 190 464 l 700 464 l 700 400 l 181 400 l 190 464 m 239 775 l 679 775 l 679 1035 l 147 1035 l 147 1099 l 744 1099 l 744 711 l 239 711 l 239 775 z "},"張":{"ha":1389,"x_min":89,"x_max":1338,"o":"m 679 1089 l 1282 1089 l 1282 1031 l 679 1031 l 679 1089 m 676 896 l 1232 896 l 1232 840 l 676 840 l 676 896 m 518 511 l 1313 511 l 1313 450 l 518 450 l 518 511 m 649 1089 l 714 1089 l 714 475 l 649 475 l 649 1089 m 1206 396 l 1258 354 q 1149 258 1210 307 q 1038 174 1088 208 l 997 208 q 1069 266 1031 233 q 1144 333 1108 299 q 1206 396 1181 368 m 867 481 q 985 272 913 372 q 1149 94 1057 172 q 1338 -26 1240 17 q 1322 -42 1331 -33 q 1305 -62 1313 -51 q 1290 -81 1297 -72 q 1101 53 1192 -31 q 935 242 1010 136 q 813 461 861 347 l 867 481 m 679 708 l 1232 708 l 1232 651 l 679 651 l 679 708 m 614 -107 l 611 -49 l 644 -17 l 931 85 q 934 56 932 72 q 938 29 936 39 q 776 -33 838 -10 q 683 -71 715 -57 q 637 -93 651 -85 q 614 -107 622 -101 m 411 468 l 475 468 q 475 462 475 468 q 475 448 475 456 q 474 435 475 440 q 456 163 465 265 q 433 7 446 60 q 401 -67 421 -46 q 368 -90 388 -83 q 321 -100 349 -97 q 249 -100 296 -101 q 150 -96 201 -99 q 144 -62 149 -81 q 128 -29 139 -44 q 232 -36 183 -35 q 300 -37 281 -37 q 328 -35 318 -37 q 349 -24 339 -33 q 374 42 363 -8 q 394 192 385 92 q 411 457 403 293 l 411 468 m 124 782 l 185 782 q 183 652 185 722 q 179 517 182 582 q 174 406 176 453 l 110 406 q 117 519 114 454 q 122 654 121 585 q 124 782 124 724 m 140 468 l 425 468 l 425 406 l 133 406 l 140 468 m 144 782 l 411 782 l 411 1028 l 89 1028 l 89 1090 l 474 1090 l 474 719 l 144 719 l 144 782 m 614 -107 q 607 -87 613 -99 q 596 -62 601 -75 q 585 -43 590 -50 q 604 -26 594 -37 q 614 21 614 -15 l 614 476 l 678 476 l 678 -51 q 672 -55 678 -51 q 656 -64 665 -58 q 636 -76 646 -69 q 620 -91 626 -83 q 614 -107 614 -99 z "},"強":{"ha":1389,"x_min":78,"x_max":1331,"o":"m 526 0 q 731 13 614 4 q 979 30 847 21 q 1244 49 1111 39 l 1243 -12 q 990 -32 1117 -22 q 747 -51 863 -42 q 539 -67 631 -60 l 526 0 m 1083 186 l 1139 214 q 1217 115 1179 168 q 1285 10 1254 61 q 1331 -82 1315 -42 l 1272 -112 q 1226 -19 1256 -71 q 1160 87 1197 33 q 1083 186 1122 140 m 653 551 l 653 319 l 1185 319 l 1185 551 l 653 551 m 592 611 l 1247 611 l 1247 258 l 592 258 l 592 611 m 881 761 l 947 761 l 947 -1 l 881 -6 l 881 761 m 121 460 l 468 460 l 468 396 l 121 396 l 121 460 m 446 460 l 513 460 q 512 453 513 460 q 511 439 511 447 q 510 425 511 431 q 489 165 500 264 q 464 15 478 65 q 431 -56 450 -36 q 397 -80 415 -72 q 351 -89 379 -87 q 285 -90 328 -90 q 194 -85 242 -89 q 189 -53 193 -71 q 175 -21 185 -35 q 268 -26 225 -25 q 328 -28 311 -28 q 358 -26 347 -28 q 375 -14 368 -24 q 403 50 392 1 q 426 194 415 99 q 446 447 436 290 l 446 460 m 128 760 l 192 760 q 177 633 186 700 q 160 505 168 567 q 142 396 151 443 l 78 396 q 97 507 88 444 q 115 636 107 569 q 128 760 122 703 m 149 760 l 435 760 l 435 1018 l 86 1018 l 86 1082 l 499 1082 l 499 697 l 149 697 l 149 760 m 1024 996 l 1074 1025 q 1159 930 1115 982 q 1241 828 1203 878 q 1300 742 1279 779 l 1250 706 q 1190 795 1228 744 q 1109 899 1153 846 q 1024 996 1065 951 m 588 743 q 583 762 588 750 q 574 786 579 774 q 565 807 569 799 q 599 824 582 808 q 639 867 617 840 q 688 926 653 882 q 762 1030 722 971 q 832 1150 801 1089 l 900 1132 q 815 1001 860 1065 q 726 881 771 938 q 635 782 681 825 l 635 779 q 628 776 635 779 q 611 768 621 774 q 594 756 601 763 q 588 743 588 749 m 588 743 l 588 792 l 633 815 l 1194 864 q 1199 835 1196 851 q 1206 808 1203 818 q 938 784 1044 794 q 765 767 831 774 q 665 757 700 761 q 613 749 629 753 q 588 743 597 746 z "},"形":{"ha":1389,"x_min":64,"x_max":1340,"o":"m 86 1071 l 792 1071 l 792 1006 l 86 1006 l 86 1071 m 64 611 l 813 611 l 813 547 l 64 547 l 64 611 m 586 1054 l 653 1054 l 653 -103 l 586 -103 l 586 1054 m 260 1054 l 325 1054 l 325 621 q 312 362 325 490 q 254 114 299 233 q 117 -110 210 -6 q 103 -94 113 -103 q 83 -78 93 -86 q 65 -67 74 -71 q 194 146 154 33 q 247 379 235 258 q 260 621 260 500 l 260 1054 m 1193 1135 l 1257 1108 q 1139 988 1207 1047 q 999 876 1071 928 q 856 788 926 824 q 832 812 846 799 q 806 835 818 825 q 946 917 874 868 q 1084 1022 1018 965 q 1193 1135 1150 1079 m 1242 753 l 1303 726 q 1176 596 1249 661 q 1023 475 1103 531 q 867 379 943 419 q 844 404 858 390 q 817 428 831 418 q 972 517 893 464 q 1121 631 1050 569 q 1242 753 1192 692 m 1278 372 l 1340 347 q 1196 169 1282 254 q 1007 15 1110 85 q 794 -103 904 -56 q 772 -76 786 -92 q 744 -50 758 -60 q 956 59 854 -7 q 1140 206 1057 125 q 1278 372 1224 286 z "},"影":{"ha":1389,"x_min":86,"x_max":1332,"o":"m 1188 1129 l 1250 1103 q 1142 983 1204 1043 q 1015 870 1081 922 q 883 779 949 818 q 861 803 875 790 q 833 825 847 817 q 962 910 896 861 q 1088 1017 1028 960 q 1188 1129 1147 1074 m 1240 754 l 1301 728 q 1181 599 1251 663 q 1033 481 1111 536 q 881 388 956 426 q 859 413 872 399 q 832 435 846 426 q 983 524 907 472 q 1126 635 1058 575 q 1240 754 1194 694 m 1271 346 l 1332 321 q 1198 158 1278 236 q 1024 14 1118 79 q 831 -96 931 -51 q 809 -70 822 -85 q 785 -46 796 -56 q 974 57 882 -4 q 1144 192 1067 118 q 1271 346 1221 267 m 93 640 l 813 640 l 813 581 l 93 581 l 93 640 m 233 442 l 233 300 l 686 300 l 686 442 l 233 442 m 171 497 l 750 497 l 750 244 l 171 244 l 171 497 m 592 176 l 642 200 q 719 101 681 156 q 778 8 758 46 l 726 -22 q 668 74 706 18 q 592 176 631 129 m 229 901 l 229 797 l 699 797 l 699 901 l 229 901 m 229 1057 l 229 954 l 699 954 l 699 1057 l 229 1057 m 165 1110 l 764 1110 l 764 743 l 165 743 l 165 1110 m 426 269 l 492 269 l 492 -15 q 485 -58 492 -43 q 456 -82 478 -72 q 397 -91 435 -89 q 297 -93 358 -93 q 289 -62 296 -78 q 274 -33 282 -47 q 360 -35 325 -35 q 406 -33 394 -35 q 423 -29 419 -33 q 426 -15 426 -25 l 426 269 m 229 197 l 290 181 q 222 60 263 121 q 138 -42 181 0 q 123 -29 132 -36 q 104 -15 114 -22 q 86 -3 94 -8 q 168 88 131 36 q 229 197 206 140 m 385 717 l 446 733 q 481 677 464 710 q 507 619 499 644 l 444 600 q 419 657 436 624 q 385 717 401 690 z "},"往":{"ha":1389,"x_min":50,"x_max":1326,"o":"m 386 844 l 449 822 q 346 663 404 740 q 223 516 288 585 q 93 393 158 447 q 82 412 90 400 q 65 435 74 424 q 50 454 57 447 q 176 564 114 501 q 293 698 239 626 q 386 844 347 769 m 363 1154 l 428 1131 q 338 1015 390 1074 q 226 902 285 956 q 108 808 167 849 q 97 826 104 817 q 83 846 90 836 q 68 861 75 856 q 181 947 125 899 q 285 1050 238 996 q 363 1154 333 1104 m 264 621 l 331 686 l 332 685 l 332 -104 l 264 -104 l 264 621 m 528 474 l 1244 474 l 1244 410 l 528 410 l 528 474 m 438 7 l 1326 7 l 1326 -58 l 438 -58 l 438 7 m 476 890 l 1290 890 l 1290 825 l 476 825 l 476 890 m 846 854 l 915 854 l 915 -31 l 846 -31 l 846 854 m 763 1140 l 822 1164 q 898 1044 861 1110 q 953 935 935 979 l 888 904 q 836 1018 871 951 q 763 1140 801 1085 z "},"很":{"ha":1389,"x_min":49,"x_max":1332,"o":"m 386 847 l 449 825 q 346 665 404 743 q 223 519 288 588 q 92 396 158 450 q 81 416 89 404 q 65 439 74 428 q 49 457 56 450 q 175 567 113 504 q 292 702 238 631 q 386 847 347 774 m 369 1154 l 433 1131 q 343 1014 396 1074 q 231 901 290 954 q 111 808 171 849 q 100 826 107 817 q 85 846 93 836 q 72 861 78 856 q 185 947 128 899 q 290 1050 242 996 q 369 1154 339 1104 m 267 632 l 332 696 l 333 693 l 333 -103 l 267 -103 l 267 632 m 600 1094 l 1201 1094 l 1201 501 l 600 501 l 600 563 l 1135 563 l 1135 1032 l 600 1032 l 600 1094 m 601 829 l 1158 829 l 1158 769 l 601 769 l 601 829 m 843 538 q 947 286 881 400 q 1109 91 1013 172 q 1332 -32 1206 10 q 1315 -49 1324 -37 q 1298 -70 1306 -60 q 1285 -90 1290 -81 q 1058 46 1156 -42 q 893 255 961 133 q 786 524 825 376 l 843 538 m 1222 438 l 1269 392 q 1126 285 1207 338 q 981 197 1046 233 l 942 242 q 1036 300 985 267 q 1137 369 1088 333 q 1222 438 1186 406 m 550 -101 l 546 -40 l 586 -8 l 903 72 q 903 40 903 58 q 907 11 904 22 q 729 -40 796 -21 q 626 -71 663 -60 q 575 -89 590 -82 q 550 -101 560 -96 m 550 -101 q 542 -83 549 -93 q 530 -60 536 -72 q 517 -42 524 -49 q 546 -16 531 -35 q 561 44 561 3 l 561 1094 l 626 1094 l 626 -28 q 619 -33 626 -28 q 600 -46 611 -37 q 577 -64 589 -54 q 558 -83 565 -74 q 550 -101 550 -93 z "},"律":{"ha":1389,"x_min":49,"x_max":1325,"o":"m 532 1003 l 1217 1003 l 1217 528 l 525 528 l 525 588 l 1149 588 l 1149 942 l 532 942 l 532 1003 m 835 1157 l 901 1157 l 901 -103 l 835 -103 l 835 1157 m 461 797 l 1325 797 l 1325 735 l 461 735 l 461 797 m 442 188 l 1313 188 l 1313 126 l 442 126 l 442 188 m 507 393 l 1238 393 l 1238 333 l 507 333 l 507 393 m 386 850 l 447 828 q 344 669 403 747 q 222 523 286 592 q 92 400 157 454 q 81 419 89 407 q 65 442 74 431 q 49 460 56 453 q 175 570 113 507 q 292 704 238 633 q 386 850 347 775 m 372 1153 l 436 1131 q 345 1014 399 1074 q 233 901 292 954 q 114 807 174 847 q 103 825 110 815 q 88 844 96 835 q 75 860 81 854 q 187 947 131 899 q 292 1049 243 996 q 372 1153 340 1103 m 271 643 l 333 707 l 335 704 l 335 -100 l 271 -100 l 271 643 z "},"後":{"ha":1389,"x_min":58,"x_max":1311,"o":"m 781 601 l 842 585 q 685 355 781 463 q 486 174 589 247 q 473 190 482 181 q 455 210 464 200 q 438 224 446 219 q 632 390 540 292 q 781 601 724 489 m 1017 781 l 1071 808 q 1162 710 1115 764 q 1248 602 1208 656 q 1311 508 1288 549 l 1256 474 q 1194 569 1233 515 q 1108 678 1154 622 q 1017 781 1061 735 m 561 443 q 742 224 629 322 q 999 58 854 126 q 1307 -46 1143 -11 q 1292 -63 1300 -53 q 1276 -84 1283 -74 q 1264 -104 1268 -94 q 954 8 1100 -65 q 693 186 808 81 q 506 421 578 292 l 561 443 m 722 447 l 1154 447 l 1154 388 l 672 388 l 722 447 m 1131 447 l 1144 447 l 1158 451 l 1201 426 q 1069 230 1151 317 q 884 77 988 143 q 667 -34 781 11 q 438 -106 553 -79 q 428 -86 435 -97 q 415 -64 422 -75 q 401 -46 408 -53 q 622 19 511 -22 q 832 121 733 61 q 1008 259 931 181 q 1131 435 1086 338 l 1131 447 m 394 885 l 457 864 q 354 701 413 782 q 232 551 296 621 q 104 425 168 481 q 92 442 100 432 q 74 464 83 453 q 58 481 65 475 q 243 663 153 556 q 394 885 333 771 m 358 1158 l 421 1136 q 334 1020 385 1079 q 227 907 283 961 q 114 810 171 853 q 103 826 110 817 q 88 844 96 835 q 74 860 81 854 q 181 949 126 899 q 282 1053 236 999 q 358 1158 328 1108 m 261 651 l 313 704 l 326 697 l 326 -108 l 261 -108 l 261 651 m 504 772 q 499 793 503 781 q 490 817 494 806 q 482 839 486 829 q 522 856 500 842 q 572 889 544 869 q 635 942 592 904 q 732 1031 679 979 q 829 1139 785 1083 l 893 1108 q 726 942 813 1019 q 553 810 639 864 l 553 807 q 546 804 553 807 q 528 796 539 801 q 511 785 518 790 q 504 772 504 779 m 504 772 l 503 822 l 546 844 l 914 858 q 897 828 906 846 q 885 801 889 811 q 694 792 765 796 q 583 784 622 788 q 528 778 544 781 q 504 772 513 775 m 471 538 q 467 558 471 546 q 459 583 463 569 q 451 604 456 596 q 516 626 478 608 q 604 672 554 643 q 685 720 631 688 q 809 800 739 753 q 954 903 879 847 q 1097 1018 1029 958 l 1157 983 q 840 750 1000 854 q 522 572 679 646 l 522 571 q 515 567 522 571 q 497 559 507 564 q 478 549 486 554 q 471 538 471 543 m 471 538 l 471 588 l 519 610 l 1192 647 q 1195 619 1192 635 q 1201 592 1199 603 q 883 574 1010 581 q 678 561 756 567 q 559 552 600 556 q 500 545 518 549 q 471 538 482 542 z "},"得":{"ha":1389,"x_min":38,"x_max":1322,"o":"m 638 865 l 638 726 l 1154 726 l 1154 865 l 638 865 m 638 1057 l 638 921 l 1154 921 l 1154 1057 l 638 1057 m 572 1115 l 1221 1115 l 1221 669 l 572 669 l 572 1115 m 476 554 l 1300 554 l 1300 493 l 476 493 l 476 554 m 447 350 l 1322 350 l 1322 290 l 447 290 l 447 350 m 1036 503 l 1103 503 l 1103 -18 q 1094 -68 1103 -51 q 1057 -93 1085 -85 q 980 -103 1031 -101 q 849 -106 929 -106 q 838 -74 846 -92 q 824 -43 831 -57 q 941 -44 892 -44 q 1008 -43 990 -44 q 1031 -36 1026 -42 q 1036 -17 1036 -31 l 1036 503 m 583 217 l 633 250 q 737 147 685 204 q 815 49 789 90 l 763 10 q 716 74 746 38 q 652 148 686 110 q 583 217 618 186 m 383 849 l 443 825 q 338 667 397 744 q 212 520 278 589 q 79 399 146 451 q 69 417 76 406 q 53 439 61 428 q 38 458 44 450 q 166 568 103 506 q 285 702 229 631 q 383 849 342 774 m 364 1154 l 429 1131 q 337 1015 390 1074 q 224 902 283 956 q 104 808 164 849 q 93 826 100 817 q 78 846 86 836 q 65 861 71 856 q 178 947 121 899 q 285 1050 236 996 q 364 1154 333 1104 m 265 640 l 329 706 l 332 704 l 332 -101 l 265 -101 l 265 640 z "},"從":{"ha":1389,"x_min":33,"x_max":1333,"o":"m 896 369 l 1263 369 l 1263 308 l 896 308 l 896 369 m 867 626 l 932 626 l 932 -51 l 867 -31 l 867 626 m 635 321 q 728 101 668 176 q 872 -1 788 26 q 1065 -28 957 -28 q 1110 -28 1075 -28 q 1192 -28 1146 -28 q 1276 -28 1238 -28 q 1329 -28 1315 -28 q 1319 -47 1324 -36 q 1310 -71 1314 -58 q 1306 -92 1307 -83 l 1249 -92 l 1061 -92 q 892 -75 968 -92 q 758 -16 817 -58 q 655 103 699 26 q 582 299 611 179 l 635 321 m 688 1158 l 754 1147 q 649 833 718 974 q 476 600 579 693 q 463 615 472 606 q 443 633 454 624 q 424 646 432 642 q 590 865 525 732 q 688 1158 656 997 m 1063 1157 l 1132 1149 q 1038 844 1104 974 q 863 629 971 714 q 847 644 857 635 q 826 661 836 653 q 807 674 815 669 q 978 872 915 750 q 1063 1157 1040 993 m 642 893 l 678 939 q 744 883 710 913 q 810 823 779 853 q 858 769 840 793 l 822 718 q 773 773 803 742 q 708 836 743 804 q 642 893 674 868 m 1015 894 l 1064 935 q 1164 847 1113 896 q 1261 751 1215 799 q 1333 668 1307 704 l 1283 621 q 1212 706 1257 658 q 1115 803 1167 754 q 1015 894 1064 853 m 596 519 l 664 515 q 600 152 650 301 q 436 -99 550 3 q 422 -86 432 -94 q 401 -69 411 -78 q 382 -56 390 -61 q 540 178 494 35 q 596 519 586 321 m 394 885 l 457 863 q 346 701 408 781 q 214 551 283 621 q 76 425 144 481 q 65 442 72 432 q 49 464 57 453 q 33 481 40 475 q 167 597 100 532 q 292 735 233 661 q 394 885 351 810 m 358 1158 l 421 1135 q 328 1019 382 1078 q 213 906 274 960 q 92 810 153 853 q 81 826 88 817 q 66 844 74 835 q 53 860 58 854 q 167 947 110 897 q 276 1052 225 997 q 358 1158 326 1107 m 263 651 l 314 704 l 328 697 l 328 -108 l 263 -108 l 263 651 z "},"復":{"ha":1389,"x_min":49,"x_max":1325,"o":"m 664 624 l 664 507 l 1149 507 l 1149 624 l 664 624 m 664 789 l 664 676 l 1149 676 l 1149 789 l 664 789 m 600 844 l 1213 844 l 1213 451 l 600 451 l 600 844 m 682 1160 l 746 1144 q 644 929 706 1032 q 511 757 582 826 q 494 769 504 761 q 474 783 485 776 q 454 794 463 790 q 587 958 528 863 q 682 1160 646 1053 m 651 1014 l 1300 1014 l 1300 956 l 622 956 l 651 1014 m 772 474 l 832 456 q 674 260 769 350 q 479 110 578 169 q 466 124 475 115 q 448 141 457 132 q 431 156 439 150 q 623 294 531 211 q 772 474 715 378 m 703 346 l 1157 346 l 1157 289 l 663 289 l 703 346 m 1132 346 l 1144 346 l 1158 349 l 1201 325 q 1072 156 1153 228 q 889 33 992 85 q 672 -51 786 -18 q 442 -103 557 -85 q 433 -84 439 -94 q 420 -62 426 -74 q 408 -44 414 -50 q 630 0 519 -29 q 838 76 740 29 q 1013 186 936 122 q 1132 333 1089 250 l 1132 346 m 568 386 q 753 194 638 279 q 1017 49 869 108 q 1325 -37 1164 -10 q 1310 -56 1318 -44 q 1294 -78 1301 -68 q 1282 -99 1288 -89 q 973 -2 1121 -65 q 707 153 825 61 q 514 364 589 246 l 568 386 m 383 849 l 446 826 q 343 666 401 744 q 221 519 285 588 q 92 396 157 450 q 81 415 89 403 q 64 438 72 426 q 49 457 56 450 q 174 567 111 504 q 290 702 236 631 q 383 849 344 774 m 367 1154 l 432 1131 q 342 1014 394 1074 q 230 901 289 954 q 113 807 171 849 q 101 825 108 815 q 87 844 94 835 q 72 861 79 854 q 185 947 128 899 q 290 1050 242 996 q 367 1154 338 1104 m 268 640 l 333 707 l 335 706 l 335 -101 l 268 -101 l 268 640 z "},"心":{"ha":1389,"x_min":68,"x_max":1332,"o":"m 411 776 l 479 776 l 479 63 q 499 1 479 15 q 583 -14 519 -14 q 641 -14 600 -14 q 732 -14 682 -14 q 826 -14 782 -14 q 892 -14 871 -14 q 964 10 940 -14 q 997 99 988 33 q 1011 292 1006 165 q 1032 279 1021 286 q 1056 268 1043 272 q 1076 260 1068 264 q 1056 53 1071 128 q 1003 -50 1040 -21 q 892 -79 967 -79 q 851 -79 882 -79 q 778 -79 819 -79 q 694 -79 736 -79 q 622 -79 653 -79 q 583 -79 592 -79 q 479 -67 517 -79 q 426 -24 442 -56 q 411 64 411 7 l 411 776 m 206 661 l 269 646 q 238 474 258 569 q 192 283 218 378 q 135 115 165 188 l 68 144 q 128 306 101 215 q 176 490 156 397 q 206 661 196 583 m 1078 669 l 1139 690 q 1219 513 1181 607 q 1287 327 1257 418 q 1332 164 1317 236 l 1267 140 q 1223 304 1253 213 q 1156 492 1193 396 q 1078 669 1118 588 m 486 1053 l 532 1093 q 669 990 599 1046 q 802 876 740 933 q 903 775 864 819 l 857 728 q 756 829 818 772 q 624 946 694 886 q 486 1053 553 1006 z "},"必":{"ha":1389,"x_min":51,"x_max":1343,"o":"m 443 807 l 511 807 l 511 50 q 519 3 511 19 q 550 -21 528 -14 q 613 -28 572 -28 q 669 -28 628 -28 q 758 -28 710 -28 q 851 -28 807 -28 q 915 -28 894 -28 q 980 -6 958 -28 q 1011 78 1001 17 q 1025 257 1021 140 q 1046 244 1035 251 q 1069 233 1057 238 q 1092 225 1082 228 q 1071 32 1085 101 q 1021 -66 1057 -37 q 915 -94 985 -94 q 876 -94 907 -94 q 804 -94 844 -94 q 723 -94 764 -94 q 651 -94 682 -94 q 611 -94 621 -94 q 510 -83 547 -94 q 458 -39 472 -71 q 443 51 443 -7 l 443 807 m 439 1107 l 483 1151 q 613 1061 544 1111 q 743 964 681 1011 q 844 883 806 917 l 799 831 q 697 915 758 867 q 567 1015 635 964 q 439 1107 500 1065 m 221 714 l 282 696 q 243 535 267 622 q 187 367 219 449 q 114 224 154 286 l 51 253 q 127 392 94 313 q 183 557 160 472 q 221 714 207 642 m 1044 667 l 1103 692 q 1201 538 1154 621 q 1286 376 1249 456 q 1343 233 1324 296 l 1279 204 q 1223 348 1260 268 q 1140 512 1186 428 q 1044 667 1093 596 m 1121 1075 l 1186 1047 q 988 730 1100 883 q 740 440 876 576 q 442 190 603 304 q 96 -11 281 75 q 83 6 90 -3 q 67 25 75 15 q 51 40 60 35 q 393 235 233 122 q 689 482 553 347 q 934 767 825 617 q 1121 1075 1043 918 z "},"志":{"ha":1389,"x_min":78,"x_max":1311,"o":"m 82 942 l 1311 942 l 1311 876 l 82 876 l 82 942 m 171 604 l 1228 604 l 1228 539 l 171 539 l 171 604 m 657 1160 l 726 1160 l 726 557 l 657 557 l 657 1160 m 385 351 l 451 351 l 451 29 q 472 -10 451 0 q 561 -21 492 -21 q 608 -21 574 -21 q 685 -21 642 -21 q 772 -21 728 -21 q 853 -21 817 -21 q 907 -21 889 -21 q 966 -8 946 -21 q 994 44 986 4 q 1006 163 1003 83 q 1026 151 1014 157 q 1049 142 1038 146 q 1069 135 1061 139 q 1050 -1 1064 47 q 1003 -67 1036 -49 q 910 -85 971 -85 q 865 -85 900 -85 q 782 -85 829 -85 q 688 -85 735 -85 q 606 -85 640 -85 q 563 -85 571 -85 q 454 -75 493 -85 q 400 -41 415 -65 q 385 29 385 -17 l 385 351 m 532 446 l 581 486 q 697 412 636 453 q 809 329 757 371 q 894 251 861 288 l 846 204 q 763 283 814 240 q 651 369 711 326 q 532 446 590 413 m 1049 329 l 1108 351 q 1185 225 1147 293 q 1254 92 1222 157 q 1303 -18 1286 28 l 1238 -46 q 1190 67 1221 1 q 1123 201 1160 132 q 1049 329 1086 269 m 228 336 l 288 315 q 251 195 272 260 q 201 69 229 131 q 139 -39 174 8 l 78 -8 q 142 97 114 38 q 192 220 169 157 q 228 336 214 283 z "},"快":{"ha":1389,"x_min":49,"x_max":1342,"o":"m 251 1160 l 318 1160 l 318 -100 l 251 -100 l 251 1160 m 124 896 l 179 886 q 165 766 175 832 q 141 636 156 700 q 107 522 126 572 l 49 542 q 84 649 69 588 q 109 776 99 711 q 124 896 119 840 m 344 917 l 396 939 q 440 854 418 900 q 478 767 461 808 q 503 693 494 725 l 450 664 q 425 740 442 697 q 388 831 408 783 q 344 917 367 878 m 529 931 l 1203 931 l 1203 472 l 1138 472 l 1138 867 l 529 867 l 529 931 m 450 510 l 1342 510 l 1342 444 l 450 444 l 450 510 m 821 1160 l 888 1160 l 888 714 q 881 547 888 633 q 853 372 875 460 q 786 199 832 283 q 661 36 740 114 q 460 -107 582 -42 q 447 -90 456 -100 q 430 -72 439 -81 q 414 -56 421 -62 q 610 78 533 6 q 729 231 686 150 q 792 394 772 311 q 816 558 811 476 q 821 713 821 639 l 821 1160 m 938 367 l 994 393 q 1110 237 1050 321 q 1225 74 1171 153 q 1314 -64 1279 -6 l 1253 -96 q 1167 41 1219 -39 q 1053 207 1114 121 q 938 367 993 293 z "},"思":{"ha":1389,"x_min":78,"x_max":1306,"o":"m 404 340 l 471 340 l 471 38 q 489 0 471 8 q 571 -8 507 -8 q 626 -8 585 -8 q 718 -8 668 -8 q 813 -8 768 -8 q 876 -8 857 -8 q 932 5 914 -8 q 958 59 950 18 q 969 183 967 100 q 990 172 979 178 q 1012 163 1000 167 q 1032 156 1024 158 q 1014 14 1028 64 q 970 -55 1000 -36 q 881 -74 940 -74 q 840 -74 871 -74 q 767 -74 808 -74 q 683 -74 725 -74 q 609 -74 640 -74 q 569 -74 578 -74 q 469 -64 506 -74 q 419 -31 433 -54 q 404 38 404 -7 l 404 340 m 526 400 l 572 442 q 683 378 626 414 q 791 307 740 343 q 874 239 842 271 l 828 193 q 747 260 797 224 q 640 334 697 297 q 526 400 582 371 m 1040 326 l 1100 351 q 1183 236 1142 299 q 1257 113 1224 174 q 1306 6 1290 53 l 1242 -24 q 1194 84 1225 24 q 1122 208 1163 144 q 1040 326 1082 272 m 233 332 l 292 311 q 253 193 276 257 q 201 69 231 129 q 138 -36 172 8 l 78 -7 q 143 96 114 38 q 195 217 172 154 q 233 332 218 279 m 274 764 l 274 550 l 1103 550 l 1103 764 l 274 764 m 274 1033 l 274 824 l 1103 824 l 1103 1033 l 274 1033 m 208 1096 l 1168 1096 l 1168 489 l 208 489 l 208 1096 m 658 1071 l 724 1071 l 724 517 l 658 517 l 658 1071 z "},"性":{"ha":1389,"x_min":49,"x_max":1306,"o":"m 258 1160 l 325 1160 l 325 -100 l 258 -100 l 258 1160 m 124 897 l 179 888 q 165 768 175 833 q 141 638 156 703 q 106 524 126 574 l 49 543 q 84 651 69 589 q 109 777 99 713 q 124 897 119 842 m 360 917 l 410 939 q 473 814 443 882 q 515 701 503 746 l 461 672 q 438 746 454 704 q 402 833 422 788 q 360 917 382 879 m 656 1094 l 722 1083 q 673 888 701 983 q 610 708 644 792 q 533 560 575 625 q 517 570 528 564 q 493 582 506 576 q 472 592 481 588 q 550 735 515 654 q 612 908 585 817 q 656 1094 639 1000 m 629 857 l 1278 857 l 1278 792 l 606 792 l 629 857 m 874 1156 l 943 1156 l 943 -21 l 874 -21 l 874 1156 m 564 467 l 1247 467 l 1247 403 l 564 403 l 564 467 m 460 14 l 1306 14 l 1306 -50 l 460 -50 l 460 14 z "},"情":{"ha":1389,"x_min":47,"x_max":1321,"o":"m 613 367 l 1182 367 l 1182 308 l 613 308 l 613 367 m 513 1042 l 1281 1042 l 1281 985 l 513 985 l 513 1042 m 546 876 l 1247 876 l 1247 822 l 546 822 l 546 876 m 472 703 l 1321 703 l 1321 646 l 472 646 l 472 703 m 613 178 l 1188 178 l 1188 121 l 613 121 l 613 178 m 1164 549 l 1229 549 l 1229 -17 q 1220 -64 1229 -47 q 1188 -87 1211 -81 q 1117 -97 1163 -96 q 997 -99 1071 -99 q 988 -69 994 -86 q 975 -40 982 -53 q 1078 -42 1033 -42 q 1138 -40 1124 -42 q 1158 -34 1153 -39 q 1164 -17 1164 -29 l 1164 549 m 858 1160 l 925 1160 l 925 686 l 858 686 l 858 1160 m 258 1160 l 324 1160 l 324 -100 l 258 -100 l 258 1160 m 117 896 l 174 886 q 161 769 171 835 q 138 638 151 703 q 107 522 125 572 l 47 542 q 78 651 65 589 q 102 777 92 713 q 117 896 113 842 m 357 929 l 407 950 q 456 844 433 901 q 490 750 479 788 l 439 721 q 406 821 429 761 q 357 929 382 881 m 576 549 l 640 549 l 640 292 q 633 158 640 231 q 606 13 626 85 q 542 -119 585 -60 q 530 -101 539 -111 q 511 -84 521 -92 q 494 -72 501 -76 q 548 47 531 -17 q 571 173 565 110 q 576 292 576 236 l 576 549 m 613 549 l 1203 549 l 1203 493 l 613 493 l 613 549 z "},"想":{"ha":1389,"x_min":51,"x_max":1306,"o":"m 410 272 l 476 272 l 476 32 q 494 -2 476 6 q 575 -10 513 -10 q 631 -10 590 -10 q 723 -10 672 -10 q 818 -10 774 -10 q 882 -10 863 -10 q 935 1 918 -10 q 958 46 951 11 q 968 153 965 81 q 988 141 976 147 q 1010 131 999 135 q 1032 126 1021 128 q 1014 3 1026 46 q 972 -56 1001 -40 q 888 -72 943 -72 q 847 -72 878 -72 q 773 -72 815 -72 q 688 -72 731 -72 q 614 -72 646 -72 q 575 -72 582 -72 q 474 -65 510 -72 q 424 -34 438 -57 q 410 32 410 -11 l 410 272 m 582 338 l 631 369 q 701 301 664 339 q 771 227 738 263 q 825 164 804 192 l 776 125 q 722 190 754 153 q 653 266 690 226 q 582 338 617 306 m 1083 288 l 1143 311 q 1203 215 1172 267 q 1262 115 1235 164 q 1306 32 1289 67 l 1244 1 q 1201 88 1228 39 q 1143 189 1174 136 q 1083 288 1113 242 m 215 282 l 272 258 q 237 160 257 214 q 190 56 217 107 q 133 -33 164 6 l 76 -3 q 134 83 108 35 q 181 185 160 132 q 215 282 201 238 m 82 946 l 651 946 l 651 885 l 82 885 l 82 946 m 351 1154 l 415 1154 l 415 361 l 351 361 l 351 1154 m 347 913 l 396 893 q 317 722 365 807 q 212 566 268 638 q 99 449 156 494 q 76 474 90 460 q 51 497 63 489 q 166 604 110 538 q 269 751 222 671 q 347 913 317 831 m 407 796 q 458 760 424 785 q 533 706 493 735 q 606 651 572 676 q 654 613 639 625 l 615 558 q 565 603 597 575 q 495 663 533 631 q 424 721 457 694 q 371 761 390 747 l 407 796 m 779 810 l 779 650 l 1179 650 l 1179 810 l 779 810 m 779 592 l 779 432 l 1179 432 l 1179 592 l 779 592 m 779 1025 l 779 868 l 1179 868 l 1179 1025 l 779 1025 m 715 1083 l 1243 1083 l 1243 372 l 715 372 l 715 1083 z "},"意":{"ha":1389,"x_min":103,"x_max":1292,"o":"m 424 206 l 489 206 l 489 6 q 506 -25 489 -18 q 579 -32 522 -32 q 630 -32 593 -32 q 713 -32 667 -32 q 799 -32 760 -32 q 857 -32 839 -32 q 906 -22 890 -32 q 927 21 921 -12 q 936 124 933 54 q 966 109 949 115 q 999 99 983 103 q 982 -20 994 21 q 942 -76 969 -61 q 863 -92 915 -92 q 826 -92 854 -92 q 758 -92 797 -92 q 681 -92 719 -92 q 615 -92 643 -92 q 578 -92 586 -92 q 483 -84 517 -92 q 437 -55 450 -76 q 424 7 424 -33 l 424 206 m 578 244 l 618 282 q 699 231 657 260 q 778 174 742 203 q 838 121 814 144 l 793 78 q 735 133 771 103 q 658 192 699 163 q 578 244 617 222 m 1039 200 l 1092 226 q 1167 149 1129 192 q 1235 65 1204 107 q 1283 -10 1265 24 l 1228 -40 q 1180 36 1210 -6 q 1113 121 1150 78 q 1039 200 1076 164 m 267 211 l 322 186 q 253 54 293 125 q 158 -65 213 -17 l 103 -33 q 198 82 156 13 q 267 211 240 151 m 165 1042 l 1222 1042 l 1222 983 l 165 983 l 165 1042 m 106 818 l 1292 818 l 1292 760 l 106 760 l 106 818 m 383 964 l 444 981 q 488 903 468 946 q 517 828 507 860 l 450 808 q 425 884 444 840 q 383 964 406 928 m 946 985 l 1011 967 q 964 869 989 917 q 913 783 939 821 l 854 803 q 903 894 876 842 q 946 985 929 946 m 336 456 l 336 338 l 1058 338 l 1058 456 l 336 456 m 336 625 l 336 508 l 1058 508 l 1058 625 l 336 625 m 271 678 l 1125 678 l 1125 285 l 271 285 l 271 678 m 631 1150 l 693 1168 q 744 1094 719 1136 q 781 1022 768 1053 l 715 1001 q 679 1074 703 1032 q 631 1150 656 1117 z "},"感":{"ha":1389,"x_min":54,"x_max":1350,"o":"m 1040 1135 l 1082 1169 q 1173 1114 1125 1146 q 1250 1060 1221 1082 l 1207 1021 q 1131 1077 1179 1044 q 1040 1135 1082 1110 m 207 1008 l 1310 1008 l 1310 949 l 207 949 l 207 1008 m 317 829 l 846 829 l 846 774 l 317 774 l 317 829 m 1190 856 l 1250 840 q 1081 519 1185 663 q 850 278 976 375 q 835 293 844 285 q 816 310 826 301 q 799 324 806 318 q 1029 552 928 414 q 1190 856 1131 690 m 931 1160 l 997 1160 q 1008 836 997 990 q 1039 549 1019 682 q 1084 309 1058 417 q 1138 125 1110 201 q 1194 7 1165 49 q 1249 -35 1222 -35 q 1279 24 1268 -35 q 1294 210 1290 83 q 1322 191 1306 200 q 1350 178 1339 182 q 1333 14 1344 75 q 1300 -73 1322 -47 q 1240 -99 1278 -99 q 1159 -53 1197 -99 q 1088 78 1121 -7 q 1027 278 1054 163 q 979 535 1000 394 q 946 834 958 676 q 931 1160 933 992 m 174 1008 l 238 1008 l 238 701 q 233 515 238 617 q 215 305 228 413 q 176 92 201 197 q 108 -103 150 -12 q 92 -90 103 -97 q 72 -76 82 -83 q 54 -67 63 -69 q 119 122 94 22 q 155 324 143 221 q 170 524 167 426 q 174 701 174 621 l 174 1008 m 410 257 l 469 257 l 469 4 q 480 -24 469 -18 q 529 -31 490 -31 q 562 -31 538 -31 q 617 -31 586 -31 q 674 -31 647 -31 q 713 -31 700 -31 q 747 -19 736 -31 q 764 26 758 -8 q 771 136 769 61 q 796 122 781 128 q 825 113 811 115 q 812 -11 821 32 q 781 -71 803 -54 q 719 -87 760 -87 q 683 -87 711 -87 q 622 -87 656 -87 q 561 -87 589 -87 q 526 -87 533 -87 q 454 -80 479 -87 q 419 -53 429 -72 q 410 4 410 -33 l 410 257 m 524 315 l 572 336 q 647 232 608 289 q 708 136 686 175 l 657 110 q 598 208 636 149 q 524 315 560 268 m 828 228 l 881 244 q 929 152 904 201 q 976 57 954 103 q 1013 -22 999 11 l 956 -46 q 922 36 943 -11 q 876 134 900 83 q 828 228 851 185 m 303 239 l 351 221 q 331 131 343 181 q 304 35 319 82 q 271 -49 289 -11 l 221 -22 q 254 57 239 11 q 282 151 269 103 q 303 239 294 199 m 411 607 l 411 415 l 756 415 l 756 607 l 411 607 m 350 661 l 814 661 l 814 361 l 350 361 l 350 661 z "},"應":{"ha":1389,"x_min":49,"x_max":1318,"o":"m 676 692 l 1228 692 l 1228 643 l 676 643 l 676 692 m 676 550 l 1233 550 l 1233 501 l 676 501 l 676 550 m 661 406 l 1293 406 l 1293 353 l 661 353 l 661 406 m 497 961 l 557 944 q 427 732 503 835 q 274 557 351 629 q 260 570 269 563 q 241 586 250 578 q 224 600 232 594 q 377 764 304 668 q 497 961 450 860 m 717 963 l 776 946 q 667 750 732 844 q 538 588 603 656 q 522 601 532 594 q 503 616 513 608 q 485 628 493 624 q 615 781 553 692 q 717 963 676 869 m 947 811 l 1008 811 l 1008 382 l 947 382 l 947 811 m 569 224 l 633 224 l 633 4 q 647 -25 633 -18 q 710 -32 661 -32 q 756 -32 722 -32 q 829 -32 789 -32 q 904 -32 869 -32 q 954 -32 939 -32 q 994 -23 981 -32 q 1013 14 1007 -14 q 1021 100 1018 42 q 1049 85 1032 92 q 1079 75 1067 79 q 1065 -28 1076 8 q 1030 -78 1054 -64 q 961 -92 1006 -92 q 928 -92 954 -92 q 869 -92 903 -92 q 801 -92 835 -92 q 741 -92 767 -92 q 708 -92 715 -92 q 623 -84 653 -92 q 581 -56 593 -76 q 569 4 569 -35 l 569 224 m 690 269 l 732 311 q 819 268 774 292 q 904 219 864 244 q 971 172 944 194 l 928 124 q 863 174 903 147 q 778 225 824 200 q 690 269 733 250 m 1046 210 l 1097 238 q 1182 151 1140 199 q 1258 56 1224 103 q 1311 -29 1293 10 l 1256 -61 q 1203 25 1238 -22 q 1128 121 1169 72 q 1046 210 1088 169 m 411 222 l 468 201 q 398 58 440 131 q 292 -65 356 -15 l 240 -31 q 344 85 301 14 q 411 222 388 156 m 703 833 l 1267 833 l 1267 782 l 664 782 l 703 833 m 642 774 l 701 828 l 701 310 l 642 310 l 642 774 m 194 1044 l 1318 1044 l 1318 985 l 194 985 l 194 1044 m 160 1044 l 222 1044 l 222 621 q 218 449 222 542 q 201 258 214 356 q 165 68 189 161 q 103 -103 142 -25 q 88 -90 97 -97 q 67 -74 78 -82 q 49 -64 57 -67 q 109 99 86 11 q 142 278 132 186 q 156 457 153 369 q 160 621 160 544 l 160 1044 m 403 746 l 464 806 l 464 806 l 464 308 l 403 308 l 403 746 m 656 1164 l 710 1189 q 772 1106 742 1151 q 814 1025 801 1060 l 757 997 q 715 1081 743 1033 q 656 1164 686 1128 m 876 947 l 925 974 q 981 911 953 944 q 1022 851 1008 878 l 971 821 q 931 884 957 847 q 876 947 906 921 z "},"成":{"ha":1389,"x_min":60,"x_max":1324,"o":"m 228 639 l 588 639 l 588 575 l 228 575 l 228 639 m 561 639 l 625 639 q 625 633 625 639 q 625 618 625 626 q 625 604 625 610 q 617 345 622 443 q 604 198 613 247 q 582 132 596 149 q 551 110 568 117 q 506 100 535 103 q 433 99 479 99 q 336 104 388 100 q 330 136 335 118 q 317 167 325 154 q 416 160 369 161 q 481 160 463 160 q 506 163 496 160 q 524 174 517 165 q 542 233 536 188 q 553 374 549 279 q 561 626 558 468 l 561 639 m 935 1100 l 976 1142 q 1073 1090 1022 1119 q 1167 1032 1124 1061 q 1239 978 1211 1003 l 1199 931 q 1126 986 1171 956 q 1033 1047 1082 1017 q 935 1100 983 1076 m 1156 711 l 1222 694 q 976 226 1132 422 q 604 -94 821 31 q 590 -78 600 -87 q 572 -58 581 -68 q 554 -40 563 -47 q 923 265 772 75 q 1156 711 1074 454 m 236 907 l 1314 907 l 1314 842 l 236 842 l 236 907 m 194 907 l 264 907 l 264 525 q 258 372 264 454 q 238 205 253 290 q 193 39 222 119 q 115 -108 164 -42 q 101 -93 111 -101 q 79 -77 90 -85 q 60 -65 68 -69 q 149 124 121 21 q 185 332 176 228 q 194 526 194 436 l 194 907 m 779 1157 l 849 1157 q 865 772 849 951 q 912 446 882 592 q 985 194 942 300 q 1081 33 1028 89 q 1194 -24 1133 -24 q 1243 37 1228 -24 q 1264 239 1258 97 q 1292 219 1275 229 q 1324 204 1310 210 q 1303 27 1317 92 q 1262 -65 1289 -37 q 1189 -93 1235 -93 q 1065 -49 1121 -93 q 963 78 1008 -4 q 885 275 918 161 q 828 528 851 389 q 792 827 804 668 q 779 1157 781 986 z "},"我":{"ha":1389,"x_min":65,"x_max":1329,"o":"m 976 1086 l 1029 1124 q 1115 1044 1071 1088 q 1199 959 1160 1001 q 1263 885 1239 917 l 1207 843 q 1147 919 1185 876 q 1064 1006 1108 963 q 976 1086 1019 1050 m 82 739 l 1310 739 l 1310 674 l 82 674 l 82 739 m 65 322 q 256 364 146 339 q 488 417 365 389 q 733 474 611 446 l 739 414 q 508 357 625 386 q 284 302 392 328 q 89 254 176 276 l 65 322 m 400 1035 l 467 1035 l 467 -4 q 455 -65 467 -46 q 414 -93 443 -85 q 333 -103 388 -101 q 192 -106 278 -106 q 185 -84 189 -96 q 176 -59 182 -72 q 167 -37 171 -46 q 293 -39 236 -39 q 368 -37 350 -39 q 393 -29 386 -36 q 400 -6 400 -22 l 400 1035 m 651 1138 l 703 1082 q 530 1030 628 1054 q 326 985 432 1006 q 122 949 221 965 q 113 977 119 961 q 100 1006 107 993 q 301 1042 197 1021 q 497 1088 404 1064 q 651 1138 589 1113 m 793 1147 l 863 1147 q 880 763 864 943 q 926 435 896 582 q 998 181 956 288 q 1091 18 1040 75 q 1200 -39 1142 -39 q 1249 21 1233 -39 q 1269 221 1264 81 q 1298 201 1281 211 q 1329 186 1315 192 q 1308 12 1322 76 q 1268 -80 1294 -53 q 1194 -107 1242 -107 q 1074 -62 1129 -107 q 975 66 1019 -17 q 898 263 931 149 q 842 518 865 378 q 808 817 819 658 q 793 1147 796 976 m 1169 600 l 1229 575 q 1068 332 1164 449 q 856 119 972 215 q 610 -46 739 22 q 588 -19 601 -35 q 561 6 574 -4 q 803 163 688 69 q 1013 368 919 256 q 1169 600 1107 481 z "}}}
